{
classes = (
{
automatic = 1;
code = "A Aacute Acircumflex Adieresis Agrave Aring Atilde AE B C Ccedilla D Eth E Eacute Ecircumflex Edieresis Egrave F G H I Iacute Icircumflex Idieresis Igrave J K L Lslash M N Ntilde O Oacute Ocircumflex Odieresis Ograve Oslash Otilde OE P Thorn Q R S Scaron T U Uacute Ucircumflex Udieresis Ugrave V W X Y Yacute Ydieresis Z Zcaron Delta Omega";
name = Uppercase;
}
);
copyright = "Copyright (c) 2011-2015 by Omnibus-Type (www.omnibus-type.com omnibus.type@gmail.com)";
customParameters = (
{
name = openTypeNameLicenseURL;
value = "http://scripts.sil.org/OFL";
},
{
name = openTypeNameDescription;
value = "Chivo (Goat) is a new Omnibus-Type grotesque. The strength of Chivo Black Italic make it ideal for highlights and headlines. Chivo Black Italic elegance\U00A0makes it ideal for\U00A0combining the strength of\U00A0Chivo family\U00A0and to use in texts for continuous reading.\U00A0Its\U00A0design\U00A0detail becomes\U00A0an indispensable ally for any designer.";
},
{
name = trademark;
value = "Chivo is a trademark of Omnibus-Type.";
},
{
name = openTypeNameLicense;
value = "This Font Software is licensed under the SIL Open Font License, Version 1.1. This license is available with a FAQ at: http://scripts.sil.org/OFL";
},
{
name = openTypeOS2VendorID;
value = OMNI;
},
{
name = fsType;
value = (
);
},
{
name = "Family Alignment Zones";
value = (
"{686, 12}",
"{511, 12}",
"{0, -12}",
);
}
);
date = "2015-01-30 21:32:58 +0000";
designer = "Hector Gatti";
designerURL = "http://www.omnibus-type.com";
familyName = "Chivo";
featurePrefixes = (
{
automatic = 1;
code = "languagesystem DFLT dflt;\012languagesystem grek dflt;\012languagesystem latn dflt;\012";
name = Languagesystems;
}
);
features = (
{
automatic = 1;
code = "feature sups;\012feature frac;\012feature ordn;\012";
name = aalt;
},
{
automatic = 1;
code = "sub one by onesuperior;\012sub two by twosuperior;\012sub three by threesuperior;\012";
name = sups;
},
{
automatic = 1;

glyphs = (
{
glyphname = A;
lastChange = "2014-09-09 18:09:45 +0000";
layers = (
{
anchors = (
{
name = ogonek;
position = "{617, 10}";
},
{
name = top;
position = "{313, 686}";
}
);
background = {
anchors = (
{
name = top;
position = "{326, 686}";
},
{
name = ogonek;
position = "{587, 10}";
}
);
paths = (
{
closed = 1;
nodes = (
"563 0 LINE",
"622 0 LINE",
"338 686 LINE",
"288 686 LINE",
"4 0 LINE",
"60 0 LINE",
"130 170 LINE",
"492 170 LINE"
);
},
{
closed = 1;
nodes = (
"309 612 LINE",
"313 612 LINE",
"472 219 LINE",
"150 219 LINE"
);
}
);
};
layerId = "D4B4FEC9-7137-4CB7-86D3-564A65A82025";
name = Light;
paths = (
{
closed = 1;
nodes = (
"563 0 LINE",
"622 0 LINE",
"338 686 LINE",
"288 686 LINE",
"4 0 LINE",
"60 0 LINE",
"130 170 LINE",
"492 170 LINE"
);
},
{
closed = 1;
nodes = (
"309 612 LINE",
"313 612 LINE",
"472 219 LINE",
"150 219 LINE"
);
}
);
width = 652;
}
);
unicode = 0041;
},
{
glyphname = Aacute;
lastChange = "2014-09-05 18:36:13 +0000";
layers = (
{
background = {
paths = (
{
closed = 1;
nodes = (
"563 0 LINE",
"622 0 LINE",
"338 686 LINE",
"288 686 LINE",
"4 0 LINE",
"60 0 LINE",
"130 170 LINE",
"492 170 LINE"
);
},
{
closed = 1;
nodes = (
"309 612 LINE",
"313 612 LINE",
"472 219 LINE",
"150 219 LINE"
);
},
{
closed = 1;
nodes = (
"347 750 LINE",
"458 892 LINE",
"458 895 LINE",
"393 895 LINE",
"297 750 LINE"
);
}
);
};
layerId = "D4B4FEC9-7137-4CB7-86D3-564A65A82025";
name = Light;
paths = (
{
closed = 1;
nodes = (
"563 0 LINE",
"622 0 LINE",
"338 686 LINE",
"288 686 LINE",
"4 0 LINE",
"60 0 LINE",
"130 170 LINE",
"492 170 LINE"
);
},
{
closed = 1;
nodes = (
"309 612 LINE",
"313 612 LINE",
"472 219 LINE",
"150 219 LINE"
);
},
{
closed = 1;
nodes = (
"347 750 LINE",
"458 892 LINE",
"458 895 LINE",
"393 895 LINE",
"297 750 LINE"
);
}
);
width = 652;
}
);
unicode = 00C1;
},
{
glyphname = Acircumflex;
lastChange = "2014-09-05 18:36:13 +0000";
layers = (
{
background = {
paths = (
{
closed = 1;
nodes = (
"563 0 LINE",
"622 0 LINE",
"338 686 LINE",
"288 686 LINE",
"4 0 LINE",
"60 0 LINE",
"130 170 LINE",
"492 170 LINE"
);
},
{
closed = 1;
nodes = (
"309 612 LINE",
"313 612 LINE",
"472 219 LINE",
"150 219 LINE"
);
},
{
closed = 1;
nodes = (
"151 750 LINE",
"211 750 LINE",
"314 847 LINE",
"417 750 LINE",
"477 750 LINE",
"343 895 LINE",
"285 895 LINE"
);
}
);
};
layerId = "D4B4FEC9-7137-4CB7-86D3-564A65A82025";
name = Light;
paths = (
{
closed = 1;
nodes = (
"563 0 LINE",
"622 0 LINE",
"338 686 LINE",
"288 686 LINE",
"4 0 LINE",
"60 0 LINE",
"130 170 LINE",
"492 170 LINE"
);
},
{
closed = 1;
nodes = (
"309 612 LINE",
"313 612 LINE",
"472 219 LINE",
"150 219 LINE"
);
},
{
closed = 1;
nodes = (
"151 750 LINE",
"211 750 LINE",
"314 847 LINE",
"417 750 LINE",
"477 750 LINE",
"343 895 LINE",
"285 895 LINE"
);
}
);
width = 652;
}
);
unicode = 00C2;
},
{
glyphname = Adieresis;
lastChange = "2014-09-05 18:36:13 +0000";
layers = (
{
background = {
paths = (
{
closed = 1;
nodes = (
"563 0 LINE",
"622 0 LINE",
"338 686 LINE",
"288 686 LINE",
"4 0 LINE",
"60 0 LINE",
"130 170 LINE",
"492 170 LINE"
);
},
{
closed = 1;
nodes = (
"309 612 LINE",
"313 612 LINE",
"472 219 LINE",
"150 219 LINE"
);
},
{
closed = 1;
nodes = (
"194 750 LINE",
"259 750 LINE",
"259 819 LINE",
"194 819 LINE"
);
},
{
closed = 1;
nodes = (
"370 750 LINE",
"435 750 LINE",
"435 819 LINE",
"370 819 LINE"
);
}
);
};
layerId = "D4B4FEC9-7137-4CB7-86D3-564A65A82025";
name = Light;
paths = (
{
closed = 1;
nodes = (
"563 0 LINE",
"622 0 LINE",
"338 686 LINE",
"288 686 LINE",
"4 0 LINE",
"60 0 LINE",
"130 170 LINE",
"492 170 LINE"
);
},
{
closed = 1;
nodes = (
"309 612 LINE",
"313 612 LINE",
"472 219 LINE",
"150 219 LINE"
);
},
{
closed = 1;
nodes = (
"194 750 LINE",
"259 750 LINE",
"259 819 LINE",
"194 819 LINE"
);
},
{
closed = 1;
nodes = (
"370 750 LINE",
"435 750 LINE",
"435 819 LINE",
"370 819 LINE"
);
}
);
width = 652;
}
);
unicode = 00C4;
},
{
glyphname = Agrave;
lastChange = "2014-09-05 18:36:13 +0000";
layers = (
{
background = {
paths = (
{
closed = 1;
nodes = (
"563 0 LINE",
"622 0 LINE",
"338 686 LINE",
"288 686 LINE",
"4 0 LINE",
"60 0 LINE",
"130 170 LINE",
"492 170 LINE"
);
},
{
closed = 1;
nodes = (
"309 612 LINE",
"313 612 LINE",
"472 219 LINE",
"150 219 LINE"
);
},
{
closed = 1;
nodes = (
"350 750 LINE",
"254 895 LINE",
"189 895 LINE",
"189 892 LINE",
"300 750 LINE"
);
}
);
};
layerId = "D4B4FEC9-7137-4CB7-86D3-564A65A82025";
name = Light;
paths = (
{
closed = 1;
nodes = (
"563 0 LINE",
"622 0 LINE",
"338 686 LINE",
"288 686 LINE",
"4 0 LINE",
"60 0 LINE",
"130 170 LINE",
"492 170 LINE"
);
},
{
closed = 1;
nodes = (
"309 612 LINE",
"313 612 LINE",
"472 219 LINE",
"150 219 LINE"
);
},
{
closed = 1;
nodes = (
"350 750 LINE",
"254 895 LINE",
"189 895 LINE",
"189 892 LINE",
"300 750 LINE"
);
}
);
width = 652;
}
);
unicode = 00C0;
},
{
glyphname = Aring;
lastChange = "2014-09-05 18:36:13 +0000";
layers = (
{
background = {
paths = (
{
closed = 1;
nodes = (
"563 0 LINE",
"622 0 LINE",
"338 686 LINE",
"288 686 LINE",
"4 0 LINE",
"60 0 LINE",
"130 170 LINE",
"492 170 LINE"
);
},
{
closed = 1;
nodes = (
"309 612 LINE",
"313 612 LINE",
"472 219 LINE",
"150 219 LINE"
);
},
{
closed = 1;
nodes = (
"415 877 OFFCURVE",
"369 921 OFFCURVE",
"314 921 CURVE SMOOTH",
"258 921 OFFCURVE",
"213 876 OFFCURVE",
"213 820 CURVE SMOOTH",
"213 764 OFFCURVE",
"259 720 OFFCURVE",
"314 720 CURVE SMOOTH",
"370 720 OFFCURVE",
"415 765 OFFCURVE",
"415 820 CURVE SMOOTH"
);
},
{
closed = 1;
nodes = (
"379 785 OFFCURVE",
"350 756 OFFCURVE",
"314 756 CURVE SMOOTH",
"279 756 OFFCURVE",
"249 784 OFFCURVE",
"249 820 CURVE SMOOTH",
"249 856 OFFCURVE",
"278 885 OFFCURVE",
"314 885 CURVE SMOOTH",
"349 885 OFFCURVE",
"379 857 OFFCURVE",
"379 820 CURVE SMOOTH"
);
}
);
};
layerId = "D4B4FEC9-7137-4CB7-86D3-564A65A82025";
name = Light;
paths = (
{
closed = 1;
nodes = (
"563 0 LINE",
"622 0 LINE",
"338 686 LINE",
"288 686 LINE",
"4 0 LINE",
"60 0 LINE",
"130 170 LINE",
"492 170 LINE"
);
},
{
closed = 1;
nodes = (
"309 612 LINE",
"313 612 LINE",
"472 219 LINE",
"150 219 LINE"
);
},
{
closed = 1;
nodes = (
"415 877 OFFCURVE",
"369 921 OFFCURVE",
"314 921 CURVE SMOOTH",
"258 921 OFFCURVE",
"213 876 OFFCURVE",
"213 820 CURVE SMOOTH",
"213 764 OFFCURVE",
"259 720 OFFCURVE",
"314 720 CURVE SMOOTH",
"370 720 OFFCURVE",
"415 765 OFFCURVE",
"415 820 CURVE SMOOTH"
);
},
{
closed = 1;
nodes = (
"379 785 OFFCURVE",
"350 756 OFFCURVE",
"314 756 CURVE SMOOTH",
"279 756 OFFCURVE",
"249 784 OFFCURVE",
"249 820 CURVE SMOOTH",
"249 856 OFFCURVE",
"278 885 OFFCURVE",
"314 885 CURVE SMOOTH",
"349 885 OFFCURVE",
"379 857 OFFCURVE",
"379 820 CURVE SMOOTH"
);
}
);
width = 652;
}
);
unicode = 00C5;
},
{
glyphname = Atilde;
lastChange = "2014-09-05 18:36:13 +0000";
layers = (
{
background = {
paths = (
{
closed = 1;
nodes = (
"563 0 LINE",
"622 0 LINE",
"338 686 LINE",
"288 686 LINE",
"4 0 LINE",
"60 0 LINE",
"130 170 LINE",
"492 170 LINE"
);
},
{
closed = 1;
nodes = (
"309 612 LINE",
"313 612 LINE",
"472 219 LINE",
"150 219 LINE"
);
},
{
closed = 1;
nodes = (
"457 832 LINE",
"450 809 OFFCURVE",
"433 800 OFFCURVE",
"400 800 CURVE SMOOTH",
"346 800 OFFCURVE",
"297 832 OFFCURVE",
"233 832 CURVE SMOOTH",
"155 832 OFFCURVE",
"132 782 OFFCURVE",
"132 750 CURVE",
"169 750 LINE",
"176 773 OFFCURVE",
"193 782 OFFCURVE",
"226 782 CURVE SMOOTH",
"280 782 OFFCURVE",
"329 750 OFFCURVE",
"393 750 CURVE SMOOTH",
"472 750 OFFCURVE",
"494 800 OFFCURVE",
"494 832 CURVE"
);
}
);
};
layerId = "D4B4FEC9-7137-4CB7-86D3-564A65A82025";
name = Light;
paths = (
{
closed = 1;
nodes = (
"563 0 LINE",
"622 0 LINE",
"338 686 LINE",
"288 686 LINE",
"4 0 LINE",
"60 0 LINE",
"130 170 LINE",
"492 170 LINE"
);
},
{
closed = 1;
nodes = (
"309 612 LINE",
"313 612 LINE",
"472 219 LINE",
"150 219 LINE"
);
},
{
closed = 1;
nodes = (
"457 832 LINE",
"450 809 OFFCURVE",
"433 800 OFFCURVE",
"400 800 CURVE SMOOTH",
"346 800 OFFCURVE",
"297 832 OFFCURVE",
"233 832 CURVE SMOOTH",
"155 832 OFFCURVE",
"132 782 OFFCURVE",
"132 750 CURVE",
"169 750 LINE",
"176 773 OFFCURVE",
"193 782 OFFCURVE",
"226 782 CURVE SMOOTH",
"280 782 OFFCURVE",
"329 750 OFFCURVE",
"393 750 CURVE SMOOTH",
"472 750 OFFCURVE",
"494 800 OFFCURVE",
"494 832 CURVE"
);
}
);
width = 652;
}
);
unicode = 00C3;
},
{
glyphname = AE;
lastChange = "2014-09-05 18:36:13 +0000";
layers = (
{
anchors = (
{
name = top;
position = "{492, 686}";
}
);
background = {
anchors = (
{
name = top;
position = "{492, 686}";
}
);
paths = (
{
closed = 1;
nodes = (
"913 0 LINE",
"904 48 LINE",
"608 48 LINE",
"532 326 LINE",
"852 326 LINE",
"852 374 LINE",
"519 374 LINE",
"447 638 LINE",
"891 638 LINE",
"903 686 LINE",
"388 686 LINE",
"7 0 LINE",
"69 0 LINE",
"163 170 LINE",
"517 170 LINE",
"564 0 LINE"
);
},
{
closed = 1;
nodes = (
"398 607 LINE",
"401 608 LINE",
"504 219 LINE",
"190 219 LINE"
);
}
);
};
layerId = "D4B4FEC9-7137-4CB7-86D3-564A65A82025";
name = Light;
paths = (
{
closed = 1;
nodes = (
"913 0 LINE",
"904 48 LINE",
"608 48 LINE",
"532 326 LINE",
"852 326 LINE",
"852 374 LINE",
"519 374 LINE",
"447 638 LINE",
"891 638 LINE",
"903 686 LINE",
"388 686 LINE",
"7 0 LINE",
"69 0 LINE",
"163 170 LINE",
"517 170 LINE",
"564 0 LINE"
);
},
{
closed = 1;
nodes = (
"398 607 LINE",
"401 608 LINE",
"504 219 LINE",
"190 219 LINE"
);
}
);
width = 983;
}
);
unicode = 00C6;
},
{
glyphname = B;
lastChange = "2014-09-05 18:36:13 +0000";
layers = (
{
background = {
paths = (
{
closed = 1;
nodes = (
"92 0 LINE",
"372 0 LINE SMOOTH",
"477 0 OFFCURVE",
"562 82 OFFCURVE",
"562 183 CURVE SMOOTH",
"562 317 OFFCURVE",
"461 348 OFFCURVE",
"425 353 CURVE",
"425 359 LINE",
"478 372 OFFCURVE",
"546 416 OFFCURVE",
"546 518 CURVE SMOOTH",
"546 611 OFFCURVE",
"465 686 OFFCURVE",
"366 686 CURVE SMOOTH",
"92 686 LINE"
);
},
{
closed = 1;
nodes = (
"146 374 LINE",
"146 638 LINE",
"356 638 LINE SMOOTH",
"431 638 OFFCURVE",
"491 581 OFFCURVE",
"491 506 CURVE SMOOTH",
"491 431 OFFCURVE",
"431 374 OFFCURVE",
"356 374 CURVE SMOOTH"
);
},
{
closed = 1;
nodes = (
"146 48 LINE",
"146 326 LINE",
"366 326 LINE SMOOTH",
"444 326 OFFCURVE",
"508 264 OFFCURVE",
"508 186 CURVE SMOOTH",
"508 108 OFFCURVE",
"444 48 OFFCURVE",
"366 48 CURVE SMOOTH"
);
}
);
};
layerId = "D4B4FEC9-7137-4CB7-86D3-564A65A82025";
name = Light;
paths = (
{
closed = 1;
nodes = (
"92 0 LINE",
"372 0 LINE SMOOTH",
"477 0 OFFCURVE",
"562 82 OFFCURVE",
"562 183 CURVE SMOOTH",
"562 317 OFFCURVE",
"461 348 OFFCURVE",
"425 353 CURVE",
"425 359 LINE",
"478 372 OFFCURVE",
"546 416 OFFCURVE",
"546 518 CURVE SMOOTH",
"546 611 OFFCURVE",
"465 686 OFFCURVE",
"366 686 CURVE SMOOTH",
"92 686 LINE"
);
},
{
closed = 1;
nodes = (
"146 374 LINE",
"146 638 LINE",
"356 638 LINE SMOOTH",
"431 638 OFFCURVE",
"491 581 OFFCURVE",
"491 506 CURVE SMOOTH",
"491 431 OFFCURVE",
"431 374 OFFCURVE",
"356 374 CURVE SMOOTH"
);
},
{
closed = 1;
nodes = (
"146 48 LINE",
"146 326 LINE",
"366 326 LINE SMOOTH",
"444 326 OFFCURVE",
"508 264 OFFCURVE",
"508 186 CURVE SMOOTH",
"508 108 OFFCURVE",
"444 48 OFFCURVE",
"366 48 CURVE SMOOTH"
);
}
);
width = 651;
}
);
unicode = 0042;
},
{
glyphname = C;
lastChange = "2014-09-05 18:36:13 +0000";
layers = (
{
anchors = (
{
name = bottom;
position = "{332, 0}";
},
{
name = top;
position = "{332, 686}";
}
);
background = {
anchors = (
{
name = top;
position = "{332, 686}";
},
{
name = bottom;
position = "{332, 0}";
}
);
paths = (
{
closed = 1;
nodes = (
"521 251 LINE",
"521 81 OFFCURVE",
"425 38 OFFCURVE",
"320 38 CURVE SMOOTH",
"203 38 OFFCURVE",
"116 91 OFFCURVE",
"116 318 CURVE SMOOTH",
"116 368 LINE SMOOTH",
"116 595 OFFCURVE",
"203 648 OFFCURVE",
"320 648 CURVE SMOOTH",
"425 648 OFFCURVE",
"521 606 OFFCURVE",
"521 434 CURVE",
"574 434 LINE",
"574 642 OFFCURVE",
"452 696 OFFCURVE",
"320 696 CURVE SMOOTH",
"173 696 OFFCURVE",
"62 631 OFFCURVE",
"62 356 CURVE SMOOTH",
"62 330 LINE SMOOTH",
"62 55 OFFCURVE",
"173 -10 OFFCURVE",
"320 -10 CURVE SMOOTH",
"452 -10 OFFCURVE",
"574 48 OFFCURVE",
"574 251 CURVE"
);
}
);
};
layerId = "D4B4FEC9-7137-4CB7-86D3-564A65A82025";
name = Light;
paths = (
{
closed = 1;
nodes = (
"521 251 LINE",
"521 81 OFFCURVE",
"425 38 OFFCURVE",
"320 38 CURVE SMOOTH",
"203 38 OFFCURVE",
"116 91 OFFCURVE",
"116 318 CURVE SMOOTH",
"116 368 LINE SMOOTH",
"116 595 OFFCURVE",
"203 648 OFFCURVE",
"320 648 CURVE SMOOTH",
"425 648 OFFCURVE",
"521 606 OFFCURVE",
"521 434 CURVE",
"574 434 LINE",
"574 642 OFFCURVE",
"452 696 OFFCURVE",
"320 696 CURVE SMOOTH",
"173 696 OFFCURVE",
"62 631 OFFCURVE",
"62 356 CURVE SMOOTH",
"62 330 LINE SMOOTH",
"62 55 OFFCURVE",
"173 -10 OFFCURVE",
"320 -10 CURVE SMOOTH",
"452 -10 OFFCURVE",
"574 48 OFFCURVE",
"574 251 CURVE"
);
}
);
width = 663;
}
);
unicode = 0043;
},
{
glyphname = Ccedilla;
lastChange = "2014-09-05 18:36:13 +0000";
layers = (
{
background = {
paths = (
{
closed = 1;
nodes = (
"521 251 LINE",
"521 81 OFFCURVE",
"425 38 OFFCURVE",
"320 38 CURVE SMOOTH",
"203 38 OFFCURVE",
"116 91 OFFCURVE",
"116 318 CURVE SMOOTH",
"116 368 LINE SMOOTH",
"116 595 OFFCURVE",
"203 648 OFFCURVE",
"320 648 CURVE SMOOTH",
"425 648 OFFCURVE",
"521 606 OFFCURVE",
"521 434 CURVE",
"574 434 LINE",
"574 642 OFFCURVE",
"452 696 OFFCURVE",
"320 696 CURVE SMOOTH",
"173 696 OFFCURVE",
"62 631 OFFCURVE",
"62 356 CURVE SMOOTH",
"62 330 LINE SMOOTH",
"62 55 OFFCURVE",
"173 -10 OFFCURVE",
"320 -10 CURVE SMOOTH",
"452 -10 OFFCURVE",
"574 48 OFFCURVE",
"574 251 CURVE"
);
},
{
closed = 1;
nodes = (
"221 -184 LINE",
"245 -193 OFFCURVE",
"274 -197 OFFCURVE",
"299 -197 CURVE SMOOTH",
"345 -197 OFFCURVE",
"417 -179 OFFCURVE",
"417 -106 CURVE SMOOTH",
"417 -37 OFFCURVE",
"365 -17 OFFCURVE",
"311 -17 CURVE SMOOTH",
"311 -17 OFFCURVE",
"294 -17 OFFCURVE",
"286 -17 CURVE",
"286 -51 LINE",
"308 -51 LINE SMOOTH",
"335 -51 OFFCURVE",
"366 -66 OFFCURVE",
"366 -97 CURVE SMOOTH",
"366 -140 OFFCURVE",
"327 -151 OFFCURVE",
"290 -151 CURVE SMOOTH",
"257 -151 OFFCURVE",
"234 -145 OFFCURVE",
"221 -138 CURVE"
);
}
);
};
layerId = "D4B4FEC9-7137-4CB7-86D3-564A65A82025";
name = Light;
paths = (
{
closed = 1;
nodes = (
"521 251 LINE",
"521 81 OFFCURVE",
"425 38 OFFCURVE",
"320 38 CURVE SMOOTH",
"203 38 OFFCURVE",
"116 91 OFFCURVE",
"116 318 CURVE SMOOTH",
"116 368 LINE SMOOTH",
"116 595 OFFCURVE",
"203 648 OFFCURVE",
"320 648 CURVE SMOOTH",
"425 648 OFFCURVE",
"521 606 OFFCURVE",
"521 434 CURVE",
"574 434 LINE",
"574 642 OFFCURVE",
"452 696 OFFCURVE",
"320 696 CURVE SMOOTH",
"173 696 OFFCURVE",
"62 631 OFFCURVE",
"62 356 CURVE SMOOTH",
"62 330 LINE SMOOTH",
"62 55 OFFCURVE",
"173 -10 OFFCURVE",
"320 -10 CURVE SMOOTH",
"452 -10 OFFCURVE",
"574 48 OFFCURVE",
"574 251 CURVE"
);
},
{
closed = 1;
nodes = (
"221 -184 LINE",
"245 -193 OFFCURVE",
"274 -197 OFFCURVE",
"299 -197 CURVE SMOOTH",
"345 -197 OFFCURVE",
"417 -179 OFFCURVE",
"417 -106 CURVE SMOOTH",
"417 -37 OFFCURVE",
"365 -17 OFFCURVE",
"311 -17 CURVE SMOOTH",
"311 -17 OFFCURVE",
"294 -17 OFFCURVE",
"286 -17 CURVE",
"286 -51 LINE",
"308 -51 LINE SMOOTH",
"335 -51 OFFCURVE",
"366 -66 OFFCURVE",
"366 -97 CURVE SMOOTH",
"366 -140 OFFCURVE",
"327 -151 OFFCURVE",
"290 -151 CURVE SMOOTH",
"257 -151 OFFCURVE",
"234 -145 OFFCURVE",
"221 -138 CURVE"
);
}
);
width = 663;
}
);
unicode = 00C7;
},
{
glyphname = D;
lastChange = "2014-09-05 19:07:01 +0000";
layers = (
{
anchors = (
{
name = center;
position = "{338, 343}";
},
{
name = top;
position = "{288, 686}";
}
);
background = {
anchors = (
{
name = top;
position = "{338, 686}";
},
{
name = center;
position = "{338, 343}";
}
);
paths = (
{
closed = 1;
nodes = (
"146 48 LINE",
"146 638 LINE",
"312 638 LINE SMOOTH",
"429 638 OFFCURVE",
"524 577 OFFCURVE",
"524 365 CURVE SMOOTH",
"524 322 LINE SMOOTH",
"524 104 OFFCURVE",
"429 48 OFFCURVE",
"312 48 CURVE SMOOTH"
);
},
{
closed = 1;
nodes = (
"312 0 LINE SMOOTH",
"459 0 OFFCURVE",
"578 74 OFFCURVE",
"578 331 CURVE SMOOTH",
"578 356 LINE SMOOTH",
"578 615 OFFCURVE",
"459 686 OFFCURVE",
"312 686 CURVE SMOOTH",
"92 686 LINE",
"92 0 LINE"
);
}
);
};
layerId = "D4B4FEC9-7137-4CB7-86D3-564A65A82025";
name = Light;
paths = (
{
closed = 1;
nodes = (
"146 48 LINE",
"146 638 LINE",
"312 638 LINE SMOOTH",
"429 638 OFFCURVE",
"524 577 OFFCURVE",
"524 365 CURVE SMOOTH",
"524 322 LINE SMOOTH",
"524 104 OFFCURVE",
"429 48 OFFCURVE",
"312 48 CURVE SMOOTH"
);
},
{
closed = 1;
nodes = (
"312 0 LINE SMOOTH",
"459 0 OFFCURVE",
"578 74 OFFCURVE",
"578 331 CURVE SMOOTH",
"578 356 LINE SMOOTH",
"578 615 OFFCURVE",
"459 686 OFFCURVE",
"312 686 CURVE SMOOTH",
"92 686 LINE",
"92 0 LINE"
);
}
);
width = 675;
}
);
unicode = 0044;
},
{
glyphname = Eth;
lastChange = "2014-09-05 18:36:13 +0000";
layers = (
{
background = {
paths = (
{
closed = 1;
nodes = (
"5 319 LINE",
"105 319 LINE",
"105 0 LINE",
"325 0 LINE SMOOTH",
"472 0 OFFCURVE",
"591 74 OFFCURVE",
"591 331 CURVE SMOOTH",
"591 356 LINE SMOOTH",
"591 615 OFFCURVE",
"472 686 OFFCURVE",
"325 686 CURVE SMOOTH",
"105 686 LINE",
"105 367 LINE",
"5 367 LINE"
);
},
{
closed = 1;
nodes = (
"159 48 LINE",
"159 319 LINE",
"331 319 LINE",
"331 367 LINE",
"159 367 LINE",
"159 638 LINE",
"325 638 LINE SMOOTH",
"442 638 OFFCURVE",
"537 577 OFFCURVE",
"537 365 CURVE SMOOTH",
"537 322 LINE SMOOTH",
"537 104 OFFCURVE",
"442 48 OFFCURVE",
"325 48 CURVE SMOOTH"
);
}
);
};
layerId = "D4B4FEC9-7137-4CB7-86D3-564A65A82025";
name = Light;
paths = (
{
closed = 1;
nodes = (
"5 319 LINE",
"105 319 LINE",
"105 0 LINE",
"325 0 LINE SMOOTH",
"472 0 OFFCURVE",
"591 74 OFFCURVE",
"591 331 CURVE SMOOTH",
"591 356 LINE SMOOTH",
"591 615 OFFCURVE",
"472 686 OFFCURVE",
"325 686 CURVE SMOOTH",
"105 686 LINE",
"105 367 LINE",
"5 367 LINE"
);
},
{
closed = 1;
nodes = (
"159 48 LINE",
"159 319 LINE",
"331 319 LINE",
"331 367 LINE",
"159 367 LINE",
"159 638 LINE",
"325 638 LINE SMOOTH",
"442 638 OFFCURVE",
"537 577 OFFCURVE",
"537 365 CURVE SMOOTH",
"537 322 LINE SMOOTH",
"537 104 OFFCURVE",
"442 48 OFFCURVE",
"325 48 CURVE SMOOTH"
);
}
);
width = 681;
}
);
unicode = 00D0;
},
{
glyphname = E;
lastChange = "2014-09-05 19:07:06 +0000";
layers = (
{
anchors = (
{
name = bottom;
position = "{297, 0}";
},
{
name = ogonek;
position = "{514, 10}";
},
{
name = top;
position = "{297, 686}";
}
);
background = {
anchors = (
{
name = top;
position = "{297, 686}";
},
{
name = bottom;
position = "{297, 0}";
},
{
name = ogonek;
position = "{534, 10}";
}
);
paths = (
{
closed = 1;
nodes = (
"526 0 LINE",
"515 48 LINE",
"146 48 LINE",
"146 326 LINE",
"465 326 LINE",
"465 374 LINE",
"146 374 LINE",
"146 638 LINE",
"506 638 LINE",
"516 686 LINE",
"92 686 LINE",
"92 0 LINE"
);
}
);
};
layerId = "D4B4FEC9-7137-4CB7-86D3-564A65A82025";
name = Light;
paths = (
{
closed = 1;
nodes = (
"526 0 LINE",
"515 48 LINE",
"146 48 LINE",
"146 326 LINE",
"465 326 LINE",
"465 374 LINE",
"146 374 LINE",
"146 638 LINE",
"506 638 LINE",
"516 686 LINE",
"92 686 LINE",
"92 0 LINE"
);
}
);
width = 593;
}
);
unicode = 0045;
},
{
glyphname = Eacute;
lastChange = "2014-09-05 18:36:13 +0000";
layers = (
{
background = {
paths = (
{
closed = 1;
nodes = (
"526 0 LINE",
"515 48 LINE",
"146 48 LINE",
"146 326 LINE",
"465 326 LINE",
"465 374 LINE",
"146 374 LINE",
"146 638 LINE",
"506 638 LINE",
"516 686 LINE",
"92 686 LINE",
"92 0 LINE"
);
},
{
closed = 1;
nodes = (
"333 750 LINE",
"444 892 LINE",
"444 895 LINE",
"379 895 LINE",
"283 750 LINE"
);
}
);
};
layerId = "D4B4FEC9-7137-4CB7-86D3-564A65A82025";
name = Light;
paths = (
{
closed = 1;
nodes = (
"526 0 LINE",
"515 48 LINE",
"146 48 LINE",
"146 326 LINE",
"465 326 LINE",
"465 374 LINE",
"146 374 LINE",
"146 638 LINE",
"506 638 LINE",
"516 686 LINE",
"92 686 LINE",
"92 0 LINE"
);
},
{
closed = 1;
nodes = (
"333 750 LINE",
"444 892 LINE",
"444 895 LINE",
"379 895 LINE",
"283 750 LINE"
);
}
);
width = 593;
}
);
unicode = 00C9;
},
{
glyphname = Ecircumflex;
lastChange = "2014-09-05 18:36:13 +0000";
layers = (
{
background = {
paths = (
{
closed = 1;
nodes = (
"526 0 LINE",
"515 48 LINE",
"146 48 LINE",
"146 326 LINE",
"465 326 LINE",
"465 374 LINE",
"146 374 LINE",
"146 638 LINE",
"506 638 LINE",
"516 686 LINE",
"92 686 LINE",
"92 0 LINE"
);
},
{
closed = 1;
nodes = (
"144 750 LINE",
"204 750 LINE",
"307 847 LINE",
"410 750 LINE",
"470 750 LINE",
"336 895 LINE",
"278 895 LINE"
);
}
);
};
layerId = "D4B4FEC9-7137-4CB7-86D3-564A65A82025";
name = Light;
paths = (
{
closed = 1;
nodes = (
"526 0 LINE",
"515 48 LINE",
"146 48 LINE",
"146 326 LINE",
"465 326 LINE",
"465 374 LINE",
"146 374 LINE",
"146 638 LINE",
"506 638 LINE",
"516 686 LINE",
"92 686 LINE",
"92 0 LINE"
);
},
{
closed = 1;
nodes = (
"144 750 LINE",
"204 750 LINE",
"307 847 LINE",
"410 750 LINE",
"470 750 LINE",
"336 895 LINE",
"278 895 LINE"
);
}
);
width = 593;
}
);
unicode = 00CA;
},
{
glyphname = Edieresis;
lastChange = "2014-09-05 18:36:13 +0000";
layers = (
{
background = {
paths = (
{
closed = 1;
nodes = (
"526 0 LINE",
"515 48 LINE",
"146 48 LINE",
"146 326 LINE",
"465 326 LINE",
"465 374 LINE",
"146 374 LINE",
"146 638 LINE",
"506 638 LINE",
"516 686 LINE",
"92 686 LINE",
"92 0 LINE"
);
},
{
closed = 1;
nodes = (
"182 750 LINE",
"247 750 LINE",
"247 819 LINE",
"182 819 LINE"
);
},
{
closed = 1;
nodes = (
"358 750 LINE",
"423 750 LINE",
"423 819 LINE",
"358 819 LINE"
);
}
);
};
layerId = "D4B4FEC9-7137-4CB7-86D3-564A65A82025";
name = Light;
paths = (
{
closed = 1;
nodes = (
"526 0 LINE",
"515 48 LINE",
"146 48 LINE",
"146 326 LINE",
"465 326 LINE",
"465 374 LINE",
"146 374 LINE",
"146 638 LINE",
"506 638 LINE",
"516 686 LINE",
"92 686 LINE",
"92 0 LINE"
);
},
{
closed = 1;
nodes = (
"182 750 LINE",
"247 750 LINE",
"247 819 LINE",
"182 819 LINE"
);
},
{
closed = 1;
nodes = (
"358 750 LINE",
"423 750 LINE",
"423 819 LINE",
"358 819 LINE"
);
}
);
width = 593;
}
);
unicode = 00CB;
},
{
glyphname = Egrave;
lastChange = "2014-09-05 18:36:13 +0000";
layers = (
{
background = {
paths = (
{
closed = 1;
nodes = (
"526 0 LINE",
"515 48 LINE",
"146 48 LINE",
"146 326 LINE",
"465 326 LINE",
"465 374 LINE",
"146 374 LINE",
"146 638 LINE",
"506 638 LINE",
"516 686 LINE",
"92 686 LINE",
"92 0 LINE"
);
},
{
closed = 1;
nodes = (
"345 750 LINE",
"249 895 LINE",
"184 895 LINE",
"184 892 LINE",
"295 750 LINE"
);
}
);
};
layerId = "D4B4FEC9-7137-4CB7-86D3-564A65A82025";
name = Light;
paths = (
{
closed = 1;
nodes = (
"526 0 LINE",
"515 48 LINE",
"146 48 LINE",
"146 326 LINE",
"465 326 LINE",
"465 374 LINE",
"146 374 LINE",
"146 638 LINE",
"506 638 LINE",
"516 686 LINE",
"92 686 LINE",
"92 0 LINE"
);
},
{
closed = 1;
nodes = (
"345 750 LINE",
"249 895 LINE",
"184 895 LINE",
"184 892 LINE",
"295 750 LINE"
);
}
);
width = 593;
}
);
unicode = 00C8;
},
{
glyphname = F;
lastChange = "2014-09-05 18:36:13 +0000";
layers = (
{
background = {
paths = (
{
closed = 1;
nodes = (
"498 686 LINE",
"92 686 LINE",
"92 0 LINE",
"146 0 LINE",
"146 326 LINE",
"439 326 LINE",
"439 374 LINE",
"146 374 LINE",
"146 638 LINE",
"489 638 LINE"
);
}
);
};
layerId = "D4B4FEC9-7137-4CB7-86D3-564A65A82025";
name = Light;
paths = (
{
closed = 1;
nodes = (
"498 686 LINE",
"92 686 LINE",
"92 0 LINE",
"146 0 LINE",
"146 326 LINE",
"439 326 LINE",
"439 374 LINE",
"146 374 LINE",
"146 638 LINE",
"489 638 LINE"
);
}
);
width = 550;
}
);
unicode = 0046;
},
{
glyphname = G;
lastChange = "2014-09-05 18:36:13 +0000";
layers = (
{
anchors = (
{
name = bottom;
position = "{339, 0}";
},
{
name = top;
position = "{339, 686}";
}
);
background = {
anchors = (
{
name = top;
position = "{339, 686}";
},
{
name = bottom;
position = "{339, 0}";
}
);
paths = (
{
closed = 1;
nodes = (
"524 251 LINE SMOOTH",
"524 79 OFFCURVE",
"425 38 OFFCURVE",
"320 38 CURVE SMOOTH",
"203 38 OFFCURVE",
"116 91 OFFCURVE",
"116 318 CURVE SMOOTH",
"116 368 LINE SMOOTH",
"116 595 OFFCURVE",
"203 648 OFFCURVE",
"320 648 CURVE SMOOTH",
"422 648 OFFCURVE",
"521 608 OFFCURVE",
"521 449 CURVE",
"574 449 LINE",
"574 645 OFFCURVE",
"449 696 OFFCURVE",
"320 696 CURVE SMOOTH",
"173 696 OFFCURVE",
"62 631 OFFCURVE",
"62 356 CURVE SMOOTH",
"62 330 LINE SMOOTH",
"62 55 OFFCURVE",
"173 -10 OFFCURVE",
"320 -10 CURVE SMOOTH",
"405 -10 OFFCURVE",
"485 18 OFFCURVE",
"527 92 CURVE",
"535 30 OFFCURVE",
"543 0 OFFCURVE",
"543 0 CURVE",
"580 0 LINE",
"580 0 OFFCURVE",
"574 48 OFFCURVE",
"574 119 CURVE SMOOTH",
"574 350 LINE",
"292 350 LINE",
"292 303 LINE",
"524 303 LINE"
);
}
);
};
layerId = "D4B4FEC9-7137-4CB7-86D3-564A65A82025";
name = Light;
paths = (
{
closed = 1;
nodes = (
"524 251 LINE SMOOTH",
"524 79 OFFCURVE",
"425 38 OFFCURVE",
"320 38 CURVE SMOOTH",
"203 38 OFFCURVE",
"116 91 OFFCURVE",
"116 318 CURVE SMOOTH",
"116 368 LINE SMOOTH",
"116 595 OFFCURVE",
"203 648 OFFCURVE",
"320 648 CURVE SMOOTH",
"422 648 OFFCURVE",
"521 608 OFFCURVE",
"521 449 CURVE",
"574 449 LINE",
"574 645 OFFCURVE",
"449 696 OFFCURVE",
"320 696 CURVE SMOOTH",
"173 696 OFFCURVE",
"62 631 OFFCURVE",
"62 356 CURVE SMOOTH",
"62 330 LINE SMOOTH",
"62 55 OFFCURVE",
"173 -10 OFFCURVE",
"320 -10 CURVE SMOOTH",
"405 -10 OFFCURVE",
"485 18 OFFCURVE",
"527 92 CURVE",
"535 30 OFFCURVE",
"543 0 OFFCURVE",
"543 0 CURVE",
"580 0 LINE",
"580 0 OFFCURVE",
"574 48 OFFCURVE",
"574 119 CURVE SMOOTH",
"574 350 LINE",
"292 350 LINE",
"292 303 LINE",
"524 303 LINE"
);
}
);
width = 677;
}
);
unicode = 0047;
},
{
glyphname = H;
lastChange = "2014-09-05 19:07:16 +0000";
layers = (
{
anchors = (
{
name = center;
position = "{332, 343}";
},
{
name = top;
position = "{332, 686}";
}
);
background = {
anchors = (
{
name = top;
position = "{347, 686}";
},
{
name = center;
position = "{347, 343}";
}
);
paths = (
{
closed = 1;
nodes = (
"571 0 LINE",
"571 686 LINE",
"517 686 LINE",
"517 374 LINE",
"146 374 LINE",
"146 686 LINE",
"92 686 LINE",
"92 0 LINE",
"146 0 LINE",
"146 326 LINE",
"517 326 LINE",
"517 0 LINE"
);
}
);
};
layerId = "D4B4FEC9-7137-4CB7-86D3-564A65A82025";
name = Light;
paths = (
{
closed = 1;
nodes = (
"571 0 LINE",
"571 686 LINE",
"517 686 LINE",
"517 374 LINE",
"146 374 LINE",
"146 686 LINE",
"92 686 LINE",
"92 0 LINE",
"146 0 LINE",
"146 326 LINE",
"517 326 LINE",
"517 0 LINE"
);
}
);
width = 693;
}
);
unicode = 0048;
},
{
glyphname = I;
lastChange = "2014-09-05 19:07:29 +0000";
layers = (
{
anchors = (
{
name = ogonek;
position = "{248, 10}";
},
{
name = top;
position = "{159, 686}";
}
);
background = {
anchors = (
{
name = top;
position = "{182, 686}";
},
{
name = ogonek;
position = "{328, 10}";
}
);
paths = (
{
closed = 1;
nodes = (
"53 637 LINE",
"132 637 LINE",
"132 49 LINE",
"53 49 LINE",
"53 0 LINE",
"265 0 LINE",
"265 49 LINE",
"186 49 LINE",
"186 637 LINE",
"265 637 LINE",
"265 686 LINE",
"53 686 LINE"
);
}
);
};
layerId = "D4B4FEC9-7137-4CB7-86D3-564A65A82025";
name = Light;
paths = (
{
closed = 1;
nodes = (
"53 637 LINE",
"132 637 LINE",
"132 49 LINE",
"53 49 LINE",
"53 0 LINE",
"265 0 LINE",
"265 49 LINE",
"186 49 LINE",
"186 637 LINE",
"265 637 LINE",
"265 686 LINE",
"53 686 LINE"
);
}
);
width = 364;
}
);
unicode = 0049;
},
{
glyphname = Iacute;
lastChange = "2014-09-05 18:36:13 +0000";
layers = (
{
background = {
paths = (
{
closed = 1;
nodes = (
"53 637 LINE",
"132 637 LINE",
"132 49 LINE",
"53 49 LINE",
"53 0 LINE",
"265 0 LINE",
"265 49 LINE",
"186 49 LINE",
"186 637 LINE",
"265 637 LINE",
"265 686 LINE",
"53 686 LINE"
);
},
{
closed = 1;
nodes = (
"185 750 LINE",
"296 892 LINE",
"296 895 LINE",
"231 895 LINE",
"135 750 LINE"
);
}
);
};
layerId = "D4B4FEC9-7137-4CB7-86D3-564A65A82025";
name = Light;
paths = (
{
closed = 1;
nodes = (
"53 637 LINE",
"132 637 LINE",
"132 49 LINE",
"53 49 LINE",
"53 0 LINE",
"265 0 LINE",
"265 49 LINE",
"186 49 LINE",
"186 637 LINE",
"265 637 LINE",
"265 686 LINE",
"53 686 LINE"
);
},
{
closed = 1;
nodes = (
"185 750 LINE",
"296 892 LINE",
"296 895 LINE",
"231 895 LINE",
"135 750 LINE"
);
}
);
width = 364;
}
);
unicode = 00CD;
},
{
glyphname = Icircumflex;
lastChange = "2014-09-05 18:36:13 +0000";
layers = (
{
background = {
paths = (
{
closed = 1;
nodes = (
"30 637 LINE",
"109 637 LINE",
"109 49 LINE",
"30 49 LINE",
"30 0 LINE",
"242 0 LINE",
"242 49 LINE",
"163 49 LINE",
"163 637 LINE",
"242 637 LINE",
"242 686 LINE",
"30 686 LINE"
);
},
{
closed = 1;
nodes = (
"-27 750 LINE",
"33 750 LINE",
"136 847 LINE",
"239 750 LINE",
"299 750 LINE",
"165 895 LINE",
"107 895 LINE"
);
}
);
};
layerId = "D4B4FEC9-7137-4CB7-86D3-564A65A82025";
name = Light;
paths = (
{
closed = 1;
nodes = (
"30 637 LINE",
"109 637 LINE",
"109 49 LINE",
"30 49 LINE",
"30 0 LINE",
"242 0 LINE",
"242 49 LINE",
"163 49 LINE",
"163 637 LINE",
"242 637 LINE",
"242 686 LINE",
"30 686 LINE"
);
},
{
closed = 1;
nodes = (
"-27 750 LINE",
"33 750 LINE",
"136 847 LINE",
"239 750 LINE",
"299 750 LINE",
"165 895 LINE",
"107 895 LINE"
);
}
);
width = 364;
}
);
unicode = 00CE;
},
{
glyphname = Idieresis;
lastChange = "2014-09-05 18:36:13 +0000";
layers = (
{
background = {
paths = (
{
closed = 1;
nodes = (
"43 637 LINE",
"122 637 LINE",
"122 49 LINE",
"43 49 LINE",
"43 0 LINE",
"255 0 LINE",
"255 49 LINE",
"176 49 LINE",
"176 637 LINE",
"255 637 LINE",
"255 686 LINE",
"43 686 LINE"
);
},
{
closed = 1;
nodes = (
"29 751 LINE",
"94 751 LINE",
"94 820 LINE",
"29 820 LINE"
);
},
{
closed = 1;
nodes = (
"205 751 LINE",
"270 751 LINE",
"270 820 LINE",
"205 820 LINE"
);
}
);
};
layerId = "D4B4FEC9-7137-4CB7-86D3-564A65A82025";
name = Light;
paths = (
{
closed = 1;
nodes = (
"43 637 LINE",
"122 637 LINE",
"122 49 LINE",
"43 49 LINE",
"43 0 LINE",
"255 0 LINE",
"255 49 LINE",
"176 49 LINE",
"176 637 LINE",
"255 637 LINE",
"255 686 LINE",
"43 686 LINE"
);
},
{
closed = 1;
nodes = (
"29 751 LINE",
"94 751 LINE",
"94 820 LINE",
"29 820 LINE"
);
},
{
closed = 1;
nodes = (
"205 751 LINE",
"270 751 LINE",
"270 820 LINE",
"205 820 LINE"
);
}
);
width = 364;
}
);
unicode = 00CF;
},
{
glyphname = Igrave;
lastChange = "2014-09-05 18:36:13 +0000";
layers = (
{
background = {
paths = (
{
closed = 1;
nodes = (
"32 637 LINE",
"111 637 LINE",
"111 49 LINE",
"32 49 LINE",
"32 0 LINE",
"244 0 LINE",
"244 49 LINE",
"165 49 LINE",
"165 637 LINE",
"244 637 LINE",
"244 686 LINE",
"32 686 LINE"
);
},
{
closed = 1;
nodes = (
"171 750 LINE",
"75 895 LINE",
"10 895 LINE",
"10 892 LINE",
"121 750 LINE"
);
}
);
};
layerId = "D4B4FEC9-7137-4CB7-86D3-564A65A82025";
name = Light;
paths = (
{
closed = 1;
nodes = (
"32 637 LINE",
"111 637 LINE",
"111 49 LINE",
"32 49 LINE",
"32 0 LINE",
"244 0 LINE",
"244 49 LINE",
"165 49 LINE",
"165 637 LINE",
"244 637 LINE",
"244 686 LINE",
"32 686 LINE"
);
},
{
closed = 1;
nodes = (
"171 750 LINE",
"75 895 LINE",
"10 895 LINE",
"10 892 LINE",
"121 750 LINE"
);
}
);
width = 364;
}
);
unicode = 00CC;
},
{
glyphname = J;
lastChange = "2014-09-05 19:07:34 +0000";
layers = (
{
anchors = (
{
name = top;
position = "{373, 686}";
}
);
background = {
anchors = (
{
name = top;
position = "{263, 686}";
}
);
paths = (
{
closed = 1;
nodes = (
"29 166 LINE SMOOTH",
"29 50 OFFCURVE",
"111 -10 OFFCURVE",
"218 -10 CURVE SMOOTH",
"325 -10 OFFCURVE",
"411 50 OFFCURVE",
"411 166 CURVE SMOOTH",
"411 686 LINE",
"357 686 LINE",
"357 172 LINE SMOOTH",
"357 78 OFFCURVE",
"295 38 OFFCURVE",
"218 38 CURVE SMOOTH",
"141 38 OFFCURVE",
"79 77 OFFCURVE",
"79 172 CURVE SMOOTH",
"79 185 LINE",
"29 185 LINE"
);
}
);
};
layerId = "D4B4FEC9-7137-4CB7-86D3-564A65A82025";
name = Light;
paths = (
{
closed = 1;
nodes = (
"29 166 LINE SMOOTH",
"29 50 OFFCURVE",
"111 -10 OFFCURVE",
"218 -10 CURVE SMOOTH",
"325 -10 OFFCURVE",
"411 50 OFFCURVE",
"411 166 CURVE SMOOTH",
"411 686 LINE",
"357 686 LINE",
"357 172 LINE SMOOTH",
"357 78 OFFCURVE",
"295 38 OFFCURVE",
"218 38 CURVE SMOOTH",
"141 38 OFFCURVE",
"79 77 OFFCURVE",
"79 172 CURVE SMOOTH",
"79 185 LINE",
"29 185 LINE"
);
}
);
width = 526;
}
);
unicode = 004A;
},
{
glyphname = K;
lastChange = "2014-09-05 18:36:13 +0000";
layers = (
{
anchors = (
{
name = bottom;
position = "{312, 0}";
},
{
name = top;
position = "{312, 686}";
}
);
background = {
anchors = (
{
name = top;
position = "{312, 686}";
},
{
name = bottom;
position = "{312, 0}";
}
);
paths = (
{
closed = 1;
nodes = (
"92 0 LINE",
"146 0 LINE",
"146 208 LINE",
"269 346 LINE",
"513 0 LINE",
"581 0 LINE",
"306 387 LINE",
"573 686 LINE",
"509 686 LINE",
"146 279 LINE",
"146 686 LINE",
"92 686 LINE"
);
}
);
};
layerId = "D4B4FEC9-7137-4CB7-86D3-564A65A82025";
name = Light;
paths = (
{
closed = 1;
nodes = (
"92 0 LINE",
"146 0 LINE",
"146 208 LINE",
"269 346 LINE",
"513 0 LINE",
"581 0 LINE",
"306 387 LINE",
"573 686 LINE",
"509 686 LINE",
"146 279 LINE",
"146 686 LINE",
"92 686 LINE"
);
}
);
width = 623;
}
);
unicode = 004B;
},
{
glyphname = L;
lastChange = "2014-09-05 19:07:37 +0000";
layers = (
{
anchors = (
{
name = bottom;
position = "{268, 0}";
},
{
name = top;
position = "{119, 686}";
},
{
name = topright;
position = "{516, 686}";
}
);
background = {
anchors = (
{
name = top;
position = "{268, 686}";
},
{
name = bottom;
position = "{268, 0}";
},
{
name = topright;
position = "{516, 686}";
}
);
paths = (
{
closed = 1;
nodes = (
"498 0 LINE",
"486 48 LINE",
"146 48 LINE",
"146 686 LINE",
"92 686 LINE",
"92 0 LINE"
);
}
);
};
layerId = "D4B4FEC9-7137-4CB7-86D3-564A65A82025";
name = Light;
paths = (
{
closed = 1;
nodes = (
"498 0 LINE",
"486 48 LINE",
"146 48 LINE",
"146 686 LINE",
"92 686 LINE",
"92 0 LINE"
);
}
);
width = 536;
}
);
unicode = 004C;
},
{
glyphname = Lslash;
lastChange = "2014-09-05 18:36:13 +0000";
layers = (
{
background = {
paths = (
{
closed = 1;
nodes = (
"313 479 LINE",
"161 402 LINE",
"161 686 LINE",
"107 686 LINE",
"107 375 LINE",
"33 338 LINE",
"33 294 LINE",
"107 331 LINE",
"107 0 LINE",
"513 0 LINE",
"501 48 LINE",
"161 48 LINE",
"161 358 LINE",
"313 435 LINE"
);
}
);
};
layerId = "D4B4FEC9-7137-4CB7-86D3-564A65A82025";
name = Light;
paths = (
{
closed = 1;
nodes = (
"313 479 LINE",
"161 402 LINE",
"161 686 LINE",
"107 686 LINE",
"107 375 LINE",
"33 338 LINE",
"33 294 LINE",
"107 331 LINE",
"107 0 LINE",
"513 0 LINE",
"501 48 LINE",
"161 48 LINE",
"161 358 LINE",
"313 435 LINE"
);
}
);
width = 539;
}
);
unicode = 0141;
},
{
glyphname = M;
lastChange = "2014-09-05 18:36:13 +0000";
layers = (
{
background = {
paths = (
{
closed = 1;
nodes = (
"803 0 LINE",
"803 686 LINE",
"718 686 LINE",
"447 69 LINE",
"446 69 LINE",
"178 686 LINE",
"92 686 LINE",
"92 0 LINE",
"140 0 LINE",
"140 625 LINE",
"145 625 LINE",
"418 0 LINE",
"469 0 LINE",
"744 625 LINE",
"749 625 LINE",
"749 0 LINE"
);
}
);
};
layerId = "D4B4FEC9-7137-4CB7-86D3-564A65A82025";
name = Light;
paths = (
{
closed = 1;
nodes = (
"803 0 LINE",
"803 686 LINE",
"718 686 LINE",
"447 69 LINE",
"446 69 LINE",
"178 686 LINE",
"92 686 LINE",
"92 0 LINE",
"140 0 LINE",
"140 625 LINE",
"145 625 LINE",
"418 0 LINE",
"469 0 LINE",
"744 625 LINE",
"749 625 LINE",
"749 0 LINE"
);
}
);
width = 938;
}
);
unicode = 004D;
},
{
glyphname = N;
lastChange = "2014-09-05 18:36:13 +0000";
layers = (
{
anchors = (
{
name = bottom;
position = "{347, 0}";
},
{
name = top;
position = "{347, 686}";
}
);
background = {
anchors = (
{
name = top;
position = "{347, 686}";
},
{
name = bottom;
position = "{347, 0}";
}
);
paths = (
{
closed = 1;
nodes = (
"571 0 LINE",
"571 686 LINE",
"523 686 LINE",
"523 103 LINE",
"520 103 LINE",
"138 686 LINE",
"92 686 LINE",
"92 0 LINE",
"140 0 LINE",
"140 583 LINE",
"143 583 LINE",
"523 0 LINE"
);
}
);
};
layerId = "D4B4FEC9-7137-4CB7-86D3-564A65A82025";
name = Light;
paths = (
{
closed = 1;
nodes = (
"571 0 LINE",
"571 686 LINE",
"523 686 LINE",
"523 103 LINE",
"520 103 LINE",
"138 686 LINE",
"92 686 LINE",
"92 0 LINE",
"140 0 LINE",
"140 583 LINE",
"143 583 LINE",
"523 0 LINE"
);
}
);
width = 694;
}
);
unicode = 004E;
},
{
glyphname = Ntilde;
lastChange = "2014-09-05 18:36:13 +0000";
layers = (
{
background = {
paths = (
{
closed = 1;
nodes = (
"571 0 LINE",
"571 686 LINE",
"523 686 LINE",
"523 103 LINE",
"520 103 LINE",
"138 686 LINE",
"92 686 LINE",
"92 0 LINE",
"140 0 LINE",
"140 583 LINE",
"143 583 LINE",
"523 0 LINE"
);
},
{
closed = 1;
nodes = (
"484 832 LINE",
"477 809 OFFCURVE",
"460 800 OFFCURVE",
"427 800 CURVE SMOOTH",
"373 800 OFFCURVE",
"324 832 OFFCURVE",
"260 832 CURVE SMOOTH",
"182 832 OFFCURVE",
"159 782 OFFCURVE",
"159 750 CURVE",
"196 750 LINE",
"203 773 OFFCURVE",
"220 782 OFFCURVE",
"253 782 CURVE SMOOTH",
"307 782 OFFCURVE",
"356 750 OFFCURVE",
"420 750 CURVE SMOOTH",
"499 750 OFFCURVE",
"521 800 OFFCURVE",
"521 832 CURVE"
);
}
);
};
layerId = "D4B4FEC9-7137-4CB7-86D3-564A65A82025";
name = Light;
paths = (
{
closed = 1;
nodes = (
"571 0 LINE",
"571 686 LINE",
"523 686 LINE",
"523 103 LINE",
"520 103 LINE",
"138 686 LINE",
"92 686 LINE",
"92 0 LINE",
"140 0 LINE",
"140 583 LINE",
"143 583 LINE",
"523 0 LINE"
);
},
{
closed = 1;
nodes = (
"484 832 LINE",
"477 809 OFFCURVE",
"460 800 OFFCURVE",
"427 800 CURVE SMOOTH",
"373 800 OFFCURVE",
"324 832 OFFCURVE",
"260 832 CURVE SMOOTH",
"182 832 OFFCURVE",
"159 782 OFFCURVE",
"159 750 CURVE",
"196 750 LINE",
"203 773 OFFCURVE",
"220 782 OFFCURVE",
"253 782 CURVE SMOOTH",
"307 782 OFFCURVE",
"356 750 OFFCURVE",
"420 750 CURVE SMOOTH",
"499 750 OFFCURVE",
"521 800 OFFCURVE",
"521 832 CURVE"
);
}
);
width = 694;
}
);
unicode = 00D1;
},
{
glyphname = O;
lastChange = "2014-09-05 19:07:45 +0000";
layers = (
{
anchors = (
{
name = top;
position = "{325, 686}";
}
);
background = {
anchors = (
{
name = top;
position = "{345, 686}";
}
);
paths = (
{
closed = 1;
nodes = (
"474 -10 OFFCURVE",
"593 55 OFFCURVE",
"593 330 CURVE SMOOTH",
"593 356 LINE SMOOTH",
"593 631 OFFCURVE",
"474 696 OFFCURVE",
"327 696 CURVE SMOOTH",
"180 696 OFFCURVE",
"61 631 OFFCURVE",
"61 356 CURVE SMOOTH",
"61 330 LINE SMOOTH",
"61 55 OFFCURVE",
"180 -10 OFFCURVE",
"327 -10 CURVE SMOOTH"
);
},
{
closed = 1;
nodes = (
"210 38 OFFCURVE",
"115 91 OFFCURVE",
"115 318 CURVE SMOOTH",
"115 368 LINE SMOOTH",
"115 595 OFFCURVE",
"210 648 OFFCURVE",
"327 648 CURVE SMOOTH",
"444 648 OFFCURVE",
"539 595 OFFCURVE",
"539 368 CURVE SMOOTH",
"539 318 LINE SMOOTH",
"539 91 OFFCURVE",
"444 38 OFFCURVE",
"327 38 CURVE SMOOTH"
);
}
);
};
layerId = "D4B4FEC9-7137-4CB7-86D3-564A65A82025";
name = Light;
paths = (
{
closed = 1;
nodes = (
"474 -10 OFFCURVE",
"593 55 OFFCURVE",
"593 330 CURVE SMOOTH",
"593 356 LINE SMOOTH",
"593 631 OFFCURVE",
"474 696 OFFCURVE",
"327 696 CURVE SMOOTH",
"180 696 OFFCURVE",
"61 631 OFFCURVE",
"61 356 CURVE SMOOTH",
"61 330 LINE SMOOTH",
"61 55 OFFCURVE",
"180 -10 OFFCURVE",
"327 -10 CURVE SMOOTH"
);
},
{
closed = 1;
nodes = (
"210 38 OFFCURVE",
"115 91 OFFCURVE",
"115 318 CURVE SMOOTH",
"115 368 LINE SMOOTH",
"115 595 OFFCURVE",
"210 648 OFFCURVE",
"327 648 CURVE SMOOTH",
"444 648 OFFCURVE",
"539 595 OFFCURVE",
"539 368 CURVE SMOOTH",
"539 318 LINE SMOOTH",
"539 91 OFFCURVE",
"444 38 OFFCURVE",
"327 38 CURVE SMOOTH"
);
}
);
width = 690;
}
);
unicode = 004F;
},
{
glyphname = Oacute;
lastChange = "2014-09-05 18:36:13 +0000";
layers = (
{
background = {
paths = (
{
closed = 1;
nodes = (
"474 -10 OFFCURVE",
"593 55 OFFCURVE",
"593 330 CURVE SMOOTH",
"593 356 LINE SMOOTH",
"593 631 OFFCURVE",
"474 696 OFFCURVE",
"327 696 CURVE SMOOTH",
"180 696 OFFCURVE",
"61 631 OFFCURVE",
"61 356 CURVE SMOOTH",
"61 330 LINE SMOOTH",
"61 55 OFFCURVE",
"180 -10 OFFCURVE",
"327 -10 CURVE SMOOTH"
);
},
{
closed = 1;
nodes = (
"210 38 OFFCURVE",
"115 91 OFFCURVE",
"115 318 CURVE SMOOTH",
"115 368 LINE SMOOTH",
"115 595 OFFCURVE",
"210 648 OFFCURVE",
"327 648 CURVE SMOOTH",
"444 648 OFFCURVE",
"539 595 OFFCURVE",
"539 368 CURVE SMOOTH",
"539 318 LINE SMOOTH",
"539 91 OFFCURVE",
"444 38 OFFCURVE",
"327 38 CURVE SMOOTH"
);
},
{
closed = 1;
nodes = (
"355 750 LINE",
"466 892 LINE",
"466 895 LINE",
"401 895 LINE",
"305 750 LINE"
);
}
);
};
layerId = "D4B4FEC9-7137-4CB7-86D3-564A65A82025";
name = Light;
paths = (
{
closed = 1;
nodes = (
"474 -10 OFFCURVE",
"593 55 OFFCURVE",
"593 330 CURVE SMOOTH",
"593 356 LINE SMOOTH",
"593 631 OFFCURVE",
"474 696 OFFCURVE",
"327 696 CURVE SMOOTH",
"180 696 OFFCURVE",
"61 631 OFFCURVE",
"61 356 CURVE SMOOTH",
"61 330 LINE SMOOTH",
"61 55 OFFCURVE",
"180 -10 OFFCURVE",
"327 -10 CURVE SMOOTH"
);
},
{
closed = 1;
nodes = (
"210 38 OFFCURVE",
"115 91 OFFCURVE",
"115 318 CURVE SMOOTH",
"115 368 LINE SMOOTH",
"115 595 OFFCURVE",
"210 648 OFFCURVE",
"327 648 CURVE SMOOTH",
"444 648 OFFCURVE",
"539 595 OFFCURVE",
"539 368 CURVE SMOOTH",
"539 318 LINE SMOOTH",
"539 91 OFFCURVE",
"444 38 OFFCURVE",
"327 38 CURVE SMOOTH"
);
},
{
closed = 1;
nodes = (
"355 750 LINE",
"466 892 LINE",
"466 895 LINE",
"401 895 LINE",
"305 750 LINE"
);
}
);
width = 690;
}
);
unicode = 00D3;
},
{
glyphname = Ocircumflex;
lastChange = "2014-09-05 18:36:13 +0000";
layers = (
{
background = {
paths = (
{
closed = 1;
nodes = (
"474 -10 OFFCURVE",
"593 55 OFFCURVE",
"593 330 CURVE SMOOTH",
"593 356 LINE SMOOTH",
"593 631 OFFCURVE",
"474 696 OFFCURVE",
"327 696 CURVE SMOOTH",
"180 696 OFFCURVE",
"61 631 OFFCURVE",
"61 356 CURVE SMOOTH",
"61 330 LINE SMOOTH",
"61 55 OFFCURVE",
"180 -10 OFFCURVE",
"327 -10 CURVE SMOOTH"
);
},
{
closed = 1;
nodes = (
"210 38 OFFCURVE",
"115 91 OFFCURVE",
"115 318 CURVE SMOOTH",
"115 368 LINE SMOOTH",
"115 595 OFFCURVE",
"210 648 OFFCURVE",
"327 648 CURVE SMOOTH",
"444 648 OFFCURVE",
"539 595 OFFCURVE",
"539 368 CURVE SMOOTH",
"539 318 LINE SMOOTH",
"539 91 OFFCURVE",
"444 38 OFFCURVE",
"327 38 CURVE SMOOTH"
);
},
{
closed = 1;
nodes = (
"169 750 LINE",
"229 750 LINE",
"332 847 LINE",
"435 750 LINE",
"495 750 LINE",
"361 895 LINE",
"303 895 LINE"
);
}
);
};
layerId = "D4B4FEC9-7137-4CB7-86D3-564A65A82025";
name = Light;
paths = (
{
closed = 1;
nodes = (
"474 -10 OFFCURVE",
"593 55 OFFCURVE",
"593 330 CURVE SMOOTH",
"593 356 LINE SMOOTH",
"593 631 OFFCURVE",
"474 696 OFFCURVE",
"327 696 CURVE SMOOTH",
"180 696 OFFCURVE",
"61 631 OFFCURVE",
"61 356 CURVE SMOOTH",
"61 330 LINE SMOOTH",
"61 55 OFFCURVE",
"180 -10 OFFCURVE",
"327 -10 CURVE SMOOTH"
);
},
{
closed = 1;
nodes = (
"210 38 OFFCURVE",
"115 91 OFFCURVE",
"115 318 CURVE SMOOTH",
"115 368 LINE SMOOTH",
"115 595 OFFCURVE",
"210 648 OFFCURVE",
"327 648 CURVE SMOOTH",
"444 648 OFFCURVE",
"539 595 OFFCURVE",
"539 368 CURVE SMOOTH",
"539 318 LINE SMOOTH",
"539 91 OFFCURVE",
"444 38 OFFCURVE",
"327 38 CURVE SMOOTH"
);
},
{
closed = 1;
nodes = (
"169 750 LINE",
"229 750 LINE",
"332 847 LINE",
"435 750 LINE",
"495 750 LINE",
"361 895 LINE",
"303 895 LINE"
);
}
);
width = 690;
}
);
unicode = 00D4;
},
{
glyphname = Odieresis;
lastChange = "2014-09-05 18:36:13 +0000";
layers = (
{
background = {
paths = (
{
closed = 1;
nodes = (
"474 -10 OFFCURVE",
"593 55 OFFCURVE",
"593 330 CURVE SMOOTH",
"593 356 LINE SMOOTH",
"593 631 OFFCURVE",
"474 696 OFFCURVE",
"327 696 CURVE SMOOTH",
"180 696 OFFCURVE",
"61 631 OFFCURVE",
"61 356 CURVE SMOOTH",
"61 330 LINE SMOOTH",
"61 55 OFFCURVE",
"180 -10 OFFCURVE",
"327 -10 CURVE SMOOTH"
);
},
{
closed = 1;
nodes = (
"210 38 OFFCURVE",
"115 91 OFFCURVE",
"115 318 CURVE SMOOTH",
"115 368 LINE SMOOTH",
"115 595 OFFCURVE",
"210 648 OFFCURVE",
"327 648 CURVE SMOOTH",
"444 648 OFFCURVE",
"539 595 OFFCURVE",
"539 368 CURVE SMOOTH",
"539 318 LINE SMOOTH",
"539 91 OFFCURVE",
"444 38 OFFCURVE",
"327 38 CURVE SMOOTH"
);
},
{
closed = 1;
nodes = (
"207 751 LINE",
"272 751 LINE",
"272 820 LINE",
"207 820 LINE"
);
},
{
closed = 1;
nodes = (
"383 751 LINE",
"448 751 LINE",
"448 820 LINE",
"383 820 LINE"
);
}
);
};
layerId = "D4B4FEC9-7137-4CB7-86D3-564A65A82025";
name = Light;
paths = (
{
closed = 1;
nodes = (
"474 -10 OFFCURVE",
"593 55 OFFCURVE",
"593 330 CURVE SMOOTH",
"593 356 LINE SMOOTH",
"593 631 OFFCURVE",
"474 696 OFFCURVE",
"327 696 CURVE SMOOTH",
"180 696 OFFCURVE",
"61 631 OFFCURVE",
"61 356 CURVE SMOOTH",
"61 330 LINE SMOOTH",
"61 55 OFFCURVE",
"180 -10 OFFCURVE",
"327 -10 CURVE SMOOTH"
);
},
{
closed = 1;
nodes = (
"210 38 OFFCURVE",
"115 91 OFFCURVE",
"115 318 CURVE SMOOTH",
"115 368 LINE SMOOTH",
"115 595 OFFCURVE",
"210 648 OFFCURVE",
"327 648 CURVE SMOOTH",
"444 648 OFFCURVE",
"539 595 OFFCURVE",
"539 368 CURVE SMOOTH",
"539 318 LINE SMOOTH",
"539 91 OFFCURVE",
"444 38 OFFCURVE",
"327 38 CURVE SMOOTH"
);
},
{
closed = 1;
nodes = (
"207 751 LINE",
"272 751 LINE",
"272 820 LINE",
"207 820 LINE"
);
},
{
closed = 1;
nodes = (
"383 751 LINE",
"448 751 LINE",
"448 820 LINE",
"383 820 LINE"
);
}
);
width = 690;
}
);
unicode = 00D6;
},
{
glyphname = Ograve;
lastChange = "2014-09-05 18:36:13 +0000";
layers = (
{
background = {
paths = (
{
closed = 1;
nodes = (
"474 -10 OFFCURVE",
"593 55 OFFCURVE",
"593 330 CURVE SMOOTH",
"593 356 LINE SMOOTH",
"593 631 OFFCURVE",
"474 696 OFFCURVE",
"327 696 CURVE SMOOTH",
"180 696 OFFCURVE",
"61 631 OFFCURVE",
"61 356 CURVE SMOOTH",
"61 330 LINE SMOOTH",
"61 55 OFFCURVE",
"180 -10 OFFCURVE",
"327 -10 CURVE SMOOTH"
);
},
{
closed = 1;
nodes = (
"210 38 OFFCURVE",
"115 91 OFFCURVE",
"115 318 CURVE SMOOTH",
"115 368 LINE SMOOTH",
"115 595 OFFCURVE",
"210 648 OFFCURVE",
"327 648 CURVE SMOOTH",
"444 648 OFFCURVE",
"539 595 OFFCURVE",
"539 368 CURVE SMOOTH",
"539 318 LINE SMOOTH",
"539 91 OFFCURVE",
"444 38 OFFCURVE",
"327 38 CURVE SMOOTH"
);
},
{
closed = 1;
nodes = (
"359 750 LINE",
"263 895 LINE",
"198 895 LINE",
"198 892 LINE",
"309 750 LINE"
);
}
);
};
layerId = "D4B4FEC9-7137-4CB7-86D3-564A65A82025";
name = Light;
paths = (
{
closed = 1;
nodes = (
"474 -10 OFFCURVE",
"593 55 OFFCURVE",
"593 330 CURVE SMOOTH",
"593 356 LINE SMOOTH",
"593 631 OFFCURVE",
"474 696 OFFCURVE",
"327 696 CURVE SMOOTH",
"180 696 OFFCURVE",
"61 631 OFFCURVE",
"61 356 CURVE SMOOTH",
"61 330 LINE SMOOTH",
"61 55 OFFCURVE",
"180 -10 OFFCURVE",
"327 -10 CURVE SMOOTH"
);
},
{
closed = 1;
nodes = (
"210 38 OFFCURVE",
"115 91 OFFCURVE",
"115 318 CURVE SMOOTH",
"115 368 LINE SMOOTH",
"115 595 OFFCURVE",
"210 648 OFFCURVE",
"327 648 CURVE SMOOTH",
"444 648 OFFCURVE",
"539 595 OFFCURVE",
"539 368 CURVE SMOOTH",
"539 318 LINE SMOOTH",
"539 91 OFFCURVE",
"444 38 OFFCURVE",
"327 38 CURVE SMOOTH"
);
},
{
closed = 1;
nodes = (
"359 750 LINE",
"263 895 LINE",
"198 895 LINE",
"198 892 LINE",
"309 750 LINE"
);
}
);
width = 690;
}
);
unicode = 00D2;
},
{
glyphname = Oslash;
lastChange = "2014-09-05 18:36:13 +0000";
layers = (
{
anchors = (
{
name = top;
position = "{345, 686}";
}
);
background = {
anchors = (
{
name = top;
position = "{345, 686}";
}
);
paths = (
{
closed = 1;
nodes = (
"594 754 LINE",
"550 754 LINE",
"489 652 LINE",
"444 684 OFFCURVE",
"388 696 OFFCURVE",
"327 696 CURVE SMOOTH",
"180 696 OFFCURVE",
"61 631 OFFCURVE",
"61 356 CURVE SMOOTH",
"61 330 LINE SMOOTH",
"61 195 OFFCURVE",
"90 111 OFFCURVE",
"136 60 CURVE",
"61 -65 LINE",
"106 -65 LINE",
"165 34 LINE",
"210 1 OFFCURVE",
"266 -10 OFFCURVE",
"327 -10 CURVE SMOOTH",
"474 -10 OFFCURVE",
"593 55 OFFCURVE",
"593 330 CURVE SMOOTH",
"593 356 LINE SMOOTH",
"593 491 OFFCURVE",
"564 575 OFFCURVE",
"517 626 CURVE"
);
},
{
closed = 1;
nodes = (
"275 38 OFFCURVE",
"228 48 OFFCURVE",
"191 79 CURVE",
"489 578 LINE",
"520 535 OFFCURVE",
"539 469 OFFCURVE",
"539 368 CURVE SMOOTH",
"539 318 LINE SMOOTH",
"539 91 OFFCURVE",
"444 38 OFFCURVE",
"327 38 CURVE SMOOTH"
);
},
{
closed = 1;
nodes = (
"115 368 LINE SMOOTH",
"115 595 OFFCURVE",
"210 648 OFFCURVE",
"327 648 CURVE SMOOTH",
"378 648 OFFCURVE",
"425 638 OFFCURVE",
"462 607 CURVE",
"164 108 LINE",
"133 151 OFFCURVE",
"115 217 OFFCURVE",
"115 318 CURVE SMOOTH"
);
}
);
};
layerId = "D4B4FEC9-7137-4CB7-86D3-564A65A82025";
name = Light;
paths = (
{
closed = 1;
nodes = (
"594 754 LINE",
"550 754 LINE",
"489 652 LINE",
"444 684 OFFCURVE",
"388 696 OFFCURVE",
"327 696 CURVE SMOOTH",
"180 696 OFFCURVE",
"61 631 OFFCURVE",
"61 356 CURVE SMOOTH",
"61 330 LINE SMOOTH",
"61 195 OFFCURVE",
"90 111 OFFCURVE",
"136 60 CURVE",
"61 -65 LINE",
"106 -65 LINE",
"165 34 LINE",
"210 1 OFFCURVE",
"266 -10 OFFCURVE",
"327 -10 CURVE SMOOTH",
"474 -10 OFFCURVE",
"593 55 OFFCURVE",
"593 330 CURVE SMOOTH",
"593 356 LINE SMOOTH",
"593 491 OFFCURVE",
"564 575 OFFCURVE",
"517 626 CURVE"
);
},
{
closed = 1;
nodes = (
"275 38 OFFCURVE",
"228 48 OFFCURVE",
"191 79 CURVE",
"489 578 LINE",
"520 535 OFFCURVE",
"539 469 OFFCURVE",
"539 368 CURVE SMOOTH",
"539 318 LINE SMOOTH",
"539 91 OFFCURVE",
"444 38 OFFCURVE",
"327 38 CURVE SMOOTH"
);
},
{
closed = 1;
nodes = (
"115 368 LINE SMOOTH",
"115 595 OFFCURVE",
"210 648 OFFCURVE",
"327 648 CURVE SMOOTH",
"378 648 OFFCURVE",
"425 638 OFFCURVE",
"462 607 CURVE",
"164 108 LINE",
"133 151 OFFCURVE",
"115 217 OFFCURVE",
"115 318 CURVE SMOOTH"
);
}
);
width = 690;
}
);
unicode = 00D8;
},
{
glyphname = Otilde;
lastChange = "2014-09-05 18:36:13 +0000";
layers = (
{
background = {
paths = (
{
closed = 1;
nodes = (
"474 -10 OFFCURVE",
"593 55 OFFCURVE",
"593 330 CURVE SMOOTH",
"593 356 LINE SMOOTH",
"593 631 OFFCURVE",
"474 696 OFFCURVE",
"327 696 CURVE SMOOTH",
"180 696 OFFCURVE",
"61 631 OFFCURVE",
"61 356 CURVE SMOOTH",
"61 330 LINE SMOOTH",
"61 55 OFFCURVE",
"180 -10 OFFCURVE",
"327 -10 CURVE SMOOTH"
);
},
{
closed = 1;
nodes = (
"210 38 OFFCURVE",
"115 91 OFFCURVE",
"115 318 CURVE SMOOTH",
"115 368 LINE SMOOTH",
"115 595 OFFCURVE",
"210 648 OFFCURVE",
"327 648 CURVE SMOOTH",
"444 648 OFFCURVE",
"539 595 OFFCURVE",
"539 368 CURVE SMOOTH",
"539 318 LINE SMOOTH",
"539 91 OFFCURVE",
"444 38 OFFCURVE",
"327 38 CURVE SMOOTH"
);
},
{
closed = 1;
nodes = (
"477 833 LINE",
"470 810 OFFCURVE",
"453 801 OFFCURVE",
"420 801 CURVE SMOOTH",
"366 801 OFFCURVE",
"317 833 OFFCURVE",
"253 833 CURVE SMOOTH",
"175 833 OFFCURVE",
"152 783 OFFCURVE",
"152 751 CURVE",
"189 751 LINE",
"196 774 OFFCURVE",
"213 783 OFFCURVE",
"246 783 CURVE SMOOTH",
"300 783 OFFCURVE",
"349 751 OFFCURVE",
"413 751 CURVE SMOOTH",
"492 751 OFFCURVE",
"514 801 OFFCURVE",
"514 833 CURVE"
);
}
);
};
layerId = "D4B4FEC9-7137-4CB7-86D3-564A65A82025";
name = Light;
paths = (
{
closed = 1;
nodes = (
"474 -10 OFFCURVE",
"593 55 OFFCURVE",
"593 330 CURVE SMOOTH",
"593 356 LINE SMOOTH",
"593 631 OFFCURVE",
"474 696 OFFCURVE",
"327 696 CURVE SMOOTH",
"180 696 OFFCURVE",
"61 631 OFFCURVE",
"61 356 CURVE SMOOTH",
"61 330 LINE SMOOTH",
"61 55 OFFCURVE",
"180 -10 OFFCURVE",
"327 -10 CURVE SMOOTH"
);
},
{
closed = 1;
nodes = (
"210 38 OFFCURVE",
"115 91 OFFCURVE",
"115 318 CURVE SMOOTH",
"115 368 LINE SMOOTH",
"115 595 OFFCURVE",
"210 648 OFFCURVE",
"327 648 CURVE SMOOTH",
"444 648 OFFCURVE",
"539 595 OFFCURVE",
"539 368 CURVE SMOOTH",
"539 318 LINE SMOOTH",
"539 91 OFFCURVE",
"444 38 OFFCURVE",
"327 38 CURVE SMOOTH"
);
},
{
closed = 1;
nodes = (
"477 833 LINE",
"470 810 OFFCURVE",
"453 801 OFFCURVE",
"420 801 CURVE SMOOTH",
"366 801 OFFCURVE",
"317 833 OFFCURVE",
"253 833 CURVE SMOOTH",
"175 833 OFFCURVE",
"152 783 OFFCURVE",
"152 751 CURVE",
"189 751 LINE",
"196 774 OFFCURVE",
"213 783 OFFCURVE",
"246 783 CURVE SMOOTH",
"300 783 OFFCURVE",
"349 751 OFFCURVE",
"413 751 CURVE SMOOTH",
"492 751 OFFCURVE",
"514 801 OFFCURVE",
"514 833 CURVE"
);
}
);
width = 690;
}
);
unicode = 00D5;
},
{
glyphname = OE;
lastChange = "2014-09-05 18:36:13 +0000";
layers = (
{
anchors = (
{
name = top;
position = "{516, 686}";
}
);
background = {
anchors = (
{
name = top;
position = "{516, 686}";
}
);
paths = (
{
closed = 1;
nodes = (
"973 0 LINE",
"962 48 LINE",
"593 48 LINE",
"593 326 LINE",
"912 326 LINE",
"912 374 LINE",
"593 374 LINE",
"593 638 LINE",
"953 638 LINE",
"963 686 LINE",
"539 686 LINE",
"539 598 LINE",
"490 673 OFFCURVE",
"413 696 OFFCURVE",
"327 696 CURVE SMOOTH",
"180 696 OFFCURVE",
"61 631 OFFCURVE",
"61 356 CURVE SMOOTH",
"61 330 LINE SMOOTH",
"61 55 OFFCURVE",
"180 -10 OFFCURVE",
"327 -10 CURVE SMOOTH",
"413 -10 OFFCURVE",
"490 12 OFFCURVE",
"539 87 CURVE",
"539 0 LINE"
);
},
{
closed = 1;
nodes = (
"210 38 OFFCURVE",
"115 91 OFFCURVE",
"115 318 CURVE SMOOTH",
"115 368 LINE SMOOTH",
"115 595 OFFCURVE",
"210 648 OFFCURVE",
"327 648 CURVE SMOOTH",
"444 648 OFFCURVE",
"539 595 OFFCURVE",
"539 368 CURVE SMOOTH",
"539 318 LINE SMOOTH",
"539 91 OFFCURVE",
"444 38 OFFCURVE",
"327 38 CURVE SMOOTH"
);
}
);
};
layerId = "D4B4FEC9-7137-4CB7-86D3-564A65A82025";
name = Light;
paths = (
{
closed = 1;
nodes = (
"973 0 LINE",
"962 48 LINE",
"593 48 LINE",
"593 326 LINE",
"912 326 LINE",
"912 374 LINE",
"593 374 LINE",
"593 638 LINE",
"953 638 LINE",
"963 686 LINE",
"539 686 LINE",
"539 598 LINE",
"490 673 OFFCURVE",
"413 696 OFFCURVE",
"327 696 CURVE SMOOTH",
"180 696 OFFCURVE",
"61 631 OFFCURVE",
"61 356 CURVE SMOOTH",
"61 330 LINE SMOOTH",
"61 55 OFFCURVE",
"180 -10 OFFCURVE",
"327 -10 CURVE SMOOTH",
"413 -10 OFFCURVE",
"490 12 OFFCURVE",
"539 87 CURVE",
"539 0 LINE"
);
},
{
closed = 1;
nodes = (
"210 38 OFFCURVE",
"115 91 OFFCURVE",
"115 318 CURVE SMOOTH",
"115 368 LINE SMOOTH",
"115 595 OFFCURVE",
"210 648 OFFCURVE",
"327 648 CURVE SMOOTH",
"444 648 OFFCURVE",
"539 595 OFFCURVE",
"539 368 CURVE SMOOTH",
"539 318 LINE SMOOTH",
"539 91 OFFCURVE",
"444 38 OFFCURVE",
"327 38 CURVE SMOOTH"
);
}
);
width = 1032;
}
);
unicode = 0152;
},
{
glyphname = P;
lastChange = "2014-09-05 18:36:13 +0000";
layers = (
{
background = {
paths = (
{
closed = 1;
nodes = (
"146 0 LINE",
"146 312 LINE",
"373 312 LINE SMOOTH",
"476 312 OFFCURVE",
"560 396 OFFCURVE",
"560 499 CURVE SMOOTH",
"560 602 OFFCURVE",
"476 686 OFFCURVE",
"373 686 CURVE SMOOTH",
"92 686 LINE",
"92 0 LINE"
);
},
{
closed = 1;
nodes = (
"146 359 LINE",
"146 638 LINE",
"366 638 LINE SMOOTH",
"444 638 OFFCURVE",
"508 577 OFFCURVE",
"508 499 CURVE SMOOTH",
"508 421 OFFCURVE",
"444 359 OFFCURVE",
"366 359 CURVE SMOOTH"
);
}
);
};
layerId = "D4B4FEC9-7137-4CB7-86D3-564A65A82025";
name = Light;
paths = (
{
closed = 1;
nodes = (
"146 0 LINE",
"146 312 LINE",
"373 312 LINE SMOOTH",
"476 312 OFFCURVE",
"560 396 OFFCURVE",
"560 499 CURVE SMOOTH",
"560 602 OFFCURVE",
"476 686 OFFCURVE",
"373 686 CURVE SMOOTH",
"92 686 LINE",
"92 0 LINE"
);
},
{
closed = 1;
nodes = (
"146 359 LINE",
"146 638 LINE",
"366 638 LINE SMOOTH",
"444 638 OFFCURVE",
"508 577 OFFCURVE",
"508 499 CURVE SMOOTH",
"508 421 OFFCURVE",
"444 359 OFFCURVE",
"366 359 CURVE SMOOTH"
);
}
);
width = 624;
}
);
unicode = 0050;
},
{
glyphname = Thorn;
lastChange = "2014-09-05 18:36:13 +0000";
layers = (
{
background = {
paths = (
{
closed = 1;
nodes = (
"146 0 LINE",
"146 177 LINE",
"373 177 LINE SMOOTH",
"476 177 OFFCURVE",
"560 261 OFFCURVE",
"560 364 CURVE SMOOTH",
"560 467 OFFCURVE",
"476 551 OFFCURVE",
"373 551 CURVE SMOOTH",
"146 551 LINE",
"146 686 LINE",
"92 686 LINE",
"92 0 LINE"
);
},
{
closed = 1;
nodes = (
"146 224 LINE",
"146 503 LINE",
"366 503 LINE SMOOTH",
"444 503 OFFCURVE",
"508 442 OFFCURVE",
"508 364 CURVE SMOOTH",
"508 286 OFFCURVE",
"444 224 OFFCURVE",
"366 224 CURVE SMOOTH"
);
}
);
};
layerId = "D4B4FEC9-7137-4CB7-86D3-564A65A82025";
name = Light;
paths = (
{
closed = 1;
nodes = (
"146 0 LINE",
"146 177 LINE",
"373 177 LINE SMOOTH",
"476 177 OFFCURVE",
"560 261 OFFCURVE",
"560 364 CURVE SMOOTH",
"560 467 OFFCURVE",
"476 551 OFFCURVE",
"373 551 CURVE SMOOTH",
"146 551 LINE",
"146 686 LINE",
"92 686 LINE",
"92 0 LINE"
);
},
{
closed = 1;
nodes = (
"146 224 LINE",
"146 503 LINE",
"366 503 LINE SMOOTH",
"444 503 OFFCURVE",
"508 442 OFFCURVE",
"508 364 CURVE SMOOTH",
"508 286 OFFCURVE",
"444 224 OFFCURVE",
"366 224 CURVE SMOOTH"
);
}
);
width = 633;
}
);
unicode = 00DE;
},
{
glyphname = Q;
lastChange = "2014-09-05 18:36:13 +0000";
layers = (
{
background = {
paths = (
{
closed = 1;
nodes = (
"593 356 LINE SMOOTH",
"593 631 OFFCURVE",
"474 696 OFFCURVE",
"327 696 CURVE SMOOTH",
"180 696 OFFCURVE",
"61 631 OFFCURVE",
"61 356 CURVE SMOOTH",
"61 330 LINE SMOOTH",
"61 68 OFFCURVE",
"168 -3 OFFCURVE",
"305 -9 CURVE",
"313 -66 OFFCURVE",
"345 -137 OFFCURVE",
"464 -137 CURVE SMOOTH",
"527 -137 OFFCURVE",
"577 -110 OFFCURVE",
"577 -110 CURVE",
"577 -61 LINE",
"577 -62 OFFCURVE",
"510 -90 OFFCURVE",
"463 -90 CURVE SMOOTH",
"388 -90 OFFCURVE",
"362 -46 OFFCURVE",
"355 -9 CURVE",
"489 0 OFFCURVE",
"593 73 OFFCURVE",
"593 330 CURVE SMOOTH"
);
},
{
closed = 1;
nodes = (
"210 38 OFFCURVE",
"115 91 OFFCURVE",
"115 318 CURVE SMOOTH",
"115 368 LINE SMOOTH",
"115 595 OFFCURVE",
"210 648 OFFCURVE",
"327 648 CURVE SMOOTH",
"444 648 OFFCURVE",
"539 595 OFFCURVE",
"539 368 CURVE SMOOTH",
"539 318 LINE SMOOTH",
"539 91 OFFCURVE",
"444 38 OFFCURVE",
"327 38 CURVE SMOOTH"
);
}
);
};
layerId = "D4B4FEC9-7137-4CB7-86D3-564A65A82025";
name = Light;
paths = (
{
closed = 1;
nodes = (
"593 356 LINE SMOOTH",
"593 631 OFFCURVE",
"474 696 OFFCURVE",
"327 696 CURVE SMOOTH",
"180 696 OFFCURVE",
"61 631 OFFCURVE",
"61 356 CURVE SMOOTH",
"61 330 LINE SMOOTH",
"61 68 OFFCURVE",
"168 -3 OFFCURVE",
"305 -9 CURVE",
"313 -66 OFFCURVE",
"345 -137 OFFCURVE",
"464 -137 CURVE SMOOTH",
"527 -137 OFFCURVE",
"577 -110 OFFCURVE",
"577 -110 CURVE",
"577 -61 LINE",
"577 -62 OFFCURVE",
"510 -90 OFFCURVE",
"463 -90 CURVE SMOOTH",
"388 -90 OFFCURVE",
"362 -46 OFFCURVE",
"355 -9 CURVE",
"489 0 OFFCURVE",
"593 73 OFFCURVE",
"593 330 CURVE SMOOTH"
);
},
{
closed = 1;
nodes = (
"210 38 OFFCURVE",
"115 91 OFFCURVE",
"115 318 CURVE SMOOTH",
"115 368 LINE SMOOTH",
"115 595 OFFCURVE",
"210 648 OFFCURVE",
"327 648 CURVE SMOOTH",
"444 648 OFFCURVE",
"539 595 OFFCURVE",
"539 368 CURVE SMOOTH",
"539 318 LINE SMOOTH",
"539 91 OFFCURVE",
"444 38 OFFCURVE",
"327 38 CURVE SMOOTH"
);
}
);
width = 690;
}
);
unicode = 0051;
},
{
glyphname = R;
lastChange = "2014-09-05 19:07:52 +0000";
layers = (
{
anchors = (
{
name = bottom;
position = "{335, 0}";
},
{
name = top;
position = "{305, 686}";
}
);
background = {
anchors = (
{
name = top;
position = "{335, 686}";
},
{
name = bottom;
position = "{335, 0}";
}
);
paths = (
{
closed = 1;
nodes = (
"599 20 LINE",
"574 32 OFFCURVE",
"548 30 OFFCURVE",
"548 153 CURVE SMOOTH",
"548 332 OFFCURVE",
"438 349 OFFCURVE",
"438 349 CURVE",
"438 354 LINE",
"508 367 OFFCURVE",
"561 443 OFFCURVE",
"561 516 CURVE SMOOTH",
"561 619 OFFCURVE",
"468 686 OFFCURVE",
"371 686 CURVE SMOOTH",
"92 686 LINE",
"92 0 LINE",
"146 0 LINE",
"146 326 LINE",
"367 326 LINE SMOOTH",
"399 326 OFFCURVE",
"496 313 OFFCURVE",
"496 127 CURVE SMOOTH",
"496 15 OFFCURVE",
"543 -3 OFFCURVE",
"574 -3 CURVE SMOOTH",
"588 -3 OFFCURVE",
"599 1 OFFCURVE",
"599 1 CURVE"
);
},
{
closed = 1;
nodes = (
"146 374 LINE",
"146 638 LINE",
"146 638 OFFCURVE",
"372 638 OFFCURVE",
"374 638 CURVE SMOOTH",
"448 638 OFFCURVE",
"508 581 OFFCURVE",
"508 507 CURVE SMOOTH",
"508 433 OFFCURVE",
"448 374 OFFCURVE",
"374 374 CURVE SMOOTH"
);
}
);
};
layerId = "D4B4FEC9-7137-4CB7-86D3-564A65A82025";
name = Light;
paths = (
{
closed = 1;
nodes = (
"599 20 LINE",
"574 32 OFFCURVE",
"548 30 OFFCURVE",
"548 153 CURVE SMOOTH",
"548 332 OFFCURVE",
"438 349 OFFCURVE",
"438 349 CURVE",
"438 354 LINE",
"508 367 OFFCURVE",
"561 443 OFFCURVE",
"561 516 CURVE SMOOTH",
"561 619 OFFCURVE",
"468 686 OFFCURVE",
"371 686 CURVE SMOOTH",
"92 686 LINE",
"92 0 LINE",
"146 0 LINE",
"146 326 LINE",
"367 326 LINE SMOOTH",
"399 326 OFFCURVE",
"496 313 OFFCURVE",
"496 127 CURVE SMOOTH",
"496 15 OFFCURVE",
"543 -3 OFFCURVE",
"574 -3 CURVE SMOOTH",
"588 -3 OFFCURVE",
"599 1 OFFCURVE",
"599 1 CURVE"
);
},
{
closed = 1;
nodes = (
"146 374 LINE",
"146 638 LINE",
"146 638 OFFCURVE",
"372 638 OFFCURVE",
"374 638 CURVE SMOOTH",
"448 638 OFFCURVE",
"508 581 OFFCURVE",
"508 507 CURVE SMOOTH",
"508 433 OFFCURVE",
"448 374 OFFCURVE",
"374 374 CURVE SMOOTH"
);
}
);
width = 670;
}
);
unicode = 0052;
},
{
glyphname = S;
lastChange = "2014-09-05 19:07:55 +0000";
layers = (
{
anchors = (
{
name = bottom;
position = "{314, 0}";
},
{
name = top;
position = "{294, 686}";
}
);
background = {
anchors = (
{
name = top;
position = "{314, 686}";
},
{
name = bottom;
position = "{314, 0}";
}
);
paths = (
{
closed = 1;
nodes = (
"523 503 LINE",
"523 516 LINE SMOOTH",
"523 646 OFFCURVE",
"421 696 OFFCURVE",
"296 696 CURVE SMOOTH",
"175 696 OFFCURVE",
"69 646 OFFCURVE",
"69 528 CURVE SMOOTH",
"69 277 OFFCURVE",
"490 396 OFFCURVE",
"490 185 CURVE SMOOTH",
"490 72 OFFCURVE",
"403 38 OFFCURVE",
"296 38 CURVE SMOOTH",
"189 38 OFFCURVE",
"103 74 OFFCURVE",
"103 178 CURVE SMOOTH",
"103 186 OFFCURVE",
"104 205 OFFCURVE",
"104 205 CURVE SMOOTH",
"53 205 LINE SMOOTH",
"53 205 OFFCURVE",
"52 193 OFFCURVE",
"52 187 CURVE SMOOTH",
"52 39 OFFCURVE",
"164 -10 OFFCURVE",
"300 -10 CURVE SMOOTH",
"432 -10 OFFCURVE",
"543 42 OFFCURVE",
"543 188 CURVE SMOOTH",
"543 447 OFFCURVE",
"122 332 OFFCURVE",
"122 525 CURVE SMOOTH",
"122 615 OFFCURVE",
"200 648 OFFCURVE",
"297 648 CURVE SMOOTH",
"394 648 OFFCURVE",
"473 608 OFFCURVE",
"473 525 CURVE SMOOTH",
"473 503 LINE"
);
}
);
};
layerId = "D4B4FEC9-7137-4CB7-86D3-564A65A82025";
name = Light;
paths = (
{
closed = 1;
nodes = (
"523 503 LINE",
"523 516 LINE SMOOTH",
"523 646 OFFCURVE",
"421 696 OFFCURVE",
"296 696 CURVE SMOOTH",
"175 696 OFFCURVE",
"69 646 OFFCURVE",
"69 528 CURVE SMOOTH",
"69 277 OFFCURVE",
"490 396 OFFCURVE",
"490 185 CURVE SMOOTH",
"490 72 OFFCURVE",
"403 38 OFFCURVE",
"296 38 CURVE SMOOTH",
"189 38 OFFCURVE",
"103 74 OFFCURVE",
"103 178 CURVE SMOOTH",
"103 186 OFFCURVE",
"104 205 OFFCURVE",
"104 205 CURVE SMOOTH",
"53 205 LINE SMOOTH",
"53 205 OFFCURVE",
"52 193 OFFCURVE",
"52 187 CURVE SMOOTH",
"52 39 OFFCURVE",
"164 -10 OFFCURVE",
"300 -10 CURVE SMOOTH",
"432 -10 OFFCURVE",
"543 42 OFFCURVE",
"543 188 CURVE SMOOTH",
"543 447 OFFCURVE",
"122 332 OFFCURVE",
"122 525 CURVE SMOOTH",
"122 615 OFFCURVE",
"200 648 OFFCURVE",
"297 648 CURVE SMOOTH",
"394 648 OFFCURVE",
"473 608 OFFCURVE",
"473 525 CURVE SMOOTH",
"473 503 LINE"
);
}
);
width = 627;
}
);
unicode = 0053;
},
{
glyphname = Scaron;
lastChange = "2014-09-05 18:36:13 +0000";
layers = (
{
background = {
paths = (
{
closed = 1;
nodes = (
"523 503 LINE",
"523 516 LINE SMOOTH",
"523 646 OFFCURVE",
"421 696 OFFCURVE",
"296 696 CURVE SMOOTH",
"175 696 OFFCURVE",
"69 646 OFFCURVE",
"69 528 CURVE SMOOTH",
"69 277 OFFCURVE",
"490 396 OFFCURVE",
"490 185 CURVE SMOOTH",
"490 72 OFFCURVE",
"403 38 OFFCURVE",
"296 38 CURVE SMOOTH",
"189 38 OFFCURVE",
"103 74 OFFCURVE",
"103 178 CURVE SMOOTH",
"103 186 OFFCURVE",
"104 205 OFFCURVE",
"104 205 CURVE SMOOTH",
"53 205 LINE SMOOTH",
"53 205 OFFCURVE",
"52 193 OFFCURVE",
"52 187 CURVE SMOOTH",
"52 39 OFFCURVE",
"164 -10 OFFCURVE",
"300 -10 CURVE SMOOTH",
"432 -10 OFFCURVE",
"543 42 OFFCURVE",
"543 188 CURVE SMOOTH",
"543 447 OFFCURVE",
"122 332 OFFCURVE",
"122 525 CURVE SMOOTH",
"122 615 OFFCURVE",
"200 648 OFFCURVE",
"297 648 CURVE SMOOTH",
"394 648 OFFCURVE",
"473 608 OFFCURVE",
"473 525 CURVE SMOOTH",
"473 503 LINE"
);
},
{
closed = 1;
nodes = (
"273 750 LINE",
"331 750 LINE",
"465 895 LINE",
"405 895 LINE",
"302 798 LINE",
"199 895 LINE",
"139 895 LINE"
);
}
);
};
layerId = "D4B4FEC9-7137-4CB7-86D3-564A65A82025";
name = Light;
paths = (
{
closed = 1;
nodes = (
"523 503 LINE",
"523 516 LINE SMOOTH",
"523 646 OFFCURVE",
"421 696 OFFCURVE",
"296 696 CURVE SMOOTH",
"175 696 OFFCURVE",
"69 646 OFFCURVE",
"69 528 CURVE SMOOTH",
"69 277 OFFCURVE",
"490 396 OFFCURVE",
"490 185 CURVE SMOOTH",
"490 72 OFFCURVE",
"403 38 OFFCURVE",
"296 38 CURVE SMOOTH",
"189 38 OFFCURVE",
"103 74 OFFCURVE",
"103 178 CURVE SMOOTH",
"103 186 OFFCURVE",
"104 205 OFFCURVE",
"104 205 CURVE SMOOTH",
"53 205 LINE SMOOTH",
"53 205 OFFCURVE",
"52 193 OFFCURVE",
"52 187 CURVE SMOOTH",
"52 39 OFFCURVE",
"164 -10 OFFCURVE",
"300 -10 CURVE SMOOTH",
"432 -10 OFFCURVE",
"543 42 OFFCURVE",
"543 188 CURVE SMOOTH",
"543 447 OFFCURVE",
"122 332 OFFCURVE",
"122 525 CURVE SMOOTH",
"122 615 OFFCURVE",
"200 648 OFFCURVE",
"297 648 CURVE SMOOTH",
"394 648 OFFCURVE",
"473 608 OFFCURVE",
"473 525 CURVE SMOOTH",
"473 503 LINE"
);
},
{
closed = 1;
nodes = (
"273 750 LINE",
"331 750 LINE",
"465 895 LINE",
"405 895 LINE",
"302 798 LINE",
"199 895 LINE",
"139 895 LINE"
);
}
);
width = 627;
}
);
unicode = 0160;
},
{
glyphname = T;
lastChange = "2014-09-05 19:08:04 +0000";
layers = (
{
anchors = (
{
name = bottom;
position = "{283, 0}";
},
{
name = center;
position = "{289, 343}";
},
{
name = top;
position = "{283, 686}";
}
);
background = {
anchors = (
{
name = top;
position = "{289, 686}";
},
{
name = bottom;
position = "{289, 0}";
},
{
name = center;
position = "{289, 343}";
}
);
paths = (
{
closed = 1;
nodes = (
"541 638 LINE",
"541 686 LINE",
"25 686 LINE",
"25 638 LINE",
"257 638 LINE",
"257 0 LINE",
"309 0 LINE",
"309 638 LINE"
);
}
);
};
layerId = "D4B4FEC9-7137-4CB7-86D3-564A65A82025";
name = Light;
paths = (
{
closed = 1;
nodes = (
"541 638 LINE",
"541 686 LINE",
"25 686 LINE",
"25 638 LINE",
"257 638 LINE",
"257 0 LINE",
"309 0 LINE",
"309 638 LINE"
);
}
);
width = 578;
}
);
unicode = 0054;
},
{
glyphname = U;
lastChange = "2014-09-05 19:08:13 +0000";
layers = (
{
anchors = (
{
name = ogonek;
position = "{402, 10}";
},
{
name = top;
position = "{325, 686}";
}
);
background = {
anchors = (
{
name = top;
position = "{340, 686}";
},
{
name = ogonek;
position = "{612, 10}";
}
);
paths = (
{
closed = 1;
nodes = (
"509 686 LINE",
"509 222 LINE SMOOTH",
"509 114 OFFCURVE",
"443 38 OFFCURVE",
"324 38 CURVE SMOOTH",
"206 38 OFFCURVE",
"140 111 OFFCURVE",
"140 222 CURVE SMOOTH",
"140 686 LINE",
"86 686 LINE SMOOTH",
"86 686 OFFCURVE",
"86 221 OFFCURVE",
"86 220 CURVE SMOOTH",
"86 81 OFFCURVE",
"180 -10 OFFCURVE",
"324 -10 CURVE SMOOTH",
"468 -10 OFFCURVE",
"563 81 OFFCURVE",
"563 220 CURVE SMOOTH",
"563 221 OFFCURVE",
"563 686 OFFCURVE",
"563 686 CURVE SMOOTH"
);
}
);
};
layerId = "D4B4FEC9-7137-4CB7-86D3-564A65A82025";
name = Light;
paths = (
{
closed = 1;
nodes = (
"509 686 LINE",
"509 222 LINE SMOOTH",
"509 114 OFFCURVE",
"443 38 OFFCURVE",
"324 38 CURVE SMOOTH",
"206 38 OFFCURVE",
"140 111 OFFCURVE",
"140 222 CURVE SMOOTH",
"140 686 LINE",
"86 686 LINE SMOOTH",
"86 686 OFFCURVE",
"86 221 OFFCURVE",
"86 220 CURVE SMOOTH",
"86 81 OFFCURVE",
"180 -10 OFFCURVE",
"324 -10 CURVE SMOOTH",
"468 -10 OFFCURVE",
"563 81 OFFCURVE",
"563 220 CURVE SMOOTH",
"563 221 OFFCURVE",
"563 686 OFFCURVE",
"563 686 CURVE SMOOTH"
);
}
);
width = 680;
}
);
unicode = 0055;
},
{
glyphname = Uacute;
lastChange = "2014-09-05 18:36:13 +0000";
layers = (
{
background = {
paths = (
{
closed = 1;
nodes = (
"509 686 LINE",
"509 222 LINE SMOOTH",
"509 114 OFFCURVE",
"443 38 OFFCURVE",
"324 38 CURVE SMOOTH",
"206 38 OFFCURVE",
"140 111 OFFCURVE",
"140 222 CURVE SMOOTH",
"140 686 LINE",
"86 686 LINE SMOOTH",
"86 686 OFFCURVE",
"86 221 OFFCURVE",
"86 220 CURVE SMOOTH",
"86 81 OFFCURVE",
"180 -10 OFFCURVE",
"324 -10 CURVE SMOOTH",
"468 -10 OFFCURVE",
"563 81 OFFCURVE",
"563 220 CURVE SMOOTH",
"563 221 OFFCURVE",
"563 686 OFFCURVE",
"563 686 CURVE SMOOTH"
);
},
{
closed = 1;
nodes = (
"348 750 LINE",
"459 892 LINE",
"459 895 LINE",
"394 895 LINE",
"298 750 LINE"
);
}
);
};
layerId = "D4B4FEC9-7137-4CB7-86D3-564A65A82025";
name = Light;
paths = (
{
closed = 1;
nodes = (
"509 686 LINE",
"509 222 LINE SMOOTH",
"509 114 OFFCURVE",
"443 38 OFFCURVE",
"324 38 CURVE SMOOTH",
"206 38 OFFCURVE",
"140 111 OFFCURVE",
"140 222 CURVE SMOOTH",
"140 686 LINE",
"86 686 LINE SMOOTH",
"86 686 OFFCURVE",
"86 221 OFFCURVE",
"86 220 CURVE SMOOTH",
"86 81 OFFCURVE",
"180 -10 OFFCURVE",
"324 -10 CURVE SMOOTH",
"468 -10 OFFCURVE",
"563 81 OFFCURVE",
"563 220 CURVE SMOOTH",
"563 221 OFFCURVE",
"563 686 OFFCURVE",
"563 686 CURVE SMOOTH"
);
},
{
closed = 1;
nodes = (
"348 750 LINE",
"459 892 LINE",
"459 895 LINE",
"394 895 LINE",
"298 750 LINE"
);
}
);
width = 680;
}
);
unicode = 00DA;
},
{
glyphname = Ucircumflex;
lastChange = "2014-09-05 18:36:13 +0000";
layers = (
{
background = {
paths = (
{
closed = 1;
nodes = (
"509 686 LINE",
"509 222 LINE SMOOTH",
"509 114 OFFCURVE",
"443 38 OFFCURVE",
"324 38 CURVE SMOOTH",
"206 38 OFFCURVE",
"140 111 OFFCURVE",
"140 222 CURVE SMOOTH",
"140 686 LINE",
"86 686 LINE SMOOTH",
"86 686 OFFCURVE",
"86 221 OFFCURVE",
"86 220 CURVE SMOOTH",
"86 81 OFFCURVE",
"180 -10 OFFCURVE",
"324 -10 CURVE SMOOTH",
"468 -10 OFFCURVE",
"563 81 OFFCURVE",
"563 220 CURVE SMOOTH",
"563 221 OFFCURVE",
"563 686 OFFCURVE",
"563 686 CURVE SMOOTH"
);
},
{
closed = 1;
nodes = (
"162 750 LINE",
"222 750 LINE",
"325 847 LINE",
"428 750 LINE",
"488 750 LINE",
"354 895 LINE",
"296 895 LINE"
);
}
);
};
layerId = "D4B4FEC9-7137-4CB7-86D3-564A65A82025";
name = Light;
paths = (
{
closed = 1;
nodes = (
"509 686 LINE",
"509 222 LINE SMOOTH",
"509 114 OFFCURVE",
"443 38 OFFCURVE",
"324 38 CURVE SMOOTH",
"206 38 OFFCURVE",
"140 111 OFFCURVE",
"140 222 CURVE SMOOTH",
"140 686 LINE",
"86 686 LINE SMOOTH",
"86 686 OFFCURVE",
"86 221 OFFCURVE",
"86 220 CURVE SMOOTH",
"86 81 OFFCURVE",
"180 -10 OFFCURVE",
"324 -10 CURVE SMOOTH",
"468 -10 OFFCURVE",
"563 81 OFFCURVE",
"563 220 CURVE SMOOTH",
"563 221 OFFCURVE",
"563 686 OFFCURVE",
"563 686 CURVE SMOOTH"
);
},
{
closed = 1;
nodes = (
"162 750 LINE",
"222 750 LINE",
"325 847 LINE",
"428 750 LINE",
"488 750 LINE",
"354 895 LINE",
"296 895 LINE"
);
}
);
width = 680;
}
);
unicode = 00DB;
},
{
glyphname = Udieresis;
lastChange = "2014-09-05 18:36:13 +0000";
layers = (
{
background = {
paths = (
{
closed = 1;
nodes = (
"509 686 LINE",
"509 222 LINE SMOOTH",
"509 114 OFFCURVE",
"443 38 OFFCURVE",
"324 38 CURVE SMOOTH",
"206 38 OFFCURVE",
"140 111 OFFCURVE",
"140 222 CURVE SMOOTH",
"140 686 LINE",
"86 686 LINE SMOOTH",
"86 686 OFFCURVE",
"86 221 OFFCURVE",
"86 220 CURVE SMOOTH",
"86 81 OFFCURVE",
"180 -10 OFFCURVE",
"324 -10 CURVE SMOOTH",
"468 -10 OFFCURVE",
"563 81 OFFCURVE",
"563 220 CURVE SMOOTH",
"563 221 OFFCURVE",
"563 686 OFFCURVE",
"563 686 CURVE SMOOTH"
);
},
{
closed = 1;
nodes = (
"204 751 LINE",
"269 751 LINE",
"269 820 LINE",
"204 820 LINE"
);
},
{
closed = 1;
nodes = (
"380 751 LINE",
"445 751 LINE",
"445 820 LINE",
"380 820 LINE"
);
}
);
};
layerId = "D4B4FEC9-7137-4CB7-86D3-564A65A82025";
name = Light;
paths = (
{
closed = 1;
nodes = (
"509 686 LINE",
"509 222 LINE SMOOTH",
"509 114 OFFCURVE",
"443 38 OFFCURVE",
"324 38 CURVE SMOOTH",
"206 38 OFFCURVE",
"140 111 OFFCURVE",
"140 222 CURVE SMOOTH",
"140 686 LINE",
"86 686 LINE SMOOTH",
"86 686 OFFCURVE",
"86 221 OFFCURVE",
"86 220 CURVE SMOOTH",
"86 81 OFFCURVE",
"180 -10 OFFCURVE",
"324 -10 CURVE SMOOTH",
"468 -10 OFFCURVE",
"563 81 OFFCURVE",
"563 220 CURVE SMOOTH",
"563 221 OFFCURVE",
"563 686 OFFCURVE",
"563 686 CURVE SMOOTH"
);
},
{
closed = 1;
nodes = (
"204 751 LINE",
"269 751 LINE",
"269 820 LINE",
"204 820 LINE"
);
},
{
closed = 1;
nodes = (
"380 751 LINE",
"445 751 LINE",
"445 820 LINE",
"380 820 LINE"
);
}
);
width = 680;
}
);
unicode = 00DC;
},
{
glyphname = Ugrave;
lastChange = "2014-09-05 18:36:13 +0000";
layers = (
{
background = {
paths = (
{
closed = 1;
nodes = (
"509 686 LINE",
"509 222 LINE SMOOTH",
"509 114 OFFCURVE",
"443 38 OFFCURVE",
"324 38 CURVE SMOOTH",
"206 38 OFFCURVE",
"140 111 OFFCURVE",
"140 222 CURVE SMOOTH",
"140 686 LINE",
"86 686 LINE SMOOTH",
"86 686 OFFCURVE",
"86 221 OFFCURVE",
"86 220 CURVE SMOOTH",
"86 81 OFFCURVE",
"180 -10 OFFCURVE",
"324 -10 CURVE SMOOTH",
"468 -10 OFFCURVE",
"563 81 OFFCURVE",
"563 220 CURVE SMOOTH",
"563 221 OFFCURVE",
"563 686 OFFCURVE",
"563 686 CURVE SMOOTH"
);
},
{
closed = 1;
nodes = (
"356 750 LINE",
"260 895 LINE",
"195 895 LINE",
"195 892 LINE",
"306 750 LINE"
);
}
);
};
layerId = "D4B4FEC9-7137-4CB7-86D3-564A65A82025";
name = Light;
paths = (
{
closed = 1;
nodes = (
"509 686 LINE",
"509 222 LINE SMOOTH",
"509 114 OFFCURVE",
"443 38 OFFCURVE",
"324 38 CURVE SMOOTH",
"206 38 OFFCURVE",
"140 111 OFFCURVE",
"140 222 CURVE SMOOTH",
"140 686 LINE",
"86 686 LINE SMOOTH",
"86 686 OFFCURVE",
"86 221 OFFCURVE",
"86 220 CURVE SMOOTH",
"86 81 OFFCURVE",
"180 -10 OFFCURVE",
"324 -10 CURVE SMOOTH",
"468 -10 OFFCURVE",
"563 81 OFFCURVE",
"563 220 CURVE SMOOTH",
"563 221 OFFCURVE",
"563 686 OFFCURVE",
"563 686 CURVE SMOOTH"
);
},
{
closed = 1;
nodes = (
"356 750 LINE",
"260 895 LINE",
"195 895 LINE",
"195 892 LINE",
"306 750 LINE"
);
}
);
width = 680;
}
);
unicode = 00D9;
},
{
glyphname = V;
lastChange = "2014-09-05 18:36:13 +0000";
layers = (
{
background = {
paths = (
{
closed = 1;
nodes = (
"294 86 LINE",
"289 86 LINE",
"64 686 LINE",
"5 686 LINE",
"265 0 LINE",
"313 0 LINE",
"572 686 LINE",
"519 686 LINE"
);
}
);
};
layerId = "D4B4FEC9-7137-4CB7-86D3-564A65A82025";
name = Light;
paths = (
{
closed = 1;
nodes = (
"294 86 LINE",
"289 86 LINE",
"64 686 LINE",
"5 686 LINE",
"265 0 LINE",
"313 0 LINE",
"572 686 LINE",
"519 686 LINE"
);
}
);
width = 603;
}
);
unicode = 0056;
},
{
glyphname = W;
lastChange = "2014-09-05 19:08:19 +0000";
layers = (
{
anchors = (
{
name = top;
position = "{435, 686}";
}
);
background = {
anchors = (
{
name = top;
position = "{458, 686}";
}
);
paths = (
{
closed = 1;
nodes = (
"631 107 LINE",
"627 107 LINE",
"460 686 LINE",
"410 686 LINE",
"243 107 LINE",
"239 107 LINE",
"72 686 LINE",
"14 686 LINE",
"214 0 LINE",
"260 0 LINE",
"429 581 LINE",
"433 581 LINE",
"602 0 LINE",
"648 0 LINE",
"848 686 LINE",
"798 686 LINE"
);
}
);
};
layerId = "D4B4FEC9-7137-4CB7-86D3-564A65A82025";
name = Light;
paths = (
{
closed = 1;
nodes = (
"631 107 LINE",
"627 107 LINE",
"460 686 LINE",
"410 686 LINE",
"243 107 LINE",
"239 107 LINE",
"72 686 LINE",
"14 686 LINE",
"214 0 LINE",
"260 0 LINE",
"429 581 LINE",
"433 581 LINE",
"602 0 LINE",
"648 0 LINE",
"848 686 LINE",
"798 686 LINE"
);
}
);
width = 916;
}
);
unicode = 0057;
},
{
glyphname = X;
lastChange = "2014-09-05 18:36:13 +0000";
layers = (
{
background = {
paths = (
{
closed = 1;
nodes = (
"559 686 LINE",
"500 686 LINE",
"298 402 LINE",
"296 402 LINE",
"97 686 LINE",
"32 686 LINE",
"264 359 LINE",
"9 0 LINE",
"68 0 LINE",
"292 315 LINE",
"294 315 LINE",
"516 0 LINE",
"581 0 LINE",
"326 359 LINE"
);
}
);
};
layerId = "D4B4FEC9-7137-4CB7-86D3-564A65A82025";
name = Light;
paths = (
{
closed = 1;
nodes = (
"559 686 LINE",
"500 686 LINE",
"298 402 LINE",
"296 402 LINE",
"97 686 LINE",
"32 686 LINE",
"264 359 LINE",
"9 0 LINE",
"68 0 LINE",
"292 315 LINE",
"294 315 LINE",
"516 0 LINE",
"581 0 LINE",
"326 359 LINE"
);
}
);
width = 631;
}
);
unicode = 0058;
},
{
glyphname = Y;
lastChange = "2014-09-05 19:08:26 +0000";
layers = (
{
anchors = (
{
name = top;
position = "{272, 686}";
}
);
background = {
anchors = (
{
name = top;
position = "{286, 686}";
}
);
paths = (
{
closed = 1;
nodes = (
"541 686 LINE",
"486 686 LINE",
"272 321 LINE",
"269 321 LINE",
"58 686 LINE",
"-5 686 LINE",
"241 266 LINE",
"241 0 LINE",
"295 0 LINE",
"295 266 LINE"
);
}
);
};
layerId = "D4B4FEC9-7137-4CB7-86D3-564A65A82025";
name = Light;
paths = (
{
closed = 1;
nodes = (
"541 686 LINE",
"486 686 LINE",
"272 321 LINE",
"269 321 LINE",
"58 686 LINE",
"-5 686 LINE",
"241 266 LINE",
"241 0 LINE",
"295 0 LINE",
"295 266 LINE"
);
}
);
width = 572;
}
);
unicode = 0059;
},
{
glyphname = Yacute;
lastChange = "2014-09-05 18:36:13 +0000";
layers = (
{
background = {
paths = (
{
closed = 1;
nodes = (
"541 686 LINE",
"486 686 LINE",
"272 321 LINE",
"269 321 LINE",
"58 686 LINE",
"-5 686 LINE",
"241 266 LINE",
"241 0 LINE",
"295 0 LINE",
"295 266 LINE"
);
},
{
closed = 1;
nodes = (
"305 750 LINE",
"416 892 LINE",
"416 895 LINE",
"351 895 LINE",
"255 750 LINE"
);
}
);
};
layerId = "D4B4FEC9-7137-4CB7-86D3-564A65A82025";
name = Light;
paths = (
{
closed = 1;
nodes = (
"541 686 LINE",
"486 686 LINE",
"272 321 LINE",
"269 321 LINE",
"58 686 LINE",
"-5 686 LINE",
"241 266 LINE",
"241 0 LINE",
"295 0 LINE",
"295 266 LINE"
);
},
{
closed = 1;
nodes = (
"305 750 LINE",
"416 892 LINE",
"416 895 LINE",
"351 895 LINE",
"255 750 LINE"
);
}
);
width = 572;
}
);
unicode = 00DD;
},
{
glyphname = Ydieresis;
lastChange = "2014-09-05 18:36:13 +0000";
layers = (
{
background = {
paths = (
{
closed = 1;
nodes = (
"541 686 LINE",
"486 686 LINE",
"272 321 LINE",
"269 321 LINE",
"58 686 LINE",
"-5 686 LINE",
"241 266 LINE",
"241 0 LINE",
"295 0 LINE",
"295 266 LINE"
);
},
{
closed = 1;
nodes = (
"151 750 LINE",
"216 750 LINE",
"216 819 LINE",
"151 819 LINE"
);
},
{
closed = 1;
nodes = (
"327 750 LINE",
"392 750 LINE",
"392 819 LINE",
"327 819 LINE"
);
}
);
};
layerId = "D4B4FEC9-7137-4CB7-86D3-564A65A82025";
name = Light;
paths = (
{
closed = 1;
nodes = (
"541 686 LINE",
"486 686 LINE",
"272 321 LINE",
"269 321 LINE",
"58 686 LINE",
"-5 686 LINE",
"241 266 LINE",
"241 0 LINE",
"295 0 LINE",
"295 266 LINE"
);
},
{
closed = 1;
nodes = (
"151 750 LINE",
"216 750 LINE",
"216 819 LINE",
"151 819 LINE"
);
},
{
closed = 1;
nodes = (
"327 750 LINE",
"392 750 LINE",
"392 819 LINE",
"327 819 LINE"
);
}
);
width = 572;
}
);
unicode = 0178;
},
{
glyphname = Z;
lastChange = "2014-09-05 18:36:13 +0000";
layers = (
{
anchors = (
{
name = top;
position = "{298, 686}";
}
);
background = {
anchors = (
{
name = top;
position = "{298, 686}";
}
);
paths = (
{
closed = 1;
nodes = (
"535 0 LINE",
"535 48 LINE",
"113 48 LINE",
"527 662 LINE",
"527 686 LINE",
"56 686 LINE",
"56 638 LINE",
"445 638 LINE",
"32 25 LINE",
"32 0 LINE"
);
}
);
};
layerId = "D4B4FEC9-7137-4CB7-86D3-564A65A82025";
name = Light;
paths = (
{
closed = 1;
nodes = (
"535 0 LINE",
"535 48 LINE",
"113 48 LINE",
"527 662 LINE",
"527 686 LINE",
"56 686 LINE",
"56 638 LINE",
"445 638 LINE",
"32 25 LINE",
"32 0 LINE"
);
}
);
width = 596;
}
);
unicode = 005A;
},
{
glyphname = Zcaron;
lastChange = "2014-09-05 18:36:13 +0000";
layers = (
{
background = {
paths = (
{
closed = 1;
nodes = (
"535 0 LINE",
"535 48 LINE",
"113 48 LINE",
"527 662 LINE",
"527 686 LINE",
"56 686 LINE",
"56 638 LINE",
"445 638 LINE",
"32 25 LINE",
"32 0 LINE"
);
},
{
closed = 1;
nodes = (
"261 750 LINE",
"319 750 LINE",
"453 895 LINE",
"393 895 LINE",
"290 798 LINE",
"187 895 LINE",
"127 895 LINE"
);
}
);
};
layerId = "D4B4FEC9-7137-4CB7-86D3-564A65A82025";
name = Light;
paths = (
{
closed = 1;
nodes = (
"535 0 LINE",
"535 48 LINE",
"113 48 LINE",
"527 662 LINE",
"527 686 LINE",
"56 686 LINE",
"56 638 LINE",
"445 638 LINE",
"32 25 LINE",
"32 0 LINE"
);
},
{
closed = 1;
nodes = (
"261 750 LINE",
"319 750 LINE",
"453 895 LINE",
"393 895 LINE",
"290 798 LINE",
"187 895 LINE",
"127 895 LINE"
);
}
);
width = 596;
}
);
unicode = 017D;
},
{
glyphname = a;
lastChange = "2014-09-05 19:08:37 +0000";
layers = (
{
anchors = (
{
name = ogonek;
position = "{526, 10}";
},
{
name = top;
position = "{263, 511}";
}
);
background = {
anchors = (
{
name = top;
position = "{293, 511}";
},
{
name = ogonek;
position = "{526, 10}";
}
);
paths = (
{
closed = 1;
nodes = (
"396 216 LINE SMOOTH",
"396 92 OFFCURVE",
"305 36 OFFCURVE",
"219 36 CURVE SMOOTH",
"134 36 OFFCURVE",
"99 66 OFFCURVE",
"99 132 CURVE SMOOTH",
"99 243 OFFCURVE",
"216 250 OFFCURVE",
"396 250 CURVE"
);
},
{
closed = 1;
nodes = (
"447 370 LINE SMOOTH",
"447 473 OFFCURVE",
"387 521 OFFCURVE",
"263 521 CURVE SMOOTH",
"153 521 OFFCURVE",
"66 471 OFFCURVE",
"66 381 CURVE SMOOTH",
"66 372 OFFCURVE",
"67 363 OFFCURVE",
"68 355 CURVE",
"117 355 LINE",
"117 371 LINE SMOOTH",
"117 446 OFFCURVE",
"181 475 OFFCURVE",
"263 475 CURVE SMOOTH",
"358 475 OFFCURVE",
"396 447 OFFCURVE",
"396 360 CURVE SMOOTH",
"396 296 LINE",
"194 296 OFFCURVE",
"48 282 OFFCURVE",
"48 133 CURVE SMOOTH",
"48 20 OFFCURVE",
"127 -10 OFFCURVE",
"209 -10 CURVE SMOOTH",
"291 -10 OFFCURVE",
"354 19 OFFCURVE",
"396 89 CURVE",
"396 34 OFFCURVE",
"409 -10 OFFCURVE",
"460 -10 CURVE SMOOTH",
"484 -10 OFFCURVE",
"506 -3 OFFCURVE",
"524 9 CURVE",
"524 52 LINE",
"509 43 OFFCURVE",
"489 36 OFFCURVE",
"474 36 CURVE SMOOTH",
"459 36 OFFCURVE",
"447 45 OFFCURVE",
"447 69 CURVE SMOOTH"
);
}
);
};
layerId = "D4B4FEC9-7137-4CB7-86D3-564A65A82025";
name = Light;
paths = (
{
closed = 1;
nodes = (
"396 216 LINE SMOOTH",
"396 92 OFFCURVE",
"305 36 OFFCURVE",
"219 36 CURVE SMOOTH",
"134 36 OFFCURVE",
"99 66 OFFCURVE",
"99 132 CURVE SMOOTH",
"99 243 OFFCURVE",
"216 250 OFFCURVE",
"396 250 CURVE"
);
},
{
closed = 1;
nodes = (
"447 370 LINE SMOOTH",
"447 473 OFFCURVE",
"387 521 OFFCURVE",
"263 521 CURVE SMOOTH",
"153 521 OFFCURVE",
"66 471 OFFCURVE",
"66 381 CURVE SMOOTH",
"66 372 OFFCURVE",
"67 363 OFFCURVE",
"68 355 CURVE",
"117 355 LINE",
"117 371 LINE SMOOTH",
"117 446 OFFCURVE",
"181 475 OFFCURVE",
"263 475 CURVE SMOOTH",
"358 475 OFFCURVE",
"396 447 OFFCURVE",
"396 360 CURVE SMOOTH",
"396 296 LINE",
"194 296 OFFCURVE",
"48 282 OFFCURVE",
"48 133 CURVE SMOOTH",
"48 20 OFFCURVE",
"127 -10 OFFCURVE",
"209 -10 CURVE SMOOTH",
"291 -10 OFFCURVE",
"354 19 OFFCURVE",
"396 89 CURVE",
"396 34 OFFCURVE",
"409 -10 OFFCURVE",
"460 -10 CURVE SMOOTH",
"484 -10 OFFCURVE",
"506 -3 OFFCURVE",
"524 9 CURVE",
"524 52 LINE",
"509 43 OFFCURVE",
"489 36 OFFCURVE",
"474 36 CURVE SMOOTH",
"459 36 OFFCURVE",
"447 45 OFFCURVE",
"447 69 CURVE SMOOTH"
);
}
);
width = 585;
}
);
unicode = 0061;
},
{
glyphname = aacute;
lastChange = "2014-09-05 18:36:13 +0000";
layers = (
{
background = {
paths = (
{
closed = 1;
nodes = (
"396 216 LINE SMOOTH",
"396 92 OFFCURVE",
"305 36 OFFCURVE",
"219 36 CURVE SMOOTH",
"134 36 OFFCURVE",
"99 66 OFFCURVE",
"99 132 CURVE SMOOTH",
"99 243 OFFCURVE",
"216 250 OFFCURVE",
"396 250 CURVE"
);
},
{
closed = 1;
nodes = (
"447 370 LINE SMOOTH",
"447 473 OFFCURVE",
"387 521 OFFCURVE",
"263 521 CURVE SMOOTH",
"153 521 OFFCURVE",
"66 471 OFFCURVE",
"66 381 CURVE SMOOTH",
"66 372 OFFCURVE",
"67 363 OFFCURVE",
"68 355 CURVE",
"117 355 LINE",
"117 371 LINE SMOOTH",
"117 446 OFFCURVE",
"181 475 OFFCURVE",
"263 475 CURVE SMOOTH",
"358 475 OFFCURVE",
"396 447 OFFCURVE",
"396 360 CURVE SMOOTH",
"396 296 LINE",
"194 296 OFFCURVE",
"48 282 OFFCURVE",
"48 133 CURVE SMOOTH",
"48 20 OFFCURVE",
"127 -10 OFFCURVE",
"209 -10 CURVE SMOOTH",
"291 -10 OFFCURVE",
"354 19 OFFCURVE",
"396 89 CURVE",
"396 34 OFFCURVE",
"409 -10 OFFCURVE",
"460 -10 CURVE SMOOTH",
"484 -10 OFFCURVE",
"506 -3 OFFCURVE",
"524 9 CURVE",
"524 52 LINE",
"509 43 OFFCURVE",
"489 36 OFFCURVE",
"474 36 CURVE SMOOTH",
"459 36 OFFCURVE",
"447 45 OFFCURVE",
"447 69 CURVE SMOOTH"
);
},
{
closed = 1;
nodes = (
"301 575 LINE",
"412 717 LINE",
"412 720 LINE",
"347 720 LINE",
"251 575 LINE"
);
}
);
};
layerId = "D4B4FEC9-7137-4CB7-86D3-564A65A82025";
name = Light;
paths = (
{
closed = 1;
nodes = (
"396 216 LINE SMOOTH",
"396 92 OFFCURVE",
"305 36 OFFCURVE",
"219 36 CURVE SMOOTH",
"134 36 OFFCURVE",
"99 66 OFFCURVE",
"99 132 CURVE SMOOTH",
"99 243 OFFCURVE",
"216 250 OFFCURVE",
"396 250 CURVE"
);
},
{
closed = 1;
nodes = (
"447 370 LINE SMOOTH",
"447 473 OFFCURVE",
"387 521 OFFCURVE",
"263 521 CURVE SMOOTH",
"153 521 OFFCURVE",
"66 471 OFFCURVE",
"66 381 CURVE SMOOTH",
"66 372 OFFCURVE",
"67 363 OFFCURVE",
"68 355 CURVE",
"117 355 LINE",
"117 371 LINE SMOOTH",
"117 446 OFFCURVE",
"181 475 OFFCURVE",
"263 475 CURVE SMOOTH",
"358 475 OFFCURVE",
"396 447 OFFCURVE",
"396 360 CURVE SMOOTH",
"396 296 LINE",
"194 296 OFFCURVE",
"48 282 OFFCURVE",
"48 133 CURVE SMOOTH",
"48 20 OFFCURVE",
"127 -10 OFFCURVE",
"209 -10 CURVE SMOOTH",
"291 -10 OFFCURVE",
"354 19 OFFCURVE",
"396 89 CURVE",
"396 34 OFFCURVE",
"409 -10 OFFCURVE",
"460 -10 CURVE SMOOTH",
"484 -10 OFFCURVE",
"506 -3 OFFCURVE",
"524 9 CURVE",
"524 52 LINE",
"509 43 OFFCURVE",
"489 36 OFFCURVE",
"474 36 CURVE SMOOTH",
"459 36 OFFCURVE",
"447 45 OFFCURVE",
"447 69 CURVE SMOOTH"
);
},
{
closed = 1;
nodes = (
"301 575 LINE",
"412 717 LINE",
"412 720 LINE",
"347 720 LINE",
"251 575 LINE"
);
}
);
width = 585;
}
);
unicode = 00E1;
},
{
glyphname = acircumflex;
lastChange = "2014-09-05 18:36:13 +0000";
layers = (
{
background = {
paths = (
{
closed = 1;
nodes = (
"396 216 LINE SMOOTH",
"396 92 OFFCURVE",
"305 36 OFFCURVE",
"219 36 CURVE SMOOTH",
"134 36 OFFCURVE",
"99 66 OFFCURVE",
"99 132 CURVE SMOOTH",
"99 243 OFFCURVE",
"216 250 OFFCURVE",
"396 250 CURVE"
);
},
{
closed = 1;
nodes = (
"447 370 LINE SMOOTH",
"447 473 OFFCURVE",
"387 521 OFFCURVE",
"263 521 CURVE SMOOTH",
"153 521 OFFCURVE",
"66 471 OFFCURVE",
"66 381 CURVE SMOOTH",
"66 372 OFFCURVE",
"67 363 OFFCURVE",
"68 355 CURVE",
"117 355 LINE",
"117 371 LINE SMOOTH",
"117 446 OFFCURVE",
"181 475 OFFCURVE",
"263 475 CURVE SMOOTH",
"358 475 OFFCURVE",
"396 447 OFFCURVE",
"396 360 CURVE SMOOTH",
"396 296 LINE",
"194 296 OFFCURVE",
"48 282 OFFCURVE",
"48 133 CURVE SMOOTH",
"48 20 OFFCURVE",
"127 -10 OFFCURVE",
"209 -10 CURVE SMOOTH",
"291 -10 OFFCURVE",
"354 19 OFFCURVE",
"396 89 CURVE",
"396 34 OFFCURVE",
"409 -10 OFFCURVE",
"460 -10 CURVE SMOOTH",
"484 -10 OFFCURVE",
"506 -3 OFFCURVE",
"524 9 CURVE",
"524 52 LINE",
"509 43 OFFCURVE",
"489 36 OFFCURVE",
"474 36 CURVE SMOOTH",
"459 36 OFFCURVE",
"447 45 OFFCURVE",
"447 69 CURVE SMOOTH"
);
},
{
closed = 1;
nodes = (
"109 575 LINE",
"169 575 LINE",
"272 672 LINE",
"375 575 LINE",
"435 575 LINE",
"301 720 LINE",
"243 720 LINE"
);
}
);
};
layerId = "D4B4FEC9-7137-4CB7-86D3-564A65A82025";
name = Light;
paths = (
{
closed = 1;
nodes = (
"396 216 LINE SMOOTH",
"396 92 OFFCURVE",
"305 36 OFFCURVE",
"219 36 CURVE SMOOTH",
"134 36 OFFCURVE",
"99 66 OFFCURVE",
"99 132 CURVE SMOOTH",
"99 243 OFFCURVE",
"216 250 OFFCURVE",
"396 250 CURVE"
);
},
{
closed = 1;
nodes = (
"447 370 LINE SMOOTH",
"447 473 OFFCURVE",
"387 521 OFFCURVE",
"263 521 CURVE SMOOTH",
"153 521 OFFCURVE",
"66 471 OFFCURVE",
"66 381 CURVE SMOOTH",
"66 372 OFFCURVE",
"67 363 OFFCURVE",
"68 355 CURVE",
"117 355 LINE",
"117 371 LINE SMOOTH",
"117 446 OFFCURVE",
"181 475 OFFCURVE",
"263 475 CURVE SMOOTH",
"358 475 OFFCURVE",
"396 447 OFFCURVE",
"396 360 CURVE SMOOTH",
"396 296 LINE",
"194 296 OFFCURVE",
"48 282 OFFCURVE",
"48 133 CURVE SMOOTH",
"48 20 OFFCURVE",
"127 -10 OFFCURVE",
"209 -10 CURVE SMOOTH",
"291 -10 OFFCURVE",
"354 19 OFFCURVE",
"396 89 CURVE",
"396 34 OFFCURVE",
"409 -10 OFFCURVE",
"460 -10 CURVE SMOOTH",
"484 -10 OFFCURVE",
"506 -3 OFFCURVE",
"524 9 CURVE",
"524 52 LINE",
"509 43 OFFCURVE",
"489 36 OFFCURVE",
"474 36 CURVE SMOOTH",
"459 36 OFFCURVE",
"447 45 OFFCURVE",
"447 69 CURVE SMOOTH"
);
},
{
closed = 1;
nodes = (
"109 575 LINE",
"169 575 LINE",
"272 672 LINE",
"375 575 LINE",
"435 575 LINE",
"301 720 LINE",
"243 720 LINE"
);
}
);
width = 585;
}
);
unicode = 00E2;
},
{
glyphname = adieresis;
lastChange = "2014-09-05 18:36:13 +0000";
layers = (
{
background = {
paths = (
{
closed = 1;
nodes = (
"396 216 LINE SMOOTH",
"396 92 OFFCURVE",
"305 36 OFFCURVE",
"219 36 CURVE SMOOTH",
"134 36 OFFCURVE",
"99 66 OFFCURVE",
"99 132 CURVE SMOOTH",
"99 243 OFFCURVE",
"216 250 OFFCURVE",
"396 250 CURVE"
);
},
{
closed = 1;
nodes = (
"447 370 LINE SMOOTH",
"447 473 OFFCURVE",
"387 521 OFFCURVE",
"263 521 CURVE SMOOTH",
"153 521 OFFCURVE",
"66 471 OFFCURVE",
"66 381 CURVE SMOOTH",
"66 372 OFFCURVE",
"67 363 OFFCURVE",
"68 355 CURVE",
"117 355 LINE",
"117 371 LINE SMOOTH",
"117 446 OFFCURVE",
"181 475 OFFCURVE",
"263 475 CURVE SMOOTH",
"358 475 OFFCURVE",
"396 447 OFFCURVE",
"396 360 CURVE SMOOTH",
"396 296 LINE",
"194 296 OFFCURVE",
"48 282 OFFCURVE",
"48 133 CURVE SMOOTH",
"48 20 OFFCURVE",
"127 -10 OFFCURVE",
"209 -10 CURVE SMOOTH",
"291 -10 OFFCURVE",
"354 19 OFFCURVE",
"396 89 CURVE",
"396 34 OFFCURVE",
"409 -10 OFFCURVE",
"460 -10 CURVE SMOOTH",
"484 -10 OFFCURVE",
"506 -3 OFFCURVE",
"524 9 CURVE",
"524 52 LINE",
"509 43 OFFCURVE",
"489 36 OFFCURVE",
"474 36 CURVE SMOOTH",
"459 36 OFFCURVE",
"447 45 OFFCURVE",
"447 69 CURVE SMOOTH"
);
},
{
closed = 1;
nodes = (
"143 651 LINE",
"208 651 LINE",
"208 720 LINE",
"143 720 LINE"
);
},
{
closed = 1;
nodes = (
"319 651 LINE",
"384 651 LINE",
"384 720 LINE",
"319 720 LINE"
);
}
);
};
layerId = "D4B4FEC9-7137-4CB7-86D3-564A65A82025";
name = Light;
paths = (
{
closed = 1;
nodes = (
"396 216 LINE SMOOTH",
"396 92 OFFCURVE",
"305 36 OFFCURVE",
"219 36 CURVE SMOOTH",
"134 36 OFFCURVE",
"99 66 OFFCURVE",
"99 132 CURVE SMOOTH",
"99 243 OFFCURVE",
"216 250 OFFCURVE",
"396 250 CURVE"
);
},
{
closed = 1;
nodes = (
"447 370 LINE SMOOTH",
"447 473 OFFCURVE",
"387 521 OFFCURVE",
"263 521 CURVE SMOOTH",
"153 521 OFFCURVE",
"66 471 OFFCURVE",
"66 381 CURVE SMOOTH",
"66 372 OFFCURVE",
"67 363 OFFCURVE",
"68 355 CURVE",
"117 355 LINE",
"117 371 LINE SMOOTH",
"117 446 OFFCURVE",
"181 475 OFFCURVE",
"263 475 CURVE SMOOTH",
"358 475 OFFCURVE",
"396 447 OFFCURVE",
"396 360 CURVE SMOOTH",
"396 296 LINE",
"194 296 OFFCURVE",
"48 282 OFFCURVE",
"48 133 CURVE SMOOTH",
"48 20 OFFCURVE",
"127 -10 OFFCURVE",
"209 -10 CURVE SMOOTH",
"291 -10 OFFCURVE",
"354 19 OFFCURVE",
"396 89 CURVE",
"396 34 OFFCURVE",
"409 -10 OFFCURVE",
"460 -10 CURVE SMOOTH",
"484 -10 OFFCURVE",
"506 -3 OFFCURVE",
"524 9 CURVE",
"524 52 LINE",
"509 43 OFFCURVE",
"489 36 OFFCURVE",
"474 36 CURVE SMOOTH",
"459 36 OFFCURVE",
"447 45 OFFCURVE",
"447 69 CURVE SMOOTH"
);
},
{
closed = 1;
nodes = (
"143 651 LINE",
"208 651 LINE",
"208 720 LINE",
"143 720 LINE"
);
},
{
closed = 1;
nodes = (
"319 651 LINE",
"384 651 LINE",
"384 720 LINE",
"319 720 LINE"
);
}
);
width = 585;
}
);
unicode = 00E4;
},
{
glyphname = agrave;
lastChange = "2014-09-05 18:36:13 +0000";
layers = (
{
background = {
paths = (
{
closed = 1;
nodes = (
"396 216 LINE SMOOTH",
"396 92 OFFCURVE",
"305 36 OFFCURVE",
"219 36 CURVE SMOOTH",
"134 36 OFFCURVE",
"99 66 OFFCURVE",
"99 132 CURVE SMOOTH",
"99 243 OFFCURVE",
"216 250 OFFCURVE",
"396 250 CURVE"
);
},
{
closed = 1;
nodes = (
"447 370 LINE SMOOTH",
"447 473 OFFCURVE",
"387 521 OFFCURVE",
"263 521 CURVE SMOOTH",
"153 521 OFFCURVE",
"66 471 OFFCURVE",
"66 381 CURVE SMOOTH",
"66 372 OFFCURVE",
"67 363 OFFCURVE",
"68 355 CURVE",
"117 355 LINE",
"117 371 LINE SMOOTH",
"117 446 OFFCURVE",
"181 475 OFFCURVE",
"263 475 CURVE SMOOTH",
"358 475 OFFCURVE",
"396 447 OFFCURVE",
"396 360 CURVE SMOOTH",
"396 296 LINE",
"194 296 OFFCURVE",
"48 282 OFFCURVE",
"48 133 CURVE SMOOTH",
"48 20 OFFCURVE",
"127 -10 OFFCURVE",
"209 -10 CURVE SMOOTH",
"291 -10 OFFCURVE",
"354 19 OFFCURVE",
"396 89 CURVE",
"396 34 OFFCURVE",
"409 -10 OFFCURVE",
"460 -10 CURVE SMOOTH",
"484 -10 OFFCURVE",
"506 -3 OFFCURVE",
"524 9 CURVE",
"524 52 LINE",
"509 43 OFFCURVE",
"489 36 OFFCURVE",
"474 36 CURVE SMOOTH",
"459 36 OFFCURVE",
"447 45 OFFCURVE",
"447 69 CURVE SMOOTH"
);
},
{
closed = 1;
nodes = (
"300 575 LINE",
"204 720 LINE",
"139 720 LINE",
"139 717 LINE",
"250 575 LINE"
);
}
);
};
layerId = "D4B4FEC9-7137-4CB7-86D3-564A65A82025";
name = Light;
paths = (
{
closed = 1;
nodes = (
"396 216 LINE SMOOTH",
"396 92 OFFCURVE",
"305 36 OFFCURVE",
"219 36 CURVE SMOOTH",
"134 36 OFFCURVE",
"99 66 OFFCURVE",
"99 132 CURVE SMOOTH",
"99 243 OFFCURVE",
"216 250 OFFCURVE",
"396 250 CURVE"
);
},
{
closed = 1;
nodes = (
"447 370 LINE SMOOTH",
"447 473 OFFCURVE",
"387 521 OFFCURVE",
"263 521 CURVE SMOOTH",
"153 521 OFFCURVE",
"66 471 OFFCURVE",
"66 381 CURVE SMOOTH",
"66 372 OFFCURVE",
"67 363 OFFCURVE",
"68 355 CURVE",
"117 355 LINE",
"117 371 LINE SMOOTH",
"117 446 OFFCURVE",
"181 475 OFFCURVE",
"263 475 CURVE SMOOTH",
"358 475 OFFCURVE",
"396 447 OFFCURVE",
"396 360 CURVE SMOOTH",
"396 296 LINE",
"194 296 OFFCURVE",
"48 282 OFFCURVE",
"48 133 CURVE SMOOTH",
"48 20 OFFCURVE",
"127 -10 OFFCURVE",
"209 -10 CURVE SMOOTH",
"291 -10 OFFCURVE",
"354 19 OFFCURVE",
"396 89 CURVE",
"396 34 OFFCURVE",
"409 -10 OFFCURVE",
"460 -10 CURVE SMOOTH",
"484 -10 OFFCURVE",
"506 -3 OFFCURVE",
"524 9 CURVE",
"524 52 LINE",
"509 43 OFFCURVE",
"489 36 OFFCURVE",
"474 36 CURVE SMOOTH",
"459 36 OFFCURVE",
"447 45 OFFCURVE",
"447 69 CURVE SMOOTH"
);
},
{
closed = 1;
nodes = (
"300 575 LINE",
"204 720 LINE",
"139 720 LINE",
"139 717 LINE",
"250 575 LINE"
);
}
);
width = 585;
}
);
unicode = 00E0;
},
{
glyphname = aring;
lastChange = "2014-09-05 18:36:13 +0000";
layers = (
{
background = {
paths = (
{
closed = 1;
nodes = (
"396 216 LINE SMOOTH",
"396 92 OFFCURVE",
"305 36 OFFCURVE",
"219 36 CURVE SMOOTH",
"134 36 OFFCURVE",
"99 66 OFFCURVE",
"99 132 CURVE SMOOTH",
"99 243 OFFCURVE",
"216 250 OFFCURVE",
"396 250 CURVE"
);
},
{
closed = 1;
nodes = (
"447 370 LINE SMOOTH",
"447 473 OFFCURVE",
"387 521 OFFCURVE",
"263 521 CURVE SMOOTH",
"153 521 OFFCURVE",
"66 471 OFFCURVE",
"66 381 CURVE SMOOTH",
"66 372 OFFCURVE",
"67 363 OFFCURVE",
"68 355 CURVE",
"117 355 LINE",
"117 371 LINE SMOOTH",
"117 446 OFFCURVE",
"181 475 OFFCURVE",
"263 475 CURVE SMOOTH",
"358 475 OFFCURVE",
"396 447 OFFCURVE",
"396 360 CURVE SMOOTH",
"396 296 LINE",
"194 296 OFFCURVE",
"48 282 OFFCURVE",
"48 133 CURVE SMOOTH",
"48 20 OFFCURVE",
"127 -10 OFFCURVE",
"209 -10 CURVE SMOOTH",
"291 -10 OFFCURVE",
"354 19 OFFCURVE",
"396 89 CURVE",
"396 34 OFFCURVE",
"409 -10 OFFCURVE",
"460 -10 CURVE SMOOTH",
"484 -10 OFFCURVE",
"506 -3 OFFCURVE",
"524 9 CURVE",
"524 52 LINE",
"509 43 OFFCURVE",
"489 36 OFFCURVE",
"474 36 CURVE SMOOTH",
"459 36 OFFCURVE",
"447 45 OFFCURVE",
"447 69 CURVE SMOOTH"
);
},
{
closed = 1;
nodes = (
"365 712 OFFCURVE",
"319 756 OFFCURVE",
"264 756 CURVE SMOOTH",
"208 756 OFFCURVE",
"163 711 OFFCURVE",
"163 655 CURVE SMOOTH",
"163 599 OFFCURVE",
"209 555 OFFCURVE",
"264 555 CURVE SMOOTH",
"320 555 OFFCURVE",
"365 600 OFFCURVE",
"365 655 CURVE SMOOTH"
);
},
{
closed = 1;
nodes = (
"329 620 OFFCURVE",
"300 591 OFFCURVE",
"264 591 CURVE SMOOTH",
"229 591 OFFCURVE",
"199 619 OFFCURVE",
"199 655 CURVE SMOOTH",
"199 691 OFFCURVE",
"228 720 OFFCURVE",
"264 720 CURVE SMOOTH",
"299 720 OFFCURVE",
"329 692 OFFCURVE",
"329 655 CURVE SMOOTH"
);
}
);
};
layerId = "D4B4FEC9-7137-4CB7-86D3-564A65A82025";
name = Light;
paths = (
{
closed = 1;
nodes = (
"396 216 LINE SMOOTH",
"396 92 OFFCURVE",
"305 36 OFFCURVE",
"219 36 CURVE SMOOTH",
"134 36 OFFCURVE",
"99 66 OFFCURVE",
"99 132 CURVE SMOOTH",
"99 243 OFFCURVE",
"216 250 OFFCURVE",
"396 250 CURVE"
);
},
{
closed = 1;
nodes = (
"447 370 LINE SMOOTH",
"447 473 OFFCURVE",
"387 521 OFFCURVE",
"263 521 CURVE SMOOTH",
"153 521 OFFCURVE",
"66 471 OFFCURVE",
"66 381 CURVE SMOOTH",
"66 372 OFFCURVE",
"67 363 OFFCURVE",
"68 355 CURVE",
"117 355 LINE",
"117 371 LINE SMOOTH",
"117 446 OFFCURVE",
"181 475 OFFCURVE",
"263 475 CURVE SMOOTH",
"358 475 OFFCURVE",
"396 447 OFFCURVE",
"396 360 CURVE SMOOTH",
"396 296 LINE",
"194 296 OFFCURVE",
"48 282 OFFCURVE",
"48 133 CURVE SMOOTH",
"48 20 OFFCURVE",
"127 -10 OFFCURVE",
"209 -10 CURVE SMOOTH",
"291 -10 OFFCURVE",
"354 19 OFFCURVE",
"396 89 CURVE",
"396 34 OFFCURVE",
"409 -10 OFFCURVE",
"460 -10 CURVE SMOOTH",
"484 -10 OFFCURVE",
"506 -3 OFFCURVE",
"524 9 CURVE",
"524 52 LINE",
"509 43 OFFCURVE",
"489 36 OFFCURVE",
"474 36 CURVE SMOOTH",
"459 36 OFFCURVE",
"447 45 OFFCURVE",
"447 69 CURVE SMOOTH"
);
},
{
closed = 1;
nodes = (
"365 712 OFFCURVE",
"319 756 OFFCURVE",
"264 756 CURVE SMOOTH",
"208 756 OFFCURVE",
"163 711 OFFCURVE",
"163 655 CURVE SMOOTH",
"163 599 OFFCURVE",
"209 555 OFFCURVE",
"264 555 CURVE SMOOTH",
"320 555 OFFCURVE",
"365 600 OFFCURVE",
"365 655 CURVE SMOOTH"
);
},
{
closed = 1;
nodes = (
"329 620 OFFCURVE",
"300 591 OFFCURVE",
"264 591 CURVE SMOOTH",
"229 591 OFFCURVE",
"199 619 OFFCURVE",
"199 655 CURVE SMOOTH",
"199 691 OFFCURVE",
"228 720 OFFCURVE",
"264 720 CURVE SMOOTH",
"299 720 OFFCURVE",
"329 692 OFFCURVE",
"329 655 CURVE SMOOTH"
);
}
);
width = 585;
}
);
unicode = 00E5;
},
{
glyphname = atilde;
lastChange = "2014-09-05 18:36:13 +0000";
layers = (
{
background = {
paths = (
{
closed = 1;
nodes = (
"396 216 LINE SMOOTH",
"396 92 OFFCURVE",
"305 36 OFFCURVE",
"219 36 CURVE SMOOTH",
"134 36 OFFCURVE",
"99 66 OFFCURVE",
"99 132 CURVE SMOOTH",
"99 243 OFFCURVE",
"216 250 OFFCURVE",
"396 250 CURVE"
);
},
{
closed = 1;
nodes = (
"447 370 LINE SMOOTH",
"447 473 OFFCURVE",
"387 521 OFFCURVE",
"263 521 CURVE SMOOTH",
"153 521 OFFCURVE",
"66 471 OFFCURVE",
"66 381 CURVE SMOOTH",
"66 372 OFFCURVE",
"67 363 OFFCURVE",
"68 355 CURVE",
"117 355 LINE",
"117 371 LINE SMOOTH",
"117 446 OFFCURVE",
"181 475 OFFCURVE",
"263 475 CURVE SMOOTH",
"358 475 OFFCURVE",
"396 447 OFFCURVE",
"396 360 CURVE SMOOTH",
"396 296 LINE",
"194 296 OFFCURVE",
"48 282 OFFCURVE",
"48 133 CURVE SMOOTH",
"48 20 OFFCURVE",
"127 -10 OFFCURVE",
"209 -10 CURVE SMOOTH",
"291 -10 OFFCURVE",
"354 19 OFFCURVE",
"396 89 CURVE",
"396 34 OFFCURVE",
"409 -10 OFFCURVE",
"460 -10 CURVE SMOOTH",
"484 -10 OFFCURVE",
"506 -3 OFFCURVE",
"524 9 CURVE",
"524 52 LINE",
"509 43 OFFCURVE",
"489 36 OFFCURVE",
"474 36 CURVE SMOOTH",
"459 36 OFFCURVE",
"447 45 OFFCURVE",
"447 69 CURVE SMOOTH"
);
},
{
closed = 1;
nodes = (
"406 720 LINE",
"399 697 OFFCURVE",
"382 688 OFFCURVE",
"349 688 CURVE SMOOTH",
"295 688 OFFCURVE",
"246 720 OFFCURVE",
"182 720 CURVE SMOOTH",
"104 720 OFFCURVE",
"81 670 OFFCURVE",
"81 638 CURVE",
"118 638 LINE",
"125 661 OFFCURVE",
"142 670 OFFCURVE",
"175 670 CURVE SMOOTH",
"229 670 OFFCURVE",
"278 638 OFFCURVE",
"342 638 CURVE SMOOTH",
"421 638 OFFCURVE",
"443 688 OFFCURVE",
"443 720 CURVE"
);
}
);
};
layerId = "D4B4FEC9-7137-4CB7-86D3-564A65A82025";
name = Light;
paths = (
{
closed = 1;
nodes = (
"396 216 LINE SMOOTH",
"396 92 OFFCURVE",
"305 36 OFFCURVE",
"219 36 CURVE SMOOTH",
"134 36 OFFCURVE",
"99 66 OFFCURVE",
"99 132 CURVE SMOOTH",
"99 243 OFFCURVE",
"216 250 OFFCURVE",
"396 250 CURVE"
);
},
{
closed = 1;
nodes = (
"447 370 LINE SMOOTH",
"447 473 OFFCURVE",
"387 521 OFFCURVE",
"263 521 CURVE SMOOTH",
"153 521 OFFCURVE",
"66 471 OFFCURVE",
"66 381 CURVE SMOOTH",
"66 372 OFFCURVE",
"67 363 OFFCURVE",
"68 355 CURVE",
"117 355 LINE",
"117 371 LINE SMOOTH",
"117 446 OFFCURVE",
"181 475 OFFCURVE",
"263 475 CURVE SMOOTH",
"358 475 OFFCURVE",
"396 447 OFFCURVE",
"396 360 CURVE SMOOTH",
"396 296 LINE",
"194 296 OFFCURVE",
"48 282 OFFCURVE",
"48 133 CURVE SMOOTH",
"48 20 OFFCURVE",
"127 -10 OFFCURVE",
"209 -10 CURVE SMOOTH",
"291 -10 OFFCURVE",
"354 19 OFFCURVE",
"396 89 CURVE",
"396 34 OFFCURVE",
"409 -10 OFFCURVE",
"460 -10 CURVE SMOOTH",
"484 -10 OFFCURVE",
"506 -3 OFFCURVE",
"524 9 CURVE",
"524 52 LINE",
"509 43 OFFCURVE",
"489 36 OFFCURVE",
"474 36 CURVE SMOOTH",
"459 36 OFFCURVE",
"447 45 OFFCURVE",
"447 69 CURVE SMOOTH"
);
},
{
closed = 1;
nodes = (
"406 720 LINE",
"399 697 OFFCURVE",
"382 688 OFFCURVE",
"349 688 CURVE SMOOTH",
"295 688 OFFCURVE",
"246 720 OFFCURVE",
"182 720 CURVE SMOOTH",
"104 720 OFFCURVE",
"81 670 OFFCURVE",
"81 638 CURVE",
"118 638 LINE",
"125 661 OFFCURVE",
"142 670 OFFCURVE",
"175 670 CURVE SMOOTH",
"229 670 OFFCURVE",
"278 638 OFFCURVE",
"342 638 CURVE SMOOTH",
"421 638 OFFCURVE",
"443 688 OFFCURVE",
"443 720 CURVE"
);
}
);
width = 585;
}
);
unicode = 00E3;
},
{
glyphname = ae;
lastChange = "2014-09-05 18:36:13 +0000";
layers = (
{
anchors = (
{
name = top;
position = "{448, 511}";
}
);
background = {
anchors = (
{
name = top;
position = "{448, 511}";
}
);
paths = (
{
closed = 1;
nodes = (
"759 189 LINE",
"759 84 OFFCURVE",
"689 36 OFFCURVE",
"610 36 CURVE SMOOTH",
"518 36 OFFCURVE",
"447 103 OFFCURVE",
"447 242 CURVE SMOOTH",
"447 250 LINE",
"809 250 LINE",
"809 314 LINE SMOOTH",
"809 447 OFFCURVE",
"721 521 OFFCURVE",
"609 521 CURVE SMOOTH",
"536 521 OFFCURVE",
"476 489 OFFCURVE",
"438 430 CURVE",
"417 492 OFFCURVE",
"359 521 OFFCURVE",
"263 521 CURVE SMOOTH",
"153 521 OFFCURVE",
"66 471 OFFCURVE",
"66 381 CURVE SMOOTH",
"66 372 OFFCURVE",
"67 363 OFFCURVE",
"68 355 CURVE",
"117 355 LINE",
"117 371 LINE SMOOTH",
"117 446 OFFCURVE",
"181 475 OFFCURVE",
"263 475 CURVE SMOOTH",
"358 475 OFFCURVE",
"396 447 OFFCURVE",
"396 360 CURVE SMOOTH",
"396 296 LINE",
"194 296 OFFCURVE",
"48 282 OFFCURVE",
"48 133 CURVE SMOOTH",
"48 20 OFFCURVE",
"119 -10 OFFCURVE",
"209 -10 CURVE SMOOTH",
"286 -10 OFFCURVE",
"377 22 OFFCURVE",
"420 115 CURVE",
"455 34 OFFCURVE",
"523 -10 OFFCURVE",
"610 -10 CURVE SMOOTH",
"720 -10 OFFCURVE",
"809 61 OFFCURVE",
"809 189 CURVE"
);
},
{
closed = 1;
nodes = (
"396 216 LINE SMOOTH",
"396 92 OFFCURVE",
"305 36 OFFCURVE",
"219 36 CURVE SMOOTH",
"128 36 OFFCURVE",
"99 66 OFFCURVE",
"99 132 CURVE SMOOTH",
"99 243 OFFCURVE",
"216 250 OFFCURVE",
"396 250 CURVE"
);
},
{
closed = 1;
nodes = (
"691 475 OFFCURVE",
"759 423 OFFCURVE",
"759 314 CURVE SMOOTH",
"759 296 LINE",
"448 296 LINE",
"456 416 OFFCURVE",
"523 475 OFFCURVE",
"609 475 CURVE SMOOTH"
);
}
);
};
layerId = "D4B4FEC9-7137-4CB7-86D3-564A65A82025";
name = Light;
paths = (
{
closed = 1;
nodes = (
"759 189 LINE",
"759 84 OFFCURVE",
"689 36 OFFCURVE",
"610 36 CURVE SMOOTH",
"518 36 OFFCURVE",
"447 103 OFFCURVE",
"447 242 CURVE SMOOTH",
"447 250 LINE",
"809 250 LINE",
"809 314 LINE SMOOTH",
"809 447 OFFCURVE",
"721 521 OFFCURVE",
"609 521 CURVE SMOOTH",
"536 521 OFFCURVE",
"476 489 OFFCURVE",
"438 430 CURVE",
"417 492 OFFCURVE",
"359 521 OFFCURVE",
"263 521 CURVE SMOOTH",
"153 521 OFFCURVE",
"66 471 OFFCURVE",
"66 381 CURVE SMOOTH",
"66 372 OFFCURVE",
"67 363 OFFCURVE",
"68 355 CURVE",
"117 355 LINE",
"117 371 LINE SMOOTH",
"117 446 OFFCURVE",
"181 475 OFFCURVE",
"263 475 CURVE SMOOTH",
"358 475 OFFCURVE",
"396 447 OFFCURVE",
"396 360 CURVE SMOOTH",
"396 296 LINE",
"194 296 OFFCURVE",
"48 282 OFFCURVE",
"48 133 CURVE SMOOTH",
"48 20 OFFCURVE",
"119 -10 OFFCURVE",
"209 -10 CURVE SMOOTH",
"286 -10 OFFCURVE",
"377 22 OFFCURVE",
"420 115 CURVE",
"455 34 OFFCURVE",
"523 -10 OFFCURVE",
"610 -10 CURVE SMOOTH",
"720 -10 OFFCURVE",
"809 61 OFFCURVE",
"809 189 CURVE"
);
},
{
closed = 1;
nodes = (
"396 216 LINE SMOOTH",
"396 92 OFFCURVE",
"305 36 OFFCURVE",
"219 36 CURVE SMOOTH",
"128 36 OFFCURVE",
"99 66 OFFCURVE",
"99 132 CURVE SMOOTH",
"99 243 OFFCURVE",
"216 250 OFFCURVE",
"396 250 CURVE"
);
},
{
closed = 1;
nodes = (
"691 475 OFFCURVE",
"759 423 OFFCURVE",
"759 314 CURVE SMOOTH",
"759 296 LINE",
"448 296 LINE",
"456 416 OFFCURVE",
"523 475 OFFCURVE",
"609 475 CURVE SMOOTH"
);
}
);
width = 895;
}
);
unicode = 00E6;
},
{
glyphname = b;
lastChange = "2014-09-05 18:36:13 +0000";
layers = (
{
background = {
paths = (
{
closed = 1;
nodes = (
"134 720 LINE",
"83 720 LINE",
"83 0 LINE",
"104 0 LINE",
"123 85 LINE",
"161 21 OFFCURVE",
"219 -10 OFFCURVE",
"297 -10 CURVE SMOOTH",
"409 -10 OFFCURVE",
"500 70 OFFCURVE",
"500 260 CURVE SMOOTH",
"500 271 LINE SMOOTH",
"500 433 OFFCURVE",
"409 521 OFFCURVE",
"297 521 CURVE SMOOTH",
"225 521 OFFCURVE",
"167 490 OFFCURVE",
"134 440 CURVE"
);
},
{
closed = 1;
nodes = (
"133 269 LINE SMOOTH",
"133 413 OFFCURVE",
"205 475 OFFCURVE",
"292 475 CURVE SMOOTH",
"379 475 OFFCURVE",
"449 412 OFFCURVE",
"449 269 CURVE SMOOTH",
"449 258 LINE SMOOTH",
"449 92 OFFCURVE",
"379 36 OFFCURVE",
"292 36 CURVE SMOOTH",
"206 36 OFFCURVE",
"133 88 OFFCURVE",
"133 257 CURVE SMOOTH"
);
}
);
};
layerId = "D4B4FEC9-7137-4CB7-86D3-564A65A82025";
name = Light;
paths = (
{
closed = 1;
nodes = (
"134 720 LINE",
"83 720 LINE",
"83 0 LINE",
"104 0 LINE",
"123 85 LINE",
"161 21 OFFCURVE",
"219 -10 OFFCURVE",
"297 -10 CURVE SMOOTH",
"409 -10 OFFCURVE",
"500 70 OFFCURVE",
"500 260 CURVE SMOOTH",
"500 271 LINE SMOOTH",
"500 433 OFFCURVE",
"409 521 OFFCURVE",
"297 521 CURVE SMOOTH",
"225 521 OFFCURVE",
"167 490 OFFCURVE",
"134 440 CURVE"
);
},
{
closed = 1;
nodes = (
"133 269 LINE SMOOTH",
"133 413 OFFCURVE",
"205 475 OFFCURVE",
"292 475 CURVE SMOOTH",
"379 475 OFFCURVE",
"449 412 OFFCURVE",
"449 269 CURVE SMOOTH",
"449 258 LINE SMOOTH",
"449 92 OFFCURVE",
"379 36 OFFCURVE",
"292 36 CURVE SMOOTH",
"206 36 OFFCURVE",
"133 88 OFFCURVE",
"133 257 CURVE SMOOTH"
);
}
);
width = 583;
}
);
unicode = 0062;
},
{
glyphname = c;
lastChange = "2014-09-05 19:08:44 +0000";
layers = (
{
anchors = (
{
name = bottom;
position = "{272, 0}";
},
{
name = top;
position = "{262, 511}";
}
);
background = {
anchors = (
{
name = top;
position = "{272, 511}";
},
{
name = bottom;
position = "{272, 0}";
}
);
paths = (
{
closed = 1;
nodes = (
"414 197 LINE",
"414 86 OFFCURVE",
"346 36 OFFCURVE",
"265 36 CURVE SMOOTH",
"173 36 OFFCURVE",
"102 103 OFFCURVE",
"102 242 CURVE SMOOTH",
"102 269 LINE SMOOTH",
"102 408 OFFCURVE",
"172 475 OFFCURVE",
"264 475 CURVE SMOOTH",
"346 475 OFFCURVE",
"414 423 OFFCURVE",
"414 314 CURVE",
"464 314 LINE",
"464 447 OFFCURVE",
"376 521 OFFCURVE",
"264 521 CURVE SMOOTH",
"138 521 OFFCURVE",
"51 428 OFFCURVE",
"51 263 CURVE SMOOTH",
"51 248 LINE SMOOTH",
"51 83 OFFCURVE",
"139 -10 OFFCURVE",
"265 -10 CURVE SMOOTH",
"377 -10 OFFCURVE",
"464 64 OFFCURVE",
"464 197 CURVE"
);
}
);
};
layerId = "D4B4FEC9-7137-4CB7-86D3-564A65A82025";
name = Light;
paths = (
{
closed = 1;
nodes = (
"414 197 LINE",
"414 86 OFFCURVE",
"346 36 OFFCURVE",
"265 36 CURVE SMOOTH",
"173 36 OFFCURVE",
"102 103 OFFCURVE",
"102 242 CURVE SMOOTH",
"102 269 LINE SMOOTH",
"102 408 OFFCURVE",
"172 475 OFFCURVE",
"264 475 CURVE SMOOTH",
"346 475 OFFCURVE",
"414 423 OFFCURVE",
"414 314 CURVE",
"464 314 LINE",
"464 447 OFFCURVE",
"376 521 OFFCURVE",
"264 521 CURVE SMOOTH",
"138 521 OFFCURVE",
"51 428 OFFCURVE",
"51 263 CURVE SMOOTH",
"51 248 LINE SMOOTH",
"51 83 OFFCURVE",
"139 -10 OFFCURVE",
"265 -10 CURVE SMOOTH",
"377 -10 OFFCURVE",
"464 64 OFFCURVE",
"464 197 CURVE"
);
}
);
width = 544;
}
);
unicode = 0063;
},
{
glyphname = ccedilla;
lastChange = "2014-09-05 18:36:13 +0000";
layers = (
{
background = {
paths = (
{
closed = 1;
nodes = (
"414 197 LINE",
"414 86 OFFCURVE",
"346 36 OFFCURVE",
"265 36 CURVE SMOOTH",
"173 36 OFFCURVE",
"102 103 OFFCURVE",
"102 242 CURVE SMOOTH",
"102 269 LINE SMOOTH",
"102 408 OFFCURVE",
"172 475 OFFCURVE",
"264 475 CURVE SMOOTH",
"346 475 OFFCURVE",
"414 423 OFFCURVE",
"414 314 CURVE",
"464 314 LINE",
"464 447 OFFCURVE",
"376 521 OFFCURVE",
"264 521 CURVE SMOOTH",
"138 521 OFFCURVE",
"51 428 OFFCURVE",
"51 263 CURVE SMOOTH",
"51 248 LINE SMOOTH",
"51 83 OFFCURVE",
"139 -10 OFFCURVE",
"265 -10 CURVE SMOOTH",
"377 -10 OFFCURVE",
"464 64 OFFCURVE",
"464 197 CURVE"
);
},
{
closed = 1;
nodes = (
"166 -184 LINE",
"190 -193 OFFCURVE",
"219 -197 OFFCURVE",
"244 -197 CURVE SMOOTH",
"290 -197 OFFCURVE",
"362 -179 OFFCURVE",
"362 -106 CURVE SMOOTH",
"362 -37 OFFCURVE",
"310 -17 OFFCURVE",
"256 -17 CURVE SMOOTH",
"256 -17 OFFCURVE",
"239 -17 OFFCURVE",
"231 -17 CURVE",
"231 -51 LINE",
"253 -51 LINE SMOOTH",
"280 -51 OFFCURVE",
"311 -66 OFFCURVE",
"311 -97 CURVE SMOOTH",
"311 -140 OFFCURVE",
"272 -151 OFFCURVE",
"235 -151 CURVE SMOOTH",
"202 -151 OFFCURVE",
"179 -145 OFFCURVE",
"166 -138 CURVE"
);
}
);
};
layerId = "D4B4FEC9-7137-4CB7-86D3-564A65A82025";
name = Light;
paths = (
{
closed = 1;
nodes = (
"414 197 LINE",
"414 86 OFFCURVE",
"346 36 OFFCURVE",
"265 36 CURVE SMOOTH",
"173 36 OFFCURVE",
"102 103 OFFCURVE",
"102 242 CURVE SMOOTH",
"102 269 LINE SMOOTH",
"102 408 OFFCURVE",
"172 475 OFFCURVE",
"264 475 CURVE SMOOTH",
"346 475 OFFCURVE",
"414 423 OFFCURVE",
"414 314 CURVE",
"464 314 LINE",
"464 447 OFFCURVE",
"376 521 OFFCURVE",
"264 521 CURVE SMOOTH",
"138 521 OFFCURVE",
"51 428 OFFCURVE",
"51 263 CURVE SMOOTH",
"51 248 LINE SMOOTH",
"51 83 OFFCURVE",
"139 -10 OFFCURVE",
"265 -10 CURVE SMOOTH",
"377 -10 OFFCURVE",
"464 64 OFFCURVE",
"464 197 CURVE"
);
},
{
closed = 1;
nodes = (
"166 -184 LINE",
"190 -193 OFFCURVE",
"219 -197 OFFCURVE",
"244 -197 CURVE SMOOTH",
"290 -197 OFFCURVE",
"362 -179 OFFCURVE",
"362 -106 CURVE SMOOTH",
"362 -37 OFFCURVE",
"310 -17 OFFCURVE",
"256 -17 CURVE SMOOTH",
"256 -17 OFFCURVE",
"239 -17 OFFCURVE",
"231 -17 CURVE",
"231 -51 LINE",
"253 -51 LINE SMOOTH",
"280 -51 OFFCURVE",
"311 -66 OFFCURVE",
"311 -97 CURVE SMOOTH",
"311 -140 OFFCURVE",
"272 -151 OFFCURVE",
"235 -151 CURVE SMOOTH",
"202 -151 OFFCURVE",
"179 -145 OFFCURVE",
"166 -138 CURVE"
);
}
);
width = 544;
}
);
unicode = 00E7;
},
{
glyphname = d;
lastChange = "2014-09-08 21:29:20 +0000";
layers = (
{
anchors = (
{
name = center;
position = "{292, 256}";
},
{
name = topright;
position = "{563, 686}";
}
);
background = {
anchors = (
{
name = center;
position = "{292, 256}";
},
{
name = topright;
position = "{563, 511}";
}
);
paths = (
{
closed = 1;
nodes = (
"435 0 LINE",
"469 0 LINE",
"469 720 LINE",
"418 720 LINE",
"418 440 LINE",
"385 490 OFFCURVE",
"327 521 OFFCURVE",
"255 521 CURVE SMOOTH",
"143 521 OFFCURVE",
"52 433 OFFCURVE",
"52 271 CURVE SMOOTH",
"52 260 LINE SMOOTH",
"52 70 OFFCURVE",
"143 -10 OFFCURVE",
"255 -10 CURVE SMOOTH",
"330 -10 OFFCURVE",
"386 18 OFFCURVE",
"424 77 CURVE"
);
},
{
closed = 1;
nodes = (
"419 257 LINE SMOOTH",
"419 88 OFFCURVE",
"346 36 OFFCURVE",
"260 36 CURVE SMOOTH",
"173 36 OFFCURVE",
"103 92 OFFCURVE",
"103 258 CURVE SMOOTH",
"103 269 LINE SMOOTH",
"103 412 OFFCURVE",
"173 475 OFFCURVE",
"260 475 CURVE SMOOTH",
"347 475 OFFCURVE",
"419 413 OFFCURVE",
"419 269 CURVE SMOOTH"
);
}
);
};
layerId = "D4B4FEC9-7137-4CB7-86D3-564A65A82025";
name = Light;
paths = (
{
closed = 1;
nodes = (
"435 0 LINE",
"469 0 LINE",
"469 720 LINE",
"418 720 LINE",
"418 440 LINE",
"385 490 OFFCURVE",
"327 521 OFFCURVE",
"255 521 CURVE SMOOTH",
"143 521 OFFCURVE",
"52 433 OFFCURVE",
"52 271 CURVE SMOOTH",
"52 260 LINE SMOOTH",
"52 70 OFFCURVE",
"143 -10 OFFCURVE",
"255 -10 CURVE SMOOTH",
"330 -10 OFFCURVE",
"386 18 OFFCURVE",
"424 77 CURVE"
);
},
{
closed = 1;
nodes = (
"419 257 LINE SMOOTH",
"419 88 OFFCURVE",
"346 36 OFFCURVE",
"260 36 CURVE SMOOTH",
"173 36 OFFCURVE",
"103 92 OFFCURVE",
"103 258 CURVE SMOOTH",
"103 269 LINE SMOOTH",
"103 412 OFFCURVE",
"173 475 OFFCURVE",
"260 475 CURVE SMOOTH",
"347 475 OFFCURVE",
"419 413 OFFCURVE",
"419 269 CURVE SMOOTH"
);
}
);
width = 583;
}
);
unicode = 0064;
},
{
glyphname = eth;
lastChange = "2014-09-05 18:36:13 +0000";
layers = (
{
background = {
paths = (
{
closed = 1;
nodes = (
"111 707 LINE",
"135 691 OFFCURVE",
"168 669 OFFCURVE",
"203 642 CURVE",
"102 593 LINE",
"128 570 LINE",
"230 620 LINE",
"269 587 OFFCURVE",
"309 549 OFFCURVE",
"343 508 CURVE",
"320 516 OFFCURVE",
"295 521 OFFCURVE",
"268 521 CURVE SMOOTH",
"142 521 OFFCURVE",
"52 428 OFFCURVE",
"52 263 CURVE SMOOTH",
"52 248 LINE SMOOTH",
"52 83 OFFCURVE",
"142 -10 OFFCURVE",
"268 -10 CURVE SMOOTH",
"394 -10 OFFCURVE",
"484 83 OFFCURVE",
"484 248 CURVE SMOOTH",
"484 263 LINE SMOOTH",
"484 422 OFFCURVE",
"387 550 OFFCURVE",
"271 640 CURVE",
"370 688 LINE",
"347 711 LINE",
"243 661 LINE",
"211 684 OFFCURVE",
"178 705 OFFCURVE",
"148 724 CURVE"
);
},
{
closed = 1;
nodes = (
"176 36 OFFCURVE",
"103 103 OFFCURVE",
"103 242 CURVE SMOOTH",
"103 269 LINE SMOOTH",
"103 408 OFFCURVE",
"176 475 OFFCURVE",
"268 475 CURVE SMOOTH",
"360 475 OFFCURVE",
"433 408 OFFCURVE",
"433 269 CURVE SMOOTH",
"433 242 LINE SMOOTH",
"433 103 OFFCURVE",
"360 36 OFFCURVE",
"268 36 CURVE SMOOTH"
);
}
);
};
layerId = "D4B4FEC9-7137-4CB7-86D3-564A65A82025";
name = Light;
paths = (
{
closed = 1;
nodes = (
"111 707 LINE",
"135 691 OFFCURVE",
"168 669 OFFCURVE",
"203 642 CURVE",
"102 593 LINE",
"128 570 LINE",
"230 620 LINE",
"269 587 OFFCURVE",
"309 549 OFFCURVE",
"343 508 CURVE",
"320 516 OFFCURVE",
"295 521 OFFCURVE",
"268 521 CURVE SMOOTH",
"142 521 OFFCURVE",
"52 428 OFFCURVE",
"52 263 CURVE SMOOTH",
"52 248 LINE SMOOTH",
"52 83 OFFCURVE",
"142 -10 OFFCURVE",
"268 -10 CURVE SMOOTH",
"394 -10 OFFCURVE",
"484 83 OFFCURVE",
"484 248 CURVE SMOOTH",
"484 263 LINE SMOOTH",
"484 422 OFFCURVE",
"387 550 OFFCURVE",
"271 640 CURVE",
"370 688 LINE",
"347 711 LINE",
"243 661 LINE",
"211 684 OFFCURVE",
"178 705 OFFCURVE",
"148 724 CURVE"
);
},
{
closed = 1;
nodes = (
"176 36 OFFCURVE",
"103 103 OFFCURVE",
"103 242 CURVE SMOOTH",
"103 269 LINE SMOOTH",
"103 408 OFFCURVE",
"176 475 OFFCURVE",
"268 475 CURVE SMOOTH",
"360 475 OFFCURVE",
"433 408 OFFCURVE",
"433 269 CURVE SMOOTH",
"433 242 LINE SMOOTH",
"433 103 OFFCURVE",
"360 36 OFFCURVE",
"268 36 CURVE SMOOTH"
);
}
);
width = 575;
}
);
unicode = 00F0;
},
{
color = 3;
glyphname = dcroat;
lastChange = "2014-09-09 17:33:49 +0000";
layers = (
{
components = (
{
name = d;
transform = "{1, 0, 0, 1, 0, 0}";
}
);
layerId = "D4B4FEC9-7137-4CB7-86D3-564A65A82025";
name = Light;
paths = (
{
closed = 1;
nodes = (
"559 623 LINE",
"559 666 LINE",
"241 666 LINE",
"241 623 LINE"
);
}
);
width = 583;
}
);
unicode = 0111;
},
{
glyphname = e;
lastChange = "2014-09-09 18:13:56 +0000";
layers = (
{
anchors = (
{
name = bottom;
position = "{278, 0}";
},
{
name = ogonek;
position = "{340, 10}";
},
{
name = top;
position = "{278, 511}";
}
);
background = {
anchors = (
{
name = top;
position = "{278, 511}";
},
{
name = bottom;
position = "{278, 0}";
},
{
name = ogonek;
position = "{500, 10}";
}
);
paths = (
{
closed = 1;
nodes = (
"414 189 LINE",
"414 84 OFFCURVE",
"344 36 OFFCURVE",
"265 36 CURVE SMOOTH",
"173 36 OFFCURVE",
"102 103 OFFCURVE",
"102 242 CURVE SMOOTH",
"102 250 LINE",
"464 250 LINE",
"464 314 LINE SMOOTH",
"464 447 OFFCURVE",
"376 521 OFFCURVE",
"264 521 CURVE SMOOTH",
"138 521 OFFCURVE",
"51 428 OFFCURVE",
"51 263 CURVE SMOOTH",
"51 248 LINE SMOOTH",
"51 83 OFFCURVE",
"139 -10 OFFCURVE",
"265 -10 CURVE SMOOTH",
"375 -10 OFFCURVE",
"464 61 OFFCURVE",
"464 189 CURVE"
);
},
{
closed = 1;
nodes = (
"346 475 OFFCURVE",
"414 423 OFFCURVE",
"414 314 CURVE SMOOTH",
"414 296 LINE",
"103 296 LINE",
"111 416 OFFCURVE",
"178 475 OFFCURVE",
"264 475 CURVE SMOOTH"
);
}
);
};
layerId = "D4B4FEC9-7137-4CB7-86D3-564A65A82025";
name = Light;
paths = (
{
closed = 1;
nodes = (
"414 189 LINE",
"414 84 OFFCURVE",
"344 36 OFFCURVE",
"265 36 CURVE SMOOTH",
"173 36 OFFCURVE",
"102 103 OFFCURVE",
"102 242 CURVE SMOOTH",
"102 250 LINE",
"464 250 LINE",
"464 314 LINE SMOOTH",
"464 447 OFFCURVE",
"376 521 OFFCURVE",
"264 521 CURVE SMOOTH",
"138 521 OFFCURVE",
"51 428 OFFCURVE",
"51 263 CURVE SMOOTH",
"51 248 LINE SMOOTH",
"51 83 OFFCURVE",
"139 -10 OFFCURVE",
"265 -10 CURVE SMOOTH",
"375 -10 OFFCURVE",
"464 61 OFFCURVE",
"464 189 CURVE"
);
},
{
closed = 1;
nodes = (
"346 475 OFFCURVE",
"414 423 OFFCURVE",
"414 314 CURVE SMOOTH",
"414 296 LINE",
"103 296 LINE",
"111 416 OFFCURVE",
"178 475 OFFCURVE",
"264 475 CURVE SMOOTH"
);
}
);
width = 556;
}
);
unicode = 0065;
},
{
glyphname = eacute;
lastChange = "2014-09-05 18:36:13 +0000";
layers = (
{
background = {
paths = (
{
closed = 1;
nodes = (
"414 189 LINE",
"414 84 OFFCURVE",
"344 36 OFFCURVE",
"265 36 CURVE SMOOTH",
"173 36 OFFCURVE",
"102 103 OFFCURVE",
"102 242 CURVE SMOOTH",
"102 250 LINE",
"464 250 LINE",
"464 314 LINE SMOOTH",
"464 447 OFFCURVE",
"376 521 OFFCURVE",
"264 521 CURVE SMOOTH",
"138 521 OFFCURVE",
"51 428 OFFCURVE",
"51 263 CURVE SMOOTH",
"51 248 LINE SMOOTH",
"51 83 OFFCURVE",
"139 -10 OFFCURVE",
"265 -10 CURVE SMOOTH",
"375 -10 OFFCURVE",
"464 61 OFFCURVE",
"464 189 CURVE"
);
},
{
closed = 1;
nodes = (
"346 475 OFFCURVE",
"414 423 OFFCURVE",
"414 314 CURVE SMOOTH",
"414 296 LINE",
"103 296 LINE",
"111 416 OFFCURVE",
"178 475 OFFCURVE",
"264 475 CURVE SMOOTH"
);
},
{
closed = 1;
nodes = (
"295 575 LINE",
"406 717 LINE",
"406 720 LINE",
"341 720 LINE",
"245 575 LINE"
);
}
);
};
layerId = "D4B4FEC9-7137-4CB7-86D3-564A65A82025";
name = Light;
paths = (
{
closed = 1;
nodes = (
"414 189 LINE",
"414 84 OFFCURVE",
"344 36 OFFCURVE",
"265 36 CURVE SMOOTH",
"173 36 OFFCURVE",
"102 103 OFFCURVE",
"102 242 CURVE SMOOTH",
"102 250 LINE",
"464 250 LINE",
"464 314 LINE SMOOTH",
"464 447 OFFCURVE",
"376 521 OFFCURVE",
"264 521 CURVE SMOOTH",
"138 521 OFFCURVE",
"51 428 OFFCURVE",
"51 263 CURVE SMOOTH",
"51 248 LINE SMOOTH",
"51 83 OFFCURVE",
"139 -10 OFFCURVE",
"265 -10 CURVE SMOOTH",
"375 -10 OFFCURVE",
"464 61 OFFCURVE",
"464 189 CURVE"
);
},
{
closed = 1;
nodes = (
"346 475 OFFCURVE",
"414 423 OFFCURVE",
"414 314 CURVE SMOOTH",
"414 296 LINE",
"103 296 LINE",
"111 416 OFFCURVE",
"178 475 OFFCURVE",
"264 475 CURVE SMOOTH"
);
},
{
closed = 1;
nodes = (
"295 575 LINE",
"406 717 LINE",
"406 720 LINE",
"341 720 LINE",
"245 575 LINE"
);
}
);
width = 556;
}
);
unicode = 00E9;
},
{
glyphname = ecircumflex;
lastChange = "2014-09-05 18:36:13 +0000";
layers = (
{
background = {
paths = (
{
closed = 1;
nodes = (
"414 189 LINE",
"414 84 OFFCURVE",
"344 36 OFFCURVE",
"265 36 CURVE SMOOTH",
"173 36 OFFCURVE",
"102 103 OFFCURVE",
"102 242 CURVE SMOOTH",
"102 250 LINE",
"464 250 LINE",
"464 314 LINE SMOOTH",
"464 447 OFFCURVE",
"376 521 OFFCURVE",
"264 521 CURVE SMOOTH",
"138 521 OFFCURVE",
"51 428 OFFCURVE",
"51 263 CURVE SMOOTH",
"51 248 LINE SMOOTH",
"51 83 OFFCURVE",
"139 -10 OFFCURVE",
"265 -10 CURVE SMOOTH",
"375 -10 OFFCURVE",
"464 61 OFFCURVE",
"464 189 CURVE"
);
},
{
closed = 1;
nodes = (
"346 475 OFFCURVE",
"414 423 OFFCURVE",
"414 314 CURVE SMOOTH",
"414 296 LINE",
"103 296 LINE",
"111 416 OFFCURVE",
"178 475 OFFCURVE",
"264 475 CURVE SMOOTH"
);
},
{
closed = 1;
nodes = (
"103 575 LINE",
"163 575 LINE",
"266 672 LINE",
"369 575 LINE",
"429 575 LINE",
"295 720 LINE",
"237 720 LINE"
);
}
);
};
layerId = "D4B4FEC9-7137-4CB7-86D3-564A65A82025";
name = Light;
paths = (
{
closed = 1;
nodes = (
"414 189 LINE",
"414 84 OFFCURVE",
"344 36 OFFCURVE",
"265 36 CURVE SMOOTH",
"173 36 OFFCURVE",
"102 103 OFFCURVE",
"102 242 CURVE SMOOTH",
"102 250 LINE",
"464 250 LINE",
"464 314 LINE SMOOTH",
"464 447 OFFCURVE",
"376 521 OFFCURVE",
"264 521 CURVE SMOOTH",
"138 521 OFFCURVE",
"51 428 OFFCURVE",
"51 263 CURVE SMOOTH",
"51 248 LINE SMOOTH",
"51 83 OFFCURVE",
"139 -10 OFFCURVE",
"265 -10 CURVE SMOOTH",
"375 -10 OFFCURVE",
"464 61 OFFCURVE",
"464 189 CURVE"
);
},
{
closed = 1;
nodes = (
"346 475 OFFCURVE",
"414 423 OFFCURVE",
"414 314 CURVE SMOOTH",
"414 296 LINE",
"103 296 LINE",
"111 416 OFFCURVE",
"178 475 OFFCURVE",
"264 475 CURVE SMOOTH"
);
},
{
closed = 1;
nodes = (
"103 575 LINE",
"163 575 LINE",
"266 672 LINE",
"369 575 LINE",
"429 575 LINE",
"295 720 LINE",
"237 720 LINE"
);
}
);
width = 556;
}
);
unicode = 00EA;
},
{
glyphname = edieresis;
lastChange = "2014-09-05 18:36:13 +0000";
layers = (
{
background = {
paths = (
{
closed = 1;
nodes = (
"414 189 LINE",
"414 84 OFFCURVE",
"344 36 OFFCURVE",
"265 36 CURVE SMOOTH",
"173 36 OFFCURVE",
"102 103 OFFCURVE",
"102 242 CURVE SMOOTH",
"102 250 LINE",
"464 250 LINE",
"464 314 LINE SMOOTH",
"464 447 OFFCURVE",
"376 521 OFFCURVE",
"264 521 CURVE SMOOTH",
"138 521 OFFCURVE",
"51 428 OFFCURVE",
"51 263 CURVE SMOOTH",
"51 248 LINE SMOOTH",
"51 83 OFFCURVE",
"139 -10 OFFCURVE",
"265 -10 CURVE SMOOTH",
"375 -10 OFFCURVE",
"464 61 OFFCURVE",
"464 189 CURVE"
);
},
{
closed = 1;
nodes = (
"346 475 OFFCURVE",
"414 423 OFFCURVE",
"414 314 CURVE SMOOTH",
"414 296 LINE",
"103 296 LINE",
"111 416 OFFCURVE",
"178 475 OFFCURVE",
"264 475 CURVE SMOOTH"
);
},
{
closed = 1;
nodes = (
"150 651 LINE",
"215 651 LINE",
"215 720 LINE",
"150 720 LINE"
);
},
{
closed = 1;
nodes = (
"326 651 LINE",
"391 651 LINE",
"391 720 LINE",
"326 720 LINE"
);
}
);
};
layerId = "D4B4FEC9-7137-4CB7-86D3-564A65A82025";
name = Light;
paths = (
{
closed = 1;
nodes = (
"414 189 LINE",
"414 84 OFFCURVE",
"344 36 OFFCURVE",
"265 36 CURVE SMOOTH",
"173 36 OFFCURVE",
"102 103 OFFCURVE",
"102 242 CURVE SMOOTH",
"102 250 LINE",
"464 250 LINE",
"464 314 LINE SMOOTH",
"464 447 OFFCURVE",
"376 521 OFFCURVE",
"264 521 CURVE SMOOTH",
"138 521 OFFCURVE",
"51 428 OFFCURVE",
"51 263 CURVE SMOOTH",
"51 248 LINE SMOOTH",
"51 83 OFFCURVE",
"139 -10 OFFCURVE",
"265 -10 CURVE SMOOTH",
"375 -10 OFFCURVE",
"464 61 OFFCURVE",
"464 189 CURVE"
);
},
{
closed = 1;
nodes = (
"346 475 OFFCURVE",
"414 423 OFFCURVE",
"414 314 CURVE SMOOTH",
"414 296 LINE",
"103 296 LINE",
"111 416 OFFCURVE",
"178 475 OFFCURVE",
"264 475 CURVE SMOOTH"
);
},
{
closed = 1;
nodes = (
"150 651 LINE",
"215 651 LINE",
"215 720 LINE",
"150 720 LINE"
);
},
{
closed = 1;
nodes = (
"326 651 LINE",
"391 651 LINE",
"391 720 LINE",
"326 720 LINE"
);
}
);
width = 556;
}
);
unicode = 00EB;
},
{
glyphname = egrave;
lastChange = "2014-09-05 18:36:13 +0000";
layers = (
{
background = {
paths = (
{
closed = 1;
nodes = (
"414 189 LINE",
"414 84 OFFCURVE",
"344 36 OFFCURVE",
"265 36 CURVE SMOOTH",
"173 36 OFFCURVE",
"102 103 OFFCURVE",
"102 242 CURVE SMOOTH",
"102 250 LINE",
"464 250 LINE",
"464 314 LINE SMOOTH",
"464 447 OFFCURVE",
"376 521 OFFCURVE",
"264 521 CURVE SMOOTH",
"138 521 OFFCURVE",
"51 428 OFFCURVE",
"51 263 CURVE SMOOTH",
"51 248 LINE SMOOTH",
"51 83 OFFCURVE",
"139 -10 OFFCURVE",
"265 -10 CURVE SMOOTH",
"375 -10 OFFCURVE",
"464 61 OFFCURVE",
"464 189 CURVE"
);
},
{
closed = 1;
nodes = (
"346 475 OFFCURVE",
"414 423 OFFCURVE",
"414 314 CURVE SMOOTH",
"414 296 LINE",
"103 296 LINE",
"111 416 OFFCURVE",
"178 475 OFFCURVE",
"264 475 CURVE SMOOTH"
);
},
{
closed = 1;
nodes = (
"295 575 LINE",
"199 720 LINE",
"134 720 LINE",
"134 717 LINE",
"245 575 LINE"
);
}
);
};
layerId = "D4B4FEC9-7137-4CB7-86D3-564A65A82025";
name = Light;
paths = (
{
closed = 1;
nodes = (
"414 189 LINE",
"414 84 OFFCURVE",
"344 36 OFFCURVE",
"265 36 CURVE SMOOTH",
"173 36 OFFCURVE",
"102 103 OFFCURVE",
"102 242 CURVE SMOOTH",
"102 250 LINE",
"464 250 LINE",
"464 314 LINE SMOOTH",
"464 447 OFFCURVE",
"376 521 OFFCURVE",
"264 521 CURVE SMOOTH",
"138 521 OFFCURVE",
"51 428 OFFCURVE",
"51 263 CURVE SMOOTH",
"51 248 LINE SMOOTH",
"51 83 OFFCURVE",
"139 -10 OFFCURVE",
"265 -10 CURVE SMOOTH",
"375 -10 OFFCURVE",
"464 61 OFFCURVE",
"464 189 CURVE"
);
},
{
closed = 1;
nodes = (
"346 475 OFFCURVE",
"414 423 OFFCURVE",
"414 314 CURVE SMOOTH",
"414 296 LINE",
"103 296 LINE",
"111 416 OFFCURVE",
"178 475 OFFCURVE",
"264 475 CURVE SMOOTH"
);
},
{
closed = 1;
nodes = (
"295 575 LINE",
"199 720 LINE",
"134 720 LINE",
"134 717 LINE",
"245 575 LINE"
);
}
);
width = 556;
}
);
unicode = 00E8;
},
{
glyphname = f;
lastChange = "2014-09-05 18:36:13 +0000";
layers = (
{
background = {
paths = (
{
closed = 1;
nodes = (
"273 711 LINE",
"256 721 OFFCURVE",
"230 728 OFFCURVE",
"205 728 CURVE SMOOTH",
"146 728 OFFCURVE",
"103 694 OFFCURVE",
"103 617 CURVE SMOOTH",
"103 511 LINE",
"47 511 LINE",
"47 465 LINE",
"103 465 LINE",
"103 0 LINE",
"154 0 LINE",
"154 465 LINE",
"273 465 LINE",
"273 511 LINE",
"154 511 LINE",
"154 615 LINE SMOOTH",
"154 674 OFFCURVE",
"183 682 OFFCURVE",
"211 682 CURVE SMOOTH",
"226 682 OFFCURVE",
"257 673 OFFCURVE",
"273 666 CURVE"
);
}
);
};
layerId = "D4B4FEC9-7137-4CB7-86D3-564A65A82025";
name = Light;
paths = (
{
closed = 1;
nodes = (
"273 711 LINE",
"256 721 OFFCURVE",
"230 728 OFFCURVE",
"205 728 CURVE SMOOTH",
"146 728 OFFCURVE",
"103 694 OFFCURVE",
"103 617 CURVE SMOOTH",
"103 511 LINE",
"47 511 LINE",
"47 465 LINE",
"103 465 LINE",
"103 0 LINE",
"154 0 LINE",
"154 465 LINE",
"273 465 LINE",
"273 511 LINE",
"154 511 LINE",
"154 615 LINE SMOOTH",
"154 674 OFFCURVE",
"183 682 OFFCURVE",
"211 682 CURVE SMOOTH",
"226 682 OFFCURVE",
"257 673 OFFCURVE",
"273 666 CURVE"
);
}
);
width = 338;
}
);
unicode = 0066;
},
{
glyphname = g;
lastChange = "2014-09-05 18:36:13 +0000";
layers = (
{
anchors = (
{
name = top;
position = "{284, 511}";
}
);
background = {
anchors = (
{
name = top;
position = "{284, 511}";
}
);
paths = (
{
closed = 1;
nodes = (
"191 67 LINE SMOOTH",
"149 67 OFFCURVE",
"116 91 OFFCURVE",
"116 133 CURVE SMOOTH",
"116 175 OFFCURVE",
"149 200 OFFCURVE",
"191 200 CURVE SMOOTH",
"273 200 LINE SMOOTH",
"409 200 OFFCURVE",
"468 272 OFFCURVE",
"468 360 CURVE SMOOTH",
"468 406 OFFCURVE",
"452 447 OFFCURVE",
"422 473 CURVE",
"423 477 LINE",
"484 486 OFFCURVE",
"522 547 OFFCURVE",
"522 603 CURVE",
"474 603 LINE",
"467 548 OFFCURVE",
"432 512 OFFCURVE",
"384 499 CURVE",
"355 513 OFFCURVE",
"318 521 OFFCURVE",
"273 521 CURVE SMOOTH",
"137 521 OFFCURVE",
"78 449 OFFCURVE",
"78 360 CURVE SMOOTH",
"78 310 OFFCURVE",
"105 266 OFFCURVE",
"146 236 CURVE",
"97 217 OFFCURVE",
"65 183 OFFCURVE",
"65 135 CURVE SMOOTH",
"65 101 OFFCURVE",
"80 73 OFFCURVE",
"110 55 CURVE",
"64 36 OFFCURVE",
"36 -13 OFFCURVE",
"36 -61 CURVE SMOOTH",
"36 -126 OFFCURVE",
"89 -188 OFFCURVE",
"162 -188 CURVE SMOOTH",
"379 -188 LINE SMOOTH",
"462 -188 OFFCURVE",
"522 -128 OFFCURVE",
"522 -52 CURVE SMOOTH",
"522 15 OFFCURVE",
"474 67 OFFCURVE",
"404 67 CURVE SMOOTH"
);
},
{
closed = 1;
nodes = (
"417 297 OFFCURVE",
"366 245 OFFCURVE",
"273 245 CURVE SMOOTH",
"180 245 OFFCURVE",
"129 297 OFFCURVE",
"129 360 CURVE SMOOTH",
"129 423 OFFCURVE",
"180 475 OFFCURVE",
"273 475 CURVE SMOOTH",
"366 475 OFFCURVE",
"417 423 OFFCURVE",
"417 360 CURVE SMOOTH"
);
},
{
closed = 1;
nodes = (
"166 -142 LINE SMOOTH",
"122 -142 OFFCURVE",
"86 -106 OFFCURVE",
"86 -62 CURVE SMOOTH",
"86 -18 OFFCURVE",
"122 18 OFFCURVE",
"166 18 CURVE SMOOTH",
"400 18 LINE SMOOTH",
"439 18 OFFCURVE",
"471 -16 OFFCURVE",
"471 -55 CURVE SMOOTH",
"471 -103 OFFCURVE",
"430 -142 OFFCURVE",
"382 -142 CURVE SMOOTH"
);
}
);
};
layerId = "D4B4FEC9-7137-4CB7-86D3-564A65A82025";
name = Light;
paths = (
{
closed = 1;
nodes = (
"191 67 LINE SMOOTH",
"149 67 OFFCURVE",
"116 91 OFFCURVE",
"116 133 CURVE SMOOTH",
"116 175 OFFCURVE",
"149 200 OFFCURVE",
"191 200 CURVE SMOOTH",
"273 200 LINE SMOOTH",
"409 200 OFFCURVE",
"468 272 OFFCURVE",
"468 360 CURVE SMOOTH",
"468 406 OFFCURVE",
"452 447 OFFCURVE",
"422 473 CURVE",
"423 477 LINE",
"484 486 OFFCURVE",
"522 547 OFFCURVE",
"522 603 CURVE",
"474 603 LINE",
"467 548 OFFCURVE",
"432 512 OFFCURVE",
"384 499 CURVE",
"355 513 OFFCURVE",
"318 521 OFFCURVE",
"273 521 CURVE SMOOTH",
"137 521 OFFCURVE",
"78 449 OFFCURVE",
"78 360 CURVE SMOOTH",
"78 310 OFFCURVE",
"105 266 OFFCURVE",
"146 236 CURVE",
"97 217 OFFCURVE",
"65 183 OFFCURVE",
"65 135 CURVE SMOOTH",
"65 101 OFFCURVE",
"80 73 OFFCURVE",
"110 55 CURVE",
"64 36 OFFCURVE",
"36 -13 OFFCURVE",
"36 -61 CURVE SMOOTH",
"36 -126 OFFCURVE",
"89 -188 OFFCURVE",
"162 -188 CURVE SMOOTH",
"379 -188 LINE SMOOTH",
"462 -188 OFFCURVE",
"522 -128 OFFCURVE",
"522 -52 CURVE SMOOTH",
"522 15 OFFCURVE",
"474 67 OFFCURVE",
"404 67 CURVE SMOOTH"
);
},
{
closed = 1;
nodes = (
"417 297 OFFCURVE",
"366 245 OFFCURVE",
"273 245 CURVE SMOOTH",
"180 245 OFFCURVE",
"129 297 OFFCURVE",
"129 360 CURVE SMOOTH",
"129 423 OFFCURVE",
"180 475 OFFCURVE",
"273 475 CURVE SMOOTH",
"366 475 OFFCURVE",
"417 423 OFFCURVE",
"417 360 CURVE SMOOTH"
);
},
{
closed = 1;
nodes = (
"166 -142 LINE SMOOTH",
"122 -142 OFFCURVE",
"86 -106 OFFCURVE",
"86 -62 CURVE SMOOTH",
"86 -18 OFFCURVE",
"122 18 OFFCURVE",
"166 18 CURVE SMOOTH",
"400 18 LINE SMOOTH",
"439 18 OFFCURVE",
"471 -16 OFFCURVE",
"471 -55 CURVE SMOOTH",
"471 -103 OFFCURVE",
"430 -142 OFFCURVE",
"382 -142 CURVE SMOOTH"
);
}
);
width = 568;
}
);
unicode = 0067;
},
{
glyphname = h;
lastChange = "2014-09-05 19:09:25 +0000";
layers = (
{
anchors = (
{
name = center;
position = "{297, 256}";
},
{
name = top;
position = "{109, 686}";
}
);
background = {
anchors = (
{
name = top;
position = "{297, 511}";
},
{
name = center;
position = "{297, 256}";
}
);
paths = (
{
closed = 1;
nodes = (
"486 0 LINE",
"486 329 LINE SMOOTH",
"486 462 OFFCURVE",
"402 521 OFFCURVE",
"296 521 CURVE SMOOTH",
"237 521 OFFCURVE",
"169 493 OFFCURVE",
"134 439 CURVE",
"134 720 LINE",
"83 720 LINE",
"83 0 LINE",
"134 0 LINE",
"134 314 LINE SMOOTH",
"134 406 OFFCURVE",
"201 475 OFFCURVE",
"291 475 CURVE SMOOTH",
"381 475 OFFCURVE",
"435 425 OFFCURVE",
"435 314 CURVE SMOOTH",
"435 0 LINE"
);
}
);
};
layerId = "D4B4FEC9-7137-4CB7-86D3-564A65A82025";
name = Light;
paths = (
{
closed = 1;
nodes = (
"486 0 LINE",
"486 329 LINE SMOOTH",
"486 462 OFFCURVE",
"402 521 OFFCURVE",
"296 521 CURVE SMOOTH",
"237 521 OFFCURVE",
"169 493 OFFCURVE",
"134 439 CURVE",
"134 720 LINE",
"83 720 LINE",
"83 0 LINE",
"134 0 LINE",
"134 314 LINE SMOOTH",
"134 406 OFFCURVE",
"201 475 OFFCURVE",
"291 475 CURVE SMOOTH",
"381 475 OFFCURVE",
"435 425 OFFCURVE",
"435 314 CURVE SMOOTH",
"435 0 LINE"
);
}
);
width = 593;
}
);
unicode = 0068;
},
{
glyphname = i;
lastChange = "2014-09-05 18:36:13 +0000";
layers = (
{
background = {
paths = (
{
closed = 1;
nodes = (
"136 0 LINE",
"136 511 LINE",
"85 511 LINE",
"85 0 LINE"
);
},
{
closed = 1;
nodes = (
"81 666 LINE",
"140 666 LINE",
"140 720 LINE",
"81 720 LINE"
);
}
);
};
layerId = "D4B4FEC9-7137-4CB7-86D3-564A65A82025";
name = Light;
paths = (
{
closed = 1;
nodes = (
"136 0 LINE",
"136 511 LINE",
"85 511 LINE",
"85 0 LINE"
);
},
{
closed = 1;
nodes = (
"81 666 LINE",
"140 666 LINE",
"140 720 LINE",
"81 720 LINE"
);
}
);
width = 260;
}
);
unicode = 0069;
},
{
glyphname = dotlessi;
lastChange = "2014-09-05 19:09:40 +0000";
layers = (
{
anchors = (
{
name = ogonek;
position = "{129, 10}";
},
{
name = top;
position = "{109, 511}";
}
);
background = {
anchors = (
{
name = top;
position = "{130, 511}";
},
{
name = ogonek;
position = "{234, 10}";
}
);
paths = (
{
closed = 1;
nodes = (
"134 0 LINE",
"134 511 LINE",
"83 511 LINE",
"83 0 LINE"
);
}
);
};
layerId = "D4B4FEC9-7137-4CB7-86D3-564A65A82025";
name = Light;
paths = (
{
closed = 1;
nodes = (
"134 0 LINE",
"134 511 LINE",
"83 511 LINE",
"83 0 LINE"
);
}
);
width = 260;
}
);
unicode = 0131;
},
{
glyphname = iacute;
lastChange = "2014-09-05 18:36:13 +0000";
layers = (
{
background = {
paths = (
{
closed = 1;
nodes = (
"146 0 LINE",
"146 511 LINE",
"95 511 LINE",
"95 0 LINE"
);
},
{
closed = 1;
nodes = (
"143 575 LINE",
"254 717 LINE",
"254 720 LINE",
"189 720 LINE",
"93 575 LINE"
);
}
);
};
layerId = "D4B4FEC9-7137-4CB7-86D3-564A65A82025";
name = Light;
paths = (
{
closed = 1;
nodes = (
"146 0 LINE",
"146 511 LINE",
"95 511 LINE",
"95 0 LINE"
);
},
{
closed = 1;
nodes = (
"143 575 LINE",
"254 717 LINE",
"254 720 LINE",
"189 720 LINE",
"93 575 LINE"
);
}
);
width = 260;
}
);
unicode = 00ED;
},
{
glyphname = icircumflex;
lastChange = "2014-09-05 18:36:13 +0000";
layers = (
{
background = {
paths = (
{
closed = 1;
nodes = (
"159 0 LINE",
"159 511 LINE",
"108 511 LINE",
"108 0 LINE"
);
},
{
closed = 1;
nodes = (
"-31 575 LINE",
"29 575 LINE",
"132 672 LINE",
"235 575 LINE",
"295 575 LINE",
"161 720 LINE",
"103 720 LINE"
);
}
);
};
layerId = "D4B4FEC9-7137-4CB7-86D3-564A65A82025";
name = Light;
paths = (
{
closed = 1;
nodes = (
"159 0 LINE",
"159 511 LINE",
"108 511 LINE",
"108 0 LINE"
);
},
{
closed = 1;
nodes = (
"-31 575 LINE",
"29 575 LINE",
"132 672 LINE",
"235 575 LINE",
"295 575 LINE",
"161 720 LINE",
"103 720 LINE"
);
}
);
width = 260;
}
);
unicode = 00EE;
},
{
glyphname = idieresis;
lastChange = "2014-09-05 18:36:13 +0000";
layers = (
{
background = {
paths = (
{
closed = 1;
nodes = (
"157 0 LINE",
"157 511 LINE",
"106 511 LINE",
"106 0 LINE"
);
},
{
closed = 1;
nodes = (
"11 651 LINE",
"76 651 LINE",
"76 720 LINE",
"11 720 LINE"
);
},
{
closed = 1;
nodes = (
"187 651 LINE",
"252 651 LINE",
"252 720 LINE",
"187 720 LINE"
);
}
);
};
layerId = "D4B4FEC9-7137-4CB7-86D3-564A65A82025";
name = Light;
paths = (
{
closed = 1;
nodes = (
"157 0 LINE",
"157 511 LINE",
"106 511 LINE",
"106 0 LINE"
);
},
{
closed = 1;
nodes = (
"11 651 LINE",
"76 651 LINE",
"76 720 LINE",
"11 720 LINE"
);
},
{
closed = 1;
nodes = (
"187 651 LINE",
"252 651 LINE",
"252 720 LINE",
"187 720 LINE"
);
}
);
width = 260;
}
);
unicode = 00EF;
},
{
glyphname = igrave;
lastChange = "2014-09-05 18:36:13 +0000";
layers = (
{
background = {
paths = (
{
closed = 1;
nodes = (
"165 0 LINE",
"165 511 LINE",
"114 511 LINE",
"114 0 LINE"
);
},
{
closed = 1;
nodes = (
"167 575 LINE",
"71 720 LINE",
"6 720 LINE",
"6 717 LINE",
"117 575 LINE"
);
}
);
};
layerId = "D4B4FEC9-7137-4CB7-86D3-564A65A82025";
name = Light;
paths = (
{
closed = 1;
nodes = (
"165 0 LINE",
"165 511 LINE",
"114 511 LINE",
"114 0 LINE"
);
},
{
closed = 1;
nodes = (
"167 575 LINE",
"71 720 LINE",
"6 720 LINE",
"6 717 LINE",
"117 575 LINE"
);
}
);
width = 260;
}
);
unicode = 00EC;
},
{
color = 3;
glyphname = iogonek;
lastChange = "2014-09-09 17:33:49 +0000";
layers = (
{
components = (
{
name = dotlessi;
transform = "{1, 0, 0, 1, 0, 0}";
},
{
name = ogonek;
transform = "{1, 0, 0, 1, -46, 0}";
}
);
layerId = "D4B4FEC9-7137-4CB7-86D3-564A65A82025";
name = Light;
paths = (
{
closed = 1;
nodes = (
"81 666 LINE",
"140 666 LINE",
"140 720 LINE",
"81 720 LINE"
);
}
);
width = 260;
}
);
unicode = 012F;
},
{
glyphname = j;
lastChange = "2014-09-05 18:36:13 +0000";
layers = (
{
background = {
paths = (
{
closed = 1;
nodes = (
"81 666 LINE",
"140 666 LINE",
"140 720 LINE",
"81 720 LINE"
);
},
{
closed = 1;
nodes = (
"85 -73 LINE SMOOTH",
"85 -132 OFFCURVE",
"56 -140 OFFCURVE",
"28 -140 CURVE SMOOTH",
"13 -140 OFFCURVE",
"-18 -131 OFFCURVE",
"-34 -124 CURVE",
"-34 -169 LINE",
"-17 -179 OFFCURVE",
"9 -186 OFFCURVE",
"34 -186 CURVE SMOOTH",
"93 -186 OFFCURVE",
"136 -152 OFFCURVE",
"136 -75 CURVE SMOOTH",
"136 511 LINE",
"85 511 LINE"
);
}
);
};
layerId = "D4B4FEC9-7137-4CB7-86D3-564A65A82025";
name = Light;
paths = (
{
closed = 1;
nodes = (
"81 666 LINE",
"140 666 LINE",
"140 720 LINE",
"81 720 LINE"
);
},
{
closed = 1;
nodes = (
"85 -73 LINE SMOOTH",
"85 -132 OFFCURVE",
"56 -140 OFFCURVE",
"28 -140 CURVE SMOOTH",
"13 -140 OFFCURVE",
"-18 -131 OFFCURVE",
"-34 -124 CURVE",
"-34 -169 LINE",
"-17 -179 OFFCURVE",
"9 -186 OFFCURVE",
"34 -186 CURVE SMOOTH",
"93 -186 OFFCURVE",
"136 -152 OFFCURVE",
"136 -75 CURVE SMOOTH",
"136 511 LINE",
"85 511 LINE"
);
}
);
width = 260;
}
);
unicode = 006A;
},
{
glyphname = k;
lastChange = "2014-09-05 18:36:13 +0000";
layers = (
{
anchors = (
{
name = bottom;
position = "{268, 0}";
}
);
background = {
anchors = (
{
name = bottom;
position = "{268, 0}";
}
);
paths = (
{
closed = 1;
nodes = (
"438 0 LINE",
"504 0 LINE",
"272 270 LINE",
"487 511 LINE",
"424 511 LINE",
"134 186 LINE",
"134 720 LINE",
"83 720 LINE",
"83 0 LINE",
"134 0 LINE",
"134 127 LINE",
"238 232 LINE"
);
}
);
};
layerId = "D4B4FEC9-7137-4CB7-86D3-564A65A82025";
name = Light;
paths = (
{
closed = 1;
nodes = (
"438 0 LINE",
"504 0 LINE",
"272 270 LINE",
"487 511 LINE",
"424 511 LINE",
"134 186 LINE",
"134 720 LINE",
"83 720 LINE",
"83 0 LINE",
"134 0 LINE",
"134 127 LINE",
"238 232 LINE"
);
}
);
width = 535;
}
);
unicode = 006B;
},
{
glyphname = l;
lastChange = "2014-09-08 21:34:18 +0000";
layers = (
{
anchors = (
{
name = bottom;
position = "{113, 0}";
},
{
name = top;
position = "{113, 686}";
},
{
name = topright;
position = "{248, 686}";
}
);
background = {
anchors = (
{
name = top;
position = "{134, 511}";
},
{
name = bottom;
position = "{134, 0}";
},
{
name = topright;
position = "{248, 511}";
}
);
paths = (
{
closed = 1;
nodes = (
"138 0 LINE",
"138 720 LINE",
"87 720 LINE",
"87 0 LINE"
);
}
);
};
layerId = "D4B4FEC9-7137-4CB7-86D3-564A65A82025";
name = Light;
paths = (
{
closed = 1;
nodes = (
"138 0 LINE",
"138 720 LINE",
"87 720 LINE",
"87 0 LINE"
);
}
);
width = 268;
}
);
unicode = 006C;
},
{
glyphname = lslash;
lastChange = "2014-09-05 18:36:13 +0000";
layers = (
{
background = {
paths = (
{
closed = 1;
nodes = (
"165 0 LINE",
"165 363 LINE",
"259 411 LINE",
"259 455 LINE",
"165 407 LINE",
"165 720 LINE",
"114 720 LINE",
"114 382 LINE",
"20 335 LINE",
"20 291 LINE",
"114 338 LINE",
"114 0 LINE"
);
}
);
};
layerId = "D4B4FEC9-7137-4CB7-86D3-564A65A82025";
name = Light;
paths = (
{
closed = 1;
nodes = (
"165 0 LINE",
"165 363 LINE",
"259 411 LINE",
"259 455 LINE",
"165 407 LINE",
"165 720 LINE",
"114 720 LINE",
"114 382 LINE",
"20 335 LINE",
"20 291 LINE",
"114 338 LINE",
"114 0 LINE"
);
}
);
width = 298;
}
);
unicode = 0142;
},
{
glyphname = m;
lastChange = "2014-09-05 18:36:13 +0000";
layers = (
{
background = {
paths = (
{
closed = 1;
nodes = (
"510 521 OFFCURVE",
"455 479 OFFCURVE",
"428 434 CURVE",
"398 493 OFFCURVE",
"340 521 OFFCURVE",
"274 521 CURVE SMOOTH",
"214 521 OFFCURVE",
"159 489 OFFCURVE",
"129 435 CURVE",
"117 511 LINE",
"83 511 LINE",
"83 0 LINE",
"134 0 LINE",
"134 314 LINE SMOOTH",
"134 406 OFFCURVE",
"190 475 OFFCURVE",
"270 475 CURVE SMOOTH",
"351 475 OFFCURVE",
"395 425 OFFCURVE",
"395 314 CURVE SMOOTH",
"395 0 LINE",
"446 0 LINE",
"446 314 LINE SMOOTH",
"446 406 OFFCURVE",
"502 475 OFFCURVE",
"582 475 CURVE SMOOTH",
"663 475 OFFCURVE",
"707 425 OFFCURVE",
"707 314 CURVE SMOOTH",
"707 0 LINE",
"758 0 LINE",
"758 329 LINE SMOOTH",
"758 462 OFFCURVE",
"681 521 OFFCURVE",
"586 521 CURVE SMOOTH"
);
}
);
};
layerId = "D4B4FEC9-7137-4CB7-86D3-564A65A82025";
name = Light;
paths = (
{
closed = 1;
nodes = (
"510 521 OFFCURVE",
"455 479 OFFCURVE",
"428 434 CURVE",
"398 493 OFFCURVE",
"340 521 OFFCURVE",
"274 521 CURVE SMOOTH",
"214 521 OFFCURVE",
"159 489 OFFCURVE",
"129 435 CURVE",
"117 511 LINE",
"83 511 LINE",
"83 0 LINE",
"134 0 LINE",
"134 314 LINE SMOOTH",
"134 406 OFFCURVE",
"190 475 OFFCURVE",
"270 475 CURVE SMOOTH",
"351 475 OFFCURVE",
"395 425 OFFCURVE",
"395 314 CURVE SMOOTH",
"395 0 LINE",
"446 0 LINE",
"446 314 LINE SMOOTH",
"446 406 OFFCURVE",
"502 475 OFFCURVE",
"582 475 CURVE SMOOTH",
"663 475 OFFCURVE",
"707 425 OFFCURVE",
"707 314 CURVE SMOOTH",
"707 0 LINE",
"758 0 LINE",
"758 329 LINE SMOOTH",
"758 462 OFFCURVE",
"681 521 OFFCURVE",
"586 521 CURVE SMOOTH"
);
}
);
width = 867;
}
);
unicode = 006D;
},
{
glyphname = n;
lastChange = "2014-09-05 18:36:13 +0000";
layers = (
{
anchors = (
{
name = bottom;
position = "{297, 0}";
},
{
name = top;
position = "{297, 511}";
}
);
background = {
anchors = (
{
name = top;
position = "{297, 511}";
},
{
name = bottom;
position = "{297, 0}";
}
);
paths = (
{
closed = 1;
nodes = (
"485 0 LINE",
"485 329 LINE SMOOTH",
"485 462 OFFCURVE",
"402 521 OFFCURVE",
"296 521 CURVE SMOOTH",
"229 521 OFFCURVE",
"163 489 OFFCURVE",
"128 435 CURVE",
"117 511 LINE",
"83 511 LINE",
"83 0 LINE",
"134 0 LINE",
"134 314 LINE SMOOTH",
"134 406 OFFCURVE",
"201 475 OFFCURVE",
"291 475 CURVE SMOOTH",
"381 475 OFFCURVE",
"435 425 OFFCURVE",
"435 314 CURVE SMOOTH",
"435 0 LINE"
);
}
);
};
layerId = "D4B4FEC9-7137-4CB7-86D3-564A65A82025";
name = Light;
paths = (
{
closed = 1;
nodes = (
"485 0 LINE",
"485 329 LINE SMOOTH",
"485 462 OFFCURVE",
"402 521 OFFCURVE",
"296 521 CURVE SMOOTH",
"229 521 OFFCURVE",
"163 489 OFFCURVE",
"128 435 CURVE",
"117 511 LINE",
"83 511 LINE",
"83 0 LINE",
"134 0 LINE",
"134 314 LINE SMOOTH",
"134 406 OFFCURVE",
"201 475 OFFCURVE",
"291 475 CURVE SMOOTH",
"381 475 OFFCURVE",
"435 425 OFFCURVE",
"435 314 CURVE SMOOTH",
"435 0 LINE"
);
}
);
width = 593;
}
);
unicode = 006E;
},
{
glyphname = ntilde;
lastChange = "2014-09-05 18:36:13 +0000";
layers = (
{
background = {
paths = (
{
closed = 1;
nodes = (
"485 0 LINE",
"485 329 LINE SMOOTH",
"485 462 OFFCURVE",
"402 521 OFFCURVE",
"296 521 CURVE SMOOTH",
"229 521 OFFCURVE",
"163 489 OFFCURVE",
"128 435 CURVE",
"117 511 LINE",
"83 511 LINE",
"83 0 LINE",
"134 0 LINE",
"134 314 LINE SMOOTH",
"134 406 OFFCURVE",
"201 475 OFFCURVE",
"291 475 CURVE SMOOTH",
"381 475 OFFCURVE",
"435 425 OFFCURVE",
"435 314 CURVE SMOOTH",
"435 0 LINE"
);
},
{
closed = 1;
nodes = (
"435 719 LINE",
"428 696 OFFCURVE",
"411 687 OFFCURVE",
"378 687 CURVE SMOOTH",
"324 687 OFFCURVE",
"275 719 OFFCURVE",
"211 719 CURVE SMOOTH",
"133 719 OFFCURVE",
"110 669 OFFCURVE",
"110 637 CURVE",
"147 637 LINE",
"154 660 OFFCURVE",
"171 669 OFFCURVE",
"204 669 CURVE SMOOTH",
"258 669 OFFCURVE",
"307 637 OFFCURVE",
"371 637 CURVE SMOOTH",
"450 637 OFFCURVE",
"472 687 OFFCURVE",
"472 719 CURVE"
);
}
);
};
layerId = "D4B4FEC9-7137-4CB7-86D3-564A65A82025";
name = Light;
paths = (
{
closed = 1;
nodes = (
"485 0 LINE",
"485 329 LINE SMOOTH",
"485 462 OFFCURVE",
"402 521 OFFCURVE",
"296 521 CURVE SMOOTH",
"229 521 OFFCURVE",
"163 489 OFFCURVE",
"128 435 CURVE",
"117 511 LINE",
"83 511 LINE",
"83 0 LINE",
"134 0 LINE",
"134 314 LINE SMOOTH",
"134 406 OFFCURVE",
"201 475 OFFCURVE",
"291 475 CURVE SMOOTH",
"381 475 OFFCURVE",
"435 425 OFFCURVE",
"435 314 CURVE SMOOTH",
"435 0 LINE"
);
},
{
closed = 1;
nodes = (
"435 719 LINE",
"428 696 OFFCURVE",
"411 687 OFFCURVE",
"378 687 CURVE SMOOTH",
"324 687 OFFCURVE",
"275 719 OFFCURVE",
"211 719 CURVE SMOOTH",
"133 719 OFFCURVE",
"110 669 OFFCURVE",
"110 637 CURVE",
"147 637 LINE",
"154 660 OFFCURVE",
"171 669 OFFCURVE",
"204 669 CURVE SMOOTH",
"258 669 OFFCURVE",
"307 637 OFFCURVE",
"371 637 CURVE SMOOTH",
"450 637 OFFCURVE",
"472 687 OFFCURVE",
"472 719 CURVE"
);
}
);
width = 593;
}
);
unicode = 00F1;
},
{
glyphname = o;
lastChange = "2014-09-05 19:10:00 +0000";
layers = (
{
anchors = (
{
name = top;
position = "{267, 511}";
}
);
background = {
anchors = (
{
name = top;
position = "{287, 511}";
}
);
paths = (
{
closed = 1;
nodes = (
"394 -10 OFFCURVE",
"484 83 OFFCURVE",
"484 248 CURVE SMOOTH",
"484 263 LINE SMOOTH",
"484 428 OFFCURVE",
"394 521 OFFCURVE",
"268 521 CURVE SMOOTH",
"142 521 OFFCURVE",
"52 428 OFFCURVE",
"52 263 CURVE SMOOTH",
"52 248 LINE SMOOTH",
"52 83 OFFCURVE",
"142 -10 OFFCURVE",
"268 -10 CURVE SMOOTH"
);
},
{
closed = 1;
nodes = (
"176 36 OFFCURVE",
"103 103 OFFCURVE",
"103 242 CURVE SMOOTH",
"103 269 LINE SMOOTH",
"103 408 OFFCURVE",
"176 475 OFFCURVE",
"268 475 CURVE SMOOTH",
"360 475 OFFCURVE",
"433 408 OFFCURVE",
"433 269 CURVE SMOOTH",
"433 242 LINE SMOOTH",
"433 103 OFFCURVE",
"360 36 OFFCURVE",
"268 36 CURVE SMOOTH"
);
}
);
};
layerId = "D4B4FEC9-7137-4CB7-86D3-564A65A82025";
name = Light;
paths = (
{
closed = 1;
nodes = (
"394 -10 OFFCURVE",
"484 83 OFFCURVE",
"484 248 CURVE SMOOTH",
"484 263 LINE SMOOTH",
"484 428 OFFCURVE",
"394 521 OFFCURVE",
"268 521 CURVE SMOOTH",
"142 521 OFFCURVE",
"52 428 OFFCURVE",
"52 263 CURVE SMOOTH",
"52 248 LINE SMOOTH",
"52 83 OFFCURVE",
"142 -10 OFFCURVE",
"268 -10 CURVE SMOOTH"
);
},
{
closed = 1;
nodes = (
"176 36 OFFCURVE",
"103 103 OFFCURVE",
"103 242 CURVE SMOOTH",
"103 269 LINE SMOOTH",
"103 408 OFFCURVE",
"176 475 OFFCURVE",
"268 475 CURVE SMOOTH",
"360 475 OFFCURVE",
"433 408 OFFCURVE",
"433 269 CURVE SMOOTH",
"433 242 LINE SMOOTH",
"433 103 OFFCURVE",
"360 36 OFFCURVE",
"268 36 CURVE SMOOTH"
);
}
);
width = 574;
}
);
unicode = 006F;
},
{
glyphname = oacute;
lastChange = "2014-09-05 18:36:13 +0000";
layers = (
{
background = {
paths = (
{
closed = 1;
nodes = (
"394 -10 OFFCURVE",
"484 83 OFFCURVE",
"484 248 CURVE SMOOTH",
"484 263 LINE SMOOTH",
"484 428 OFFCURVE",
"394 521 OFFCURVE",
"268 521 CURVE SMOOTH",
"142 521 OFFCURVE",
"52 428 OFFCURVE",
"52 263 CURVE SMOOTH",
"52 248 LINE SMOOTH",
"52 83 OFFCURVE",
"142 -10 OFFCURVE",
"268 -10 CURVE SMOOTH"
);
},
{
closed = 1;
nodes = (
"176 36 OFFCURVE",
"103 103 OFFCURVE",
"103 242 CURVE SMOOTH",
"103 269 LINE SMOOTH",
"103 408 OFFCURVE",
"176 475 OFFCURVE",
"268 475 CURVE SMOOTH",
"360 475 OFFCURVE",
"433 408 OFFCURVE",
"433 269 CURVE SMOOTH",
"433 242 LINE SMOOTH",
"433 103 OFFCURVE",
"360 36 OFFCURVE",
"268 36 CURVE SMOOTH"
);
},
{
closed = 1;
nodes = (
"304 575 LINE",
"415 717 LINE",
"415 720 LINE",
"350 720 LINE",
"254 575 LINE"
);
}
);
};
layerId = "D4B4FEC9-7137-4CB7-86D3-564A65A82025";
name = Light;
paths = (
{
closed = 1;
nodes = (
"394 -10 OFFCURVE",
"484 83 OFFCURVE",
"484 248 CURVE SMOOTH",
"484 263 LINE SMOOTH",
"484 428 OFFCURVE",
"394 521 OFFCURVE",
"268 521 CURVE SMOOTH",
"142 521 OFFCURVE",
"52 428 OFFCURVE",
"52 263 CURVE SMOOTH",
"52 248 LINE SMOOTH",
"52 83 OFFCURVE",
"142 -10 OFFCURVE",
"268 -10 CURVE SMOOTH"
);
},
{
closed = 1;
nodes = (
"176 36 OFFCURVE",
"103 103 OFFCURVE",
"103 242 CURVE SMOOTH",
"103 269 LINE SMOOTH",
"103 408 OFFCURVE",
"176 475 OFFCURVE",
"268 475 CURVE SMOOTH",
"360 475 OFFCURVE",
"433 408 OFFCURVE",
"433 269 CURVE SMOOTH",
"433 242 LINE SMOOTH",
"433 103 OFFCURVE",
"360 36 OFFCURVE",
"268 36 CURVE SMOOTH"
);
},
{
closed = 1;
nodes = (
"304 575 LINE",
"415 717 LINE",
"415 720 LINE",
"350 720 LINE",
"254 575 LINE"
);
}
);
width = 574;
}
);
unicode = 00F3;
},
{
glyphname = ocircumflex;
lastChange = "2014-09-05 18:36:13 +0000";
layers = (
{
background = {
paths = (
{
closed = 1;
nodes = (
"394 -10 OFFCURVE",
"484 83 OFFCURVE",
"484 248 CURVE SMOOTH",
"484 263 LINE SMOOTH",
"484 428 OFFCURVE",
"394 521 OFFCURVE",
"268 521 CURVE SMOOTH",
"142 521 OFFCURVE",
"52 428 OFFCURVE",
"52 263 CURVE SMOOTH",
"52 248 LINE SMOOTH",
"52 83 OFFCURVE",
"142 -10 OFFCURVE",
"268 -10 CURVE SMOOTH"
);
},
{
closed = 1;
nodes = (
"176 36 OFFCURVE",
"103 103 OFFCURVE",
"103 242 CURVE SMOOTH",
"103 269 LINE SMOOTH",
"103 408 OFFCURVE",
"176 475 OFFCURVE",
"268 475 CURVE SMOOTH",
"360 475 OFFCURVE",
"433 408 OFFCURVE",
"433 269 CURVE SMOOTH",
"433 242 LINE SMOOTH",
"433 103 OFFCURVE",
"360 36 OFFCURVE",
"268 36 CURVE SMOOTH"
);
},
{
closed = 1;
nodes = (
"108 575 LINE",
"168 575 LINE",
"271 672 LINE",
"374 575 LINE",
"434 575 LINE",
"300 720 LINE",
"242 720 LINE"
);
}
);
};
layerId = "D4B4FEC9-7137-4CB7-86D3-564A65A82025";
name = Light;
paths = (
{
closed = 1;
nodes = (
"394 -10 OFFCURVE",
"484 83 OFFCURVE",
"484 248 CURVE SMOOTH",
"484 263 LINE SMOOTH",
"484 428 OFFCURVE",
"394 521 OFFCURVE",
"268 521 CURVE SMOOTH",
"142 521 OFFCURVE",
"52 428 OFFCURVE",
"52 263 CURVE SMOOTH",
"52 248 LINE SMOOTH",
"52 83 OFFCURVE",
"142 -10 OFFCURVE",
"268 -10 CURVE SMOOTH"
);
},
{
closed = 1;
nodes = (
"176 36 OFFCURVE",
"103 103 OFFCURVE",
"103 242 CURVE SMOOTH",
"103 269 LINE SMOOTH",
"103 408 OFFCURVE",
"176 475 OFFCURVE",
"268 475 CURVE SMOOTH",
"360 475 OFFCURVE",
"433 408 OFFCURVE",
"433 269 CURVE SMOOTH",
"433 242 LINE SMOOTH",
"433 103 OFFCURVE",
"360 36 OFFCURVE",
"268 36 CURVE SMOOTH"
);
},
{
closed = 1;
nodes = (
"108 575 LINE",
"168 575 LINE",
"271 672 LINE",
"374 575 LINE",
"434 575 LINE",
"300 720 LINE",
"242 720 LINE"
);
}
);
width = 574;
}
);
unicode = 00F4;
},
{
glyphname = odieresis;
lastChange = "2014-09-05 18:36:13 +0000";
layers = (
{
background = {
paths = (
{
closed = 1;
nodes = (
"394 -10 OFFCURVE",
"484 83 OFFCURVE",
"484 248 CURVE SMOOTH",
"484 263 LINE SMOOTH",
"484 428 OFFCURVE",
"394 521 OFFCURVE",
"268 521 CURVE SMOOTH",
"142 521 OFFCURVE",
"52 428 OFFCURVE",
"52 263 CURVE SMOOTH",
"52 248 LINE SMOOTH",
"52 83 OFFCURVE",
"142 -10 OFFCURVE",
"268 -10 CURVE SMOOTH"
);
},
{
closed = 1;
nodes = (
"176 36 OFFCURVE",
"103 103 OFFCURVE",
"103 242 CURVE SMOOTH",
"103 269 LINE SMOOTH",
"103 408 OFFCURVE",
"176 475 OFFCURVE",
"268 475 CURVE SMOOTH",
"360 475 OFFCURVE",
"433 408 OFFCURVE",
"433 269 CURVE SMOOTH",
"433 242 LINE SMOOTH",
"433 103 OFFCURVE",
"360 36 OFFCURVE",
"268 36 CURVE SMOOTH"
);
},
{
closed = 1;
nodes = (
"148 651 LINE",
"213 651 LINE",
"213 720 LINE",
"148 720 LINE"
);
},
{
closed = 1;
nodes = (
"324 651 LINE",
"389 651 LINE",
"389 720 LINE",
"324 720 LINE"
);
}
);
};
layerId = "D4B4FEC9-7137-4CB7-86D3-564A65A82025";
name = Light;
paths = (
{
closed = 1;
nodes = (
"394 -10 OFFCURVE",
"484 83 OFFCURVE",
"484 248 CURVE SMOOTH",
"484 263 LINE SMOOTH",
"484 428 OFFCURVE",
"394 521 OFFCURVE",
"268 521 CURVE SMOOTH",
"142 521 OFFCURVE",
"52 428 OFFCURVE",
"52 263 CURVE SMOOTH",
"52 248 LINE SMOOTH",
"52 83 OFFCURVE",
"142 -10 OFFCURVE",
"268 -10 CURVE SMOOTH"
);
},
{
closed = 1;
nodes = (
"176 36 OFFCURVE",
"103 103 OFFCURVE",
"103 242 CURVE SMOOTH",
"103 269 LINE SMOOTH",
"103 408 OFFCURVE",
"176 475 OFFCURVE",
"268 475 CURVE SMOOTH",
"360 475 OFFCURVE",
"433 408 OFFCURVE",
"433 269 CURVE SMOOTH",
"433 242 LINE SMOOTH",
"433 103 OFFCURVE",
"360 36 OFFCURVE",
"268 36 CURVE SMOOTH"
);
},
{
closed = 1;
nodes = (
"148 651 LINE",
"213 651 LINE",
"213 720 LINE",
"148 720 LINE"
);
},
{
closed = 1;
nodes = (
"324 651 LINE",
"389 651 LINE",
"389 720 LINE",
"324 720 LINE"
);
}
);
width = 574;
}
);
unicode = 00F6;
},
{
glyphname = ograve;
lastChange = "2014-09-05 18:36:13 +0000";
layers = (
{
background = {
paths = (
{
closed = 1;
nodes = (
"394 -10 OFFCURVE",
"484 83 OFFCURVE",
"484 248 CURVE SMOOTH",
"484 263 LINE SMOOTH",
"484 428 OFFCURVE",
"394 521 OFFCURVE",
"268 521 CURVE SMOOTH",
"142 521 OFFCURVE",
"52 428 OFFCURVE",
"52 263 CURVE SMOOTH",
"52 248 LINE SMOOTH",
"52 83 OFFCURVE",
"142 -10 OFFCURVE",
"268 -10 CURVE SMOOTH"
);
},
{
closed = 1;
nodes = (
"176 36 OFFCURVE",
"103 103 OFFCURVE",
"103 242 CURVE SMOOTH",
"103 269 LINE SMOOTH",
"103 408 OFFCURVE",
"176 475 OFFCURVE",
"268 475 CURVE SMOOTH",
"360 475 OFFCURVE",
"433 408 OFFCURVE",
"433 269 CURVE SMOOTH",
"433 242 LINE SMOOTH",
"433 103 OFFCURVE",
"360 36 OFFCURVE",
"268 36 CURVE SMOOTH"
);
},
{
closed = 1;
nodes = (
"302 575 LINE",
"206 720 LINE",
"141 720 LINE",
"141 717 LINE",
"252 575 LINE"
);
}
);
};
layerId = "D4B4FEC9-7137-4CB7-86D3-564A65A82025";
name = Light;
paths = (
{
closed = 1;
nodes = (
"394 -10 OFFCURVE",
"484 83 OFFCURVE",
"484 248 CURVE SMOOTH",
"484 263 LINE SMOOTH",
"484 428 OFFCURVE",
"394 521 OFFCURVE",
"268 521 CURVE SMOOTH",
"142 521 OFFCURVE",
"52 428 OFFCURVE",
"52 263 CURVE SMOOTH",
"52 248 LINE SMOOTH",
"52 83 OFFCURVE",
"142 -10 OFFCURVE",
"268 -10 CURVE SMOOTH"
);
},
{
closed = 1;
nodes = (
"176 36 OFFCURVE",
"103 103 OFFCURVE",
"103 242 CURVE SMOOTH",
"103 269 LINE SMOOTH",
"103 408 OFFCURVE",
"176 475 OFFCURVE",
"268 475 CURVE SMOOTH",
"360 475 OFFCURVE",
"433 408 OFFCURVE",
"433 269 CURVE SMOOTH",
"433 242 LINE SMOOTH",
"433 103 OFFCURVE",
"360 36 OFFCURVE",
"268 36 CURVE SMOOTH"
);
},
{
closed = 1;
nodes = (
"302 575 LINE",
"206 720 LINE",
"141 720 LINE",
"141 717 LINE",
"252 575 LINE"
);
}
);
width = 574;
}
);
unicode = 00F2;
},
{
glyphname = oslash;
lastChange = "2014-09-05 19:10:09 +0000";
layers = (
{
anchors = (
{
name = top;
position = "{267, 511}";
}
);
background = {
anchors = (
{
name = top;
position = "{287, 511}";
}
);
paths = (
{
closed = 1;
nodes = (
"52 -55 LINE",
"97 -55 LINE",
"147 26 LINE",
"181 2 OFFCURVE",
"222 -10 OFFCURVE",
"268 -10 CURVE SMOOTH",
"394 -10 OFFCURVE",
"484 83 OFFCURVE",
"484 248 CURVE SMOOTH",
"484 263 LINE SMOOTH",
"484 350 OFFCURVE",
"459 417 OFFCURVE",
"417 461 CURVE",
"484 569 LINE",
"439 569 LINE",
"387 485 LINE",
"354 508 OFFCURVE",
"313 521 OFFCURVE",
"268 521 CURVE SMOOTH",
"142 521 OFFCURVE",
"52 428 OFFCURVE",
"52 263 CURVE SMOOTH",
"52 248 LINE SMOOTH",
"52 161 OFFCURVE",
"76 95 OFFCURVE",
"118 51 CURVE"
);
},
{
closed = 1;
nodes = (
"232 36 OFFCURVE",
"199 46 OFFCURVE",
"172 66 CURVE",
"390 418 LINE",
"417 384 OFFCURVE",
"433 334 OFFCURVE",
"433 269 CURVE SMOOTH",
"433 242 LINE SMOOTH",
"433 103 OFFCURVE",
"360 36 OFFCURVE",
"268 36 CURVE SMOOTH"
);
},
{
closed = 1;
nodes = (
"103 269 LINE SMOOTH",
"103 408 OFFCURVE",
"176 475 OFFCURVE",
"268 475 CURVE SMOOTH",
"303 475 OFFCURVE",
"336 465 OFFCURVE",
"362 445 CURVE",
"145 94 LINE",
"119 128 OFFCURVE",
"103 177 OFFCURVE",
"103 242 CURVE SMOOTH"
);
}
);
};
layerId = "D4B4FEC9-7137-4CB7-86D3-564A65A82025";
name = Light;
paths = (
{
closed = 1;
nodes = (
"52 -55 LINE",
"97 -55 LINE",
"147 26 LINE",
"181 2 OFFCURVE",
"222 -10 OFFCURVE",
"268 -10 CURVE SMOOTH",
"394 -10 OFFCURVE",
"484 83 OFFCURVE",
"484 248 CURVE SMOOTH",
"484 263 LINE SMOOTH",
"484 350 OFFCURVE",
"459 417 OFFCURVE",
"417 461 CURVE",
"484 569 LINE",
"439 569 LINE",
"387 485 LINE",
"354 508 OFFCURVE",
"313 521 OFFCURVE",
"268 521 CURVE SMOOTH",
"142 521 OFFCURVE",
"52 428 OFFCURVE",
"52 263 CURVE SMOOTH",
"52 248 LINE SMOOTH",
"52 161 OFFCURVE",
"76 95 OFFCURVE",
"118 51 CURVE"
);
},
{
closed = 1;
nodes = (
"232 36 OFFCURVE",
"199 46 OFFCURVE",
"172 66 CURVE",
"390 418 LINE",
"417 384 OFFCURVE",
"433 334 OFFCURVE",
"433 269 CURVE SMOOTH",
"433 242 LINE SMOOTH",
"433 103 OFFCURVE",
"360 36 OFFCURVE",
"268 36 CURVE SMOOTH"
);
},
{
closed = 1;
nodes = (
"103 269 LINE SMOOTH",
"103 408 OFFCURVE",
"176 475 OFFCURVE",
"268 475 CURVE SMOOTH",
"303 475 OFFCURVE",
"336 465 OFFCURVE",
"362 445 CURVE",
"145 94 LINE",
"119 128 OFFCURVE",
"103 177 OFFCURVE",
"103 242 CURVE SMOOTH"
);
}
);
width = 574;
}
);
unicode = 00F8;
},
{
glyphname = otilde;
lastChange = "2014-09-05 18:36:13 +0000";
layers = (
{
background = {
paths = (
{
closed = 1;
nodes = (
"394 -10 OFFCURVE",
"484 83 OFFCURVE",
"484 248 CURVE SMOOTH",
"484 263 LINE SMOOTH",
"484 428 OFFCURVE",
"394 521 OFFCURVE",
"268 521 CURVE SMOOTH",
"142 521 OFFCURVE",
"52 428 OFFCURVE",
"52 263 CURVE SMOOTH",
"52 248 LINE SMOOTH",
"52 83 OFFCURVE",
"142 -10 OFFCURVE",
"268 -10 CURVE SMOOTH"
);
},
{
closed = 1;
nodes = (
"176 36 OFFCURVE",
"103 103 OFFCURVE",
"103 242 CURVE SMOOTH",
"103 269 LINE SMOOTH",
"103 408 OFFCURVE",
"176 475 OFFCURVE",
"268 475 CURVE SMOOTH",
"360 475 OFFCURVE",
"433 408 OFFCURVE",
"433 269 CURVE SMOOTH",
"433 242 LINE SMOOTH",
"433 103 OFFCURVE",
"360 36 OFFCURVE",
"268 36 CURVE SMOOTH"
);
},
{
closed = 1;
nodes = (
"414 720 LINE",
"407 697 OFFCURVE",
"390 688 OFFCURVE",
"357 688 CURVE SMOOTH",
"303 688 OFFCURVE",
"254 720 OFFCURVE",
"190 720 CURVE SMOOTH",
"112 720 OFFCURVE",
"89 670 OFFCURVE",
"89 638 CURVE",
"126 638 LINE",
"133 661 OFFCURVE",
"150 670 OFFCURVE",
"183 670 CURVE SMOOTH",
"237 670 OFFCURVE",
"286 638 OFFCURVE",
"350 638 CURVE SMOOTH",
"429 638 OFFCURVE",
"451 688 OFFCURVE",
"451 720 CURVE"
);
}
);
};
layerId = "D4B4FEC9-7137-4CB7-86D3-564A65A82025";
name = Light;
paths = (
{
closed = 1;
nodes = (
"394 -10 OFFCURVE",
"484 83 OFFCURVE",
"484 248 CURVE SMOOTH",
"484 263 LINE SMOOTH",
"484 428 OFFCURVE",
"394 521 OFFCURVE",
"268 521 CURVE SMOOTH",
"142 521 OFFCURVE",
"52 428 OFFCURVE",
"52 263 CURVE SMOOTH",
"52 248 LINE SMOOTH",
"52 83 OFFCURVE",
"142 -10 OFFCURVE",
"268 -10 CURVE SMOOTH"
);
},
{
closed = 1;
nodes = (
"176 36 OFFCURVE",
"103 103 OFFCURVE",
"103 242 CURVE SMOOTH",
"103 269 LINE SMOOTH",
"103 408 OFFCURVE",
"176 475 OFFCURVE",
"268 475 CURVE SMOOTH",
"360 475 OFFCURVE",
"433 408 OFFCURVE",
"433 269 CURVE SMOOTH",
"433 242 LINE SMOOTH",
"433 103 OFFCURVE",
"360 36 OFFCURVE",
"268 36 CURVE SMOOTH"
);
},
{
closed = 1;
nodes = (
"414 720 LINE",
"407 697 OFFCURVE",
"390 688 OFFCURVE",
"357 688 CURVE SMOOTH",
"303 688 OFFCURVE",
"254 720 OFFCURVE",
"190 720 CURVE SMOOTH",
"112 720 OFFCURVE",
"89 670 OFFCURVE",
"89 638 CURVE",
"126 638 LINE",
"133 661 OFFCURVE",
"150 670 OFFCURVE",
"183 670 CURVE SMOOTH",
"237 670 OFFCURVE",
"286 638 OFFCURVE",
"350 638 CURVE SMOOTH",
"429 638 OFFCURVE",
"451 688 OFFCURVE",
"451 720 CURVE"
);
}
);
width = 574;
}
);
unicode = 00F5;
},
{
glyphname = oe;
lastChange = "2014-09-05 18:36:13 +0000";
layers = (
{
anchors = (
{
name = top;
position = "{467, 511}";
}
);
background = {
anchors = (
{
name = top;
position = "{467, 511}";
}
);
paths = (
{
closed = 1;
nodes = (
"796 189 LINE",
"796 84 OFFCURVE",
"726 36 OFFCURVE",
"647 36 CURVE SMOOTH",
"556 36 OFFCURVE",
"486 101 OFFCURVE",
"484 236 CURVE",
"484 250 LINE",
"846 250 LINE",
"846 314 LINE SMOOTH",
"846 447 OFFCURVE",
"758 521 OFFCURVE",
"646 521 CURVE SMOOTH",
"560 521 OFFCURVE",
"492 478 OFFCURVE",
"458 398 CURVE",
"422 478 OFFCURVE",
"353 521 OFFCURVE",
"268 521 CURVE SMOOTH",
"142 521 OFFCURVE",
"52 428 OFFCURVE",
"52 263 CURVE SMOOTH",
"52 248 LINE SMOOTH",
"52 83 OFFCURVE",
"142 -10 OFFCURVE",
"268 -10 CURVE SMOOTH",
"353 -10 OFFCURVE",
"422 33 OFFCURVE",
"458 112 CURVE",
"493 33 OFFCURVE",
"561 -10 OFFCURVE",
"647 -10 CURVE SMOOTH",
"757 -10 OFFCURVE",
"846 61 OFFCURVE",
"846 189 CURVE"
);
},
{
closed = 1;
nodes = (
"176 36 OFFCURVE",
"103 103 OFFCURVE",
"103 242 CURVE SMOOTH",
"103 269 LINE SMOOTH",
"103 408 OFFCURVE",
"176 475 OFFCURVE",
"268 475 CURVE SMOOTH",
"360 475 OFFCURVE",
"433 408 OFFCURVE",
"433 269 CURVE SMOOTH",
"433 242 LINE SMOOTH",
"433 103 OFFCURVE",
"360 36 OFFCURVE",
"268 36 CURVE SMOOTH"
);
},
{
closed = 1;
nodes = (
"728 475 OFFCURVE",
"796 423 OFFCURVE",
"796 314 CURVE SMOOTH",
"796 296 LINE",
"485 296 LINE",
"493 416 OFFCURVE",
"560 475 OFFCURVE",
"646 475 CURVE SMOOTH"
);
}
);
};
layerId = "D4B4FEC9-7137-4CB7-86D3-564A65A82025";
name = Light;
paths = (
{
closed = 1;
nodes = (
"796 189 LINE",
"796 84 OFFCURVE",
"726 36 OFFCURVE",
"647 36 CURVE SMOOTH",
"556 36 OFFCURVE",
"486 101 OFFCURVE",
"484 236 CURVE",
"484 250 LINE",
"846 250 LINE",
"846 314 LINE SMOOTH",
"846 447 OFFCURVE",
"758 521 OFFCURVE",
"646 521 CURVE SMOOTH",
"560 521 OFFCURVE",
"492 478 OFFCURVE",
"458 398 CURVE",
"422 478 OFFCURVE",
"353 521 OFFCURVE",
"268 521 CURVE SMOOTH",
"142 521 OFFCURVE",
"52 428 OFFCURVE",
"52 263 CURVE SMOOTH",
"52 248 LINE SMOOTH",
"52 83 OFFCURVE",
"142 -10 OFFCURVE",
"268 -10 CURVE SMOOTH",
"353 -10 OFFCURVE",
"422 33 OFFCURVE",
"458 112 CURVE",
"493 33 OFFCURVE",
"561 -10 OFFCURVE",
"647 -10 CURVE SMOOTH",
"757 -10 OFFCURVE",
"846 61 OFFCURVE",
"846 189 CURVE"
);
},
{
closed = 1;
nodes = (
"176 36 OFFCURVE",
"103 103 OFFCURVE",
"103 242 CURVE SMOOTH",
"103 269 LINE SMOOTH",
"103 408 OFFCURVE",
"176 475 OFFCURVE",
"268 475 CURVE SMOOTH",
"360 475 OFFCURVE",
"433 408 OFFCURVE",
"433 269 CURVE SMOOTH",
"433 242 LINE SMOOTH",
"433 103 OFFCURVE",
"360 36 OFFCURVE",
"268 36 CURVE SMOOTH"
);
},
{
closed = 1;
nodes = (
"728 475 OFFCURVE",
"796 423 OFFCURVE",
"796 314 CURVE SMOOTH",
"796 296 LINE",
"485 296 LINE",
"493 416 OFFCURVE",
"560 475 OFFCURVE",
"646 475 CURVE SMOOTH"
);
}
);
width = 933;
}
);
unicode = 0153;
},
{
glyphname = p;
lastChange = "2014-09-05 18:36:13 +0000";
layers = (
{
background = {
paths = (
{
closed = 1;
nodes = (
"117 511 LINE",
"83 511 LINE",
"83 -181 LINE",
"134 -181 LINE",
"134 71 LINE",
"167 21 OFFCURVE",
"225 -10 OFFCURVE",
"297 -10 CURVE SMOOTH",
"409 -10 OFFCURVE",
"500 78 OFFCURVE",
"500 240 CURVE SMOOTH",
"500 251 LINE SMOOTH",
"500 441 OFFCURVE",
"409 521 OFFCURVE",
"297 521 CURVE SMOOTH",
"222 521 OFFCURVE",
"166 493 OFFCURVE",
"128 434 CURVE"
);
},
{
closed = 1;
nodes = (
"133 254 LINE SMOOTH",
"133 423 OFFCURVE",
"206 475 OFFCURVE",
"292 475 CURVE SMOOTH",
"379 475 OFFCURVE",
"449 419 OFFCURVE",
"449 253 CURVE SMOOTH",
"449 242 LINE SMOOTH",
"449 99 OFFCURVE",
"379 36 OFFCURVE",
"292 36 CURVE SMOOTH",
"205 36 OFFCURVE",
"133 98 OFFCURVE",
"133 242 CURVE SMOOTH"
);
}
);
};
layerId = "D4B4FEC9-7137-4CB7-86D3-564A65A82025";
name = Light;
paths = (
{
closed = 1;
nodes = (
"117 511 LINE",
"83 511 LINE",
"83 -181 LINE",
"134 -181 LINE",
"134 71 LINE",
"167 21 OFFCURVE",
"225 -10 OFFCURVE",
"297 -10 CURVE SMOOTH",
"409 -10 OFFCURVE",
"500 78 OFFCURVE",
"500 240 CURVE SMOOTH",
"500 251 LINE SMOOTH",
"500 441 OFFCURVE",
"409 521 OFFCURVE",
"297 521 CURVE SMOOTH",
"222 521 OFFCURVE",
"166 493 OFFCURVE",
"128 434 CURVE"
);
},
{
closed = 1;
nodes = (
"133 254 LINE SMOOTH",
"133 423 OFFCURVE",
"206 475 OFFCURVE",
"292 475 CURVE SMOOTH",
"379 475 OFFCURVE",
"449 419 OFFCURVE",
"449 253 CURVE SMOOTH",
"449 242 LINE SMOOTH",
"449 99 OFFCURVE",
"379 36 OFFCURVE",
"292 36 CURVE SMOOTH",
"205 36 OFFCURVE",
"133 98 OFFCURVE",
"133 242 CURVE SMOOTH"
);
}
);
width = 583;
}
);
unicode = 0070;
},
{
glyphname = thorn;
lastChange = "2014-09-05 18:36:13 +0000";
layers = (
{
background = {
paths = (
{
closed = 1;
nodes = (
"83 -181 LINE",
"134 -181 LINE",
"134 71 LINE",
"167 21 OFFCURVE",
"225 -10 OFFCURVE",
"297 -10 CURVE SMOOTH",
"409 -10 OFFCURVE",
"500 78 OFFCURVE",
"500 240 CURVE SMOOTH",
"500 251 LINE SMOOTH",
"500 441 OFFCURVE",
"409 521 OFFCURVE",
"297 521 CURVE SMOOTH",
"225 521 OFFCURVE",
"171 495 OFFCURVE",
"133 441 CURVE",
"133 720 LINE",
"83 720 LINE"
);
},
{
closed = 1;
nodes = (
"133 254 LINE SMOOTH",
"133 423 OFFCURVE",
"206 475 OFFCURVE",
"292 475 CURVE SMOOTH",
"379 475 OFFCURVE",
"449 419 OFFCURVE",
"449 253 CURVE SMOOTH",
"449 242 LINE SMOOTH",
"449 99 OFFCURVE",
"379 36 OFFCURVE",
"292 36 CURVE SMOOTH",
"205 36 OFFCURVE",
"133 98 OFFCURVE",
"133 242 CURVE SMOOTH"
);
}
);
};
layerId = "D4B4FEC9-7137-4CB7-86D3-564A65A82025";
name = Light;
paths = (
{
closed = 1;
nodes = (
"83 -181 LINE",
"134 -181 LINE",
"134 71 LINE",
"167 21 OFFCURVE",
"225 -10 OFFCURVE",
"297 -10 CURVE SMOOTH",
"409 -10 OFFCURVE",
"500 78 OFFCURVE",
"500 240 CURVE SMOOTH",
"500 251 LINE SMOOTH",
"500 441 OFFCURVE",
"409 521 OFFCURVE",
"297 521 CURVE SMOOTH",
"225 521 OFFCURVE",
"171 495 OFFCURVE",
"133 441 CURVE",
"133 720 LINE",
"83 720 LINE"
);
},
{
closed = 1;
nodes = (
"133 254 LINE SMOOTH",
"133 423 OFFCURVE",
"206 475 OFFCURVE",
"292 475 CURVE SMOOTH",
"379 475 OFFCURVE",
"449 419 OFFCURVE",
"449 253 CURVE SMOOTH",
"449 242 LINE SMOOTH",
"449 99 OFFCURVE",
"379 36 OFFCURVE",
"292 36 CURVE SMOOTH",
"205 36 OFFCURVE",
"133 98 OFFCURVE",
"133 242 CURVE SMOOTH"
);
}
);
width = 583;
}
);
unicode = 00FE;
},
{
glyphname = q;
lastChange = "2014-09-05 18:36:13 +0000";
layers = (
{
background = {
paths = (
{
closed = 1;
nodes = (
"418 -180 LINE",
"469 -180 LINE",
"469 511 LINE",
"448 511 LINE",
"429 426 LINE",
"391 490 OFFCURVE",
"333 521 OFFCURVE",
"255 521 CURVE SMOOTH",
"143 521 OFFCURVE",
"52 441 OFFCURVE",
"52 251 CURVE SMOOTH",
"52 240 LINE SMOOTH",
"52 78 OFFCURVE",
"143 -10 OFFCURVE",
"255 -10 CURVE SMOOTH",
"327 -10 OFFCURVE",
"385 21 OFFCURVE",
"418 71 CURVE"
);
},
{
closed = 1;
nodes = (
"419 242 LINE SMOOTH",
"419 98 OFFCURVE",
"347 36 OFFCURVE",
"260 36 CURVE SMOOTH",
"173 36 OFFCURVE",
"103 99 OFFCURVE",
"103 242 CURVE SMOOTH",
"103 253 LINE SMOOTH",
"103 419 OFFCURVE",
"173 475 OFFCURVE",
"260 475 CURVE SMOOTH",
"346 475 OFFCURVE",
"419 423 OFFCURVE",
"419 254 CURVE SMOOTH"
);
}
);
};
layerId = "D4B4FEC9-7137-4CB7-86D3-564A65A82025";
name = Light;
paths = (
{
closed = 1;
nodes = (
"418 -180 LINE",
"469 -180 LINE",
"469 511 LINE",
"448 511 LINE",
"429 426 LINE",
"391 490 OFFCURVE",
"333 521 OFFCURVE",
"255 521 CURVE SMOOTH",
"143 521 OFFCURVE",
"52 441 OFFCURVE",
"52 251 CURVE SMOOTH",
"52 240 LINE SMOOTH",
"52 78 OFFCURVE",
"143 -10 OFFCURVE",
"255 -10 CURVE SMOOTH",
"327 -10 OFFCURVE",
"385 21 OFFCURVE",
"418 71 CURVE"
);
},
{
closed = 1;
nodes = (
"419 242 LINE SMOOTH",
"419 98 OFFCURVE",
"347 36 OFFCURVE",
"260 36 CURVE SMOOTH",
"173 36 OFFCURVE",
"103 99 OFFCURVE",
"103 242 CURVE SMOOTH",
"103 253 LINE SMOOTH",
"103 419 OFFCURVE",
"173 475 OFFCURVE",
"260 475 CURVE SMOOTH",
"346 475 OFFCURVE",
"419 423 OFFCURVE",
"419 254 CURVE SMOOTH"
);
}
);
width = 583;
}
);
unicode = 0071;
},
{
glyphname = r;
lastChange = "2014-09-05 19:10:15 +0000";
layers = (
{
anchors = (
{
name = bottom;
position = "{109, 0}";
},
{
name = top;
position = "{109, 511}";
}
);
background = {
anchors = (
{
name = top;
position = "{245, 511}";
},
{
name = bottom;
position = "{245, 0}";
}
);
paths = (
{
closed = 1;
nodes = (
"435 328 LINE",
"435 328 OFFCURVE",
"437 338 OFFCURVE",
"437 352 CURVE SMOOTH",
"437 442 OFFCURVE",
"384 521 OFFCURVE",
"273 521 CURVE SMOOTH",
"162 521 OFFCURVE",
"128 435 OFFCURVE",
"128 435 CURVE",
"117 511 LINE",
"83 511 LINE",
"83 0 LINE",
"134 0 LINE",
"134 324 LINE SMOOTH",
"134 379 OFFCURVE",
"164 475 OFFCURVE",
"263 475 CURVE SMOOTH",
"362 475 OFFCURVE",
"388 397 OFFCURVE",
"388 344 CURVE SMOOTH",
"388 328 LINE"
);
}
);
};
layerId = "D4B4FEC9-7137-4CB7-86D3-564A65A82025";
name = Light;
paths = (
{
closed = 1;
nodes = (
"435 328 LINE",
"435 328 OFFCURVE",
"437 338 OFFCURVE",
"437 352 CURVE SMOOTH",
"437 442 OFFCURVE",
"384 521 OFFCURVE",
"273 521 CURVE SMOOTH",
"162 521 OFFCURVE",
"128 435 OFFCURVE",
"128 435 CURVE",
"117 511 LINE",
"83 511 LINE",
"83 0 LINE",
"134 0 LINE",
"134 324 LINE SMOOTH",
"134 379 OFFCURVE",
"164 475 OFFCURVE",
"263 475 CURVE SMOOTH",
"362 475 OFFCURVE",
"388 397 OFFCURVE",
"388 344 CURVE SMOOTH",
"388 328 LINE"
);
}
);
width = 490;
}
);
unicode = 0072;
},
{
glyphname = s;
lastChange = "2014-09-05 19:10:19 +0000";
layers = (
{
anchors = (
{
name = bottom;
position = "{267, 0}";
},
{
name = top;
position = "{247, 511}";
}
);
background = {
anchors = (
{
name = top;
position = "{267, 511}";
},
{
name = bottom;
position = "{267, 0}";
}
);
paths = (
{
closed = 1;
nodes = (
"46 157 LINE SMOOTH",
"46 157 OFFCURVE",
"45 151 OFFCURVE",
"45 132 CURVE SMOOTH",
"45 80 OFFCURVE",
"90 -10 OFFCURVE",
"248 -10 CURVE SMOOTH",
"367 -10 OFFCURVE",
"457 30 OFFCURVE",
"457 146 CURVE SMOOTH",
"457 334 OFFCURVE",
"111 246 OFFCURVE",
"111 383 CURVE SMOOTH",
"111 408 OFFCURVE",
"117 475 OFFCURVE",
"249 475 CURVE SMOOTH",
"385 475 OFFCURVE",
"394 405 OFFCURVE",
"394 382 CURVE SMOOTH",
"394 376 OFFCURVE",
"394 369 OFFCURVE",
"394 369 CURVE",
"444 369 LINE",
"444 369 OFFCURVE",
"445 377 OFFCURVE",
"445 383 CURVE SMOOTH",
"445 443 OFFCURVE",
"394 521 OFFCURVE",
"258 521 CURVE SMOOTH",
"121 521 OFFCURVE",
"60 458 OFFCURVE",
"60 381 CURVE SMOOTH",
"60 187 OFFCURVE",
"406 293 OFFCURVE",
"406 136 CURVE SMOOTH",
"406 78 OFFCURVE",
"355 36 OFFCURVE",
"261 36 CURVE SMOOTH",
"159 36 OFFCURVE",
"95 74 OFFCURVE",
"95 143 CURVE SMOOTH",
"95 148 OFFCURVE",
"95 152 OFFCURVE",
"96 157 CURVE"
);
}
);
};
layerId = "D4B4FEC9-7137-4CB7-86D3-564A65A82025";
name = Light;
paths = (
{
closed = 1;
nodes = (
"46 157 LINE SMOOTH",
"46 157 OFFCURVE",
"45 151 OFFCURVE",
"45 132 CURVE SMOOTH",
"45 80 OFFCURVE",
"90 -10 OFFCURVE",
"248 -10 CURVE SMOOTH",
"367 -10 OFFCURVE",
"457 30 OFFCURVE",
"457 146 CURVE SMOOTH",
"457 334 OFFCURVE",
"111 246 OFFCURVE",
"111 383 CURVE SMOOTH",
"111 408 OFFCURVE",
"117 475 OFFCURVE",
"249 475 CURVE SMOOTH",
"385 475 OFFCURVE",
"394 405 OFFCURVE",
"394 382 CURVE SMOOTH",
"394 376 OFFCURVE",
"394 369 OFFCURVE",
"394 369 CURVE",
"444 369 LINE",
"444 369 OFFCURVE",
"445 377 OFFCURVE",
"445 383 CURVE SMOOTH",
"445 443 OFFCURVE",
"394 521 OFFCURVE",
"258 521 CURVE SMOOTH",
"121 521 OFFCURVE",
"60 458 OFFCURVE",
"60 381 CURVE SMOOTH",
"60 187 OFFCURVE",
"406 293 OFFCURVE",
"406 136 CURVE SMOOTH",
"406 78 OFFCURVE",
"355 36 OFFCURVE",
"261 36 CURVE SMOOTH",
"159 36 OFFCURVE",
"95 74 OFFCURVE",
"95 143 CURVE SMOOTH",
"95 148 OFFCURVE",
"95 152 OFFCURVE",
"96 157 CURVE"
);
}
);
width = 534;
}
);
unicode = 0073;
},
{
glyphname = scaron;
lastChange = "2014-09-05 18:36:13 +0000";
layers = (
{
background = {
paths = (
{
closed = 1;
nodes = (
"46 157 LINE SMOOTH",
"46 157 OFFCURVE",
"45 151 OFFCURVE",
"45 132 CURVE SMOOTH",
"45 80 OFFCURVE",
"90 -10 OFFCURVE",
"248 -10 CURVE SMOOTH",
"367 -10 OFFCURVE",
"457 30 OFFCURVE",
"457 146 CURVE SMOOTH",
"457 334 OFFCURVE",
"111 246 OFFCURVE",
"111 383 CURVE SMOOTH",
"111 408 OFFCURVE",
"117 475 OFFCURVE",
"249 475 CURVE SMOOTH",
"385 475 OFFCURVE",
"394 405 OFFCURVE",
"394 382 CURVE SMOOTH",
"394 376 OFFCURVE",
"394 369 OFFCURVE",
"394 369 CURVE",
"444 369 LINE",
"444 369 OFFCURVE",
"445 377 OFFCURVE",
"445 383 CURVE SMOOTH",
"445 443 OFFCURVE",
"394 521 OFFCURVE",
"258 521 CURVE SMOOTH",
"121 521 OFFCURVE",
"60 458 OFFCURVE",
"60 381 CURVE SMOOTH",
"60 187 OFFCURVE",
"406 293 OFFCURVE",
"406 136 CURVE SMOOTH",
"406 78 OFFCURVE",
"355 36 OFFCURVE",
"261 36 CURVE SMOOTH",
"159 36 OFFCURVE",
"95 74 OFFCURVE",
"95 143 CURVE SMOOTH",
"95 148 OFFCURVE",
"95 152 OFFCURVE",
"96 157 CURVE"
);
},
{
closed = 1;
nodes = (
"226 575 LINE",
"284 575 LINE",
"418 720 LINE",
"358 720 LINE",
"255 623 LINE",
"152 720 LINE",
"92 720 LINE"
);
}
);
};
layerId = "D4B4FEC9-7137-4CB7-86D3-564A65A82025";
name = Light;
paths = (
{
closed = 1;
nodes = (
"46 157 LINE SMOOTH",
"46 157 OFFCURVE",
"45 151 OFFCURVE",
"45 132 CURVE SMOOTH",
"45 80 OFFCURVE",
"90 -10 OFFCURVE",
"248 -10 CURVE SMOOTH",
"367 -10 OFFCURVE",
"457 30 OFFCURVE",
"457 146 CURVE SMOOTH",
"457 334 OFFCURVE",
"111 246 OFFCURVE",
"111 383 CURVE SMOOTH",
"111 408 OFFCURVE",
"117 475 OFFCURVE",
"249 475 CURVE SMOOTH",
"385 475 OFFCURVE",
"394 405 OFFCURVE",
"394 382 CURVE SMOOTH",
"394 376 OFFCURVE",
"394 369 OFFCURVE",
"394 369 CURVE",
"444 369 LINE",
"444 369 OFFCURVE",
"445 377 OFFCURVE",
"445 383 CURVE SMOOTH",
"445 443 OFFCURVE",
"394 521 OFFCURVE",
"258 521 CURVE SMOOTH",
"121 521 OFFCURVE",
"60 458 OFFCURVE",
"60 381 CURVE SMOOTH",
"60 187 OFFCURVE",
"406 293 OFFCURVE",
"406 136 CURVE SMOOTH",
"406 78 OFFCURVE",
"355 36 OFFCURVE",
"261 36 CURVE SMOOTH",
"159 36 OFFCURVE",
"95 74 OFFCURVE",
"95 143 CURVE SMOOTH",
"95 148 OFFCURVE",
"95 152 OFFCURVE",
"96 157 CURVE"
);
},
{
closed = 1;
nodes = (
"226 575 LINE",
"284 575 LINE",
"418 720 LINE",
"358 720 LINE",
"255 623 LINE",
"152 720 LINE",
"92 720 LINE"
);
}
);
width = 534;
}
);
unicode = 0161;
},
{
glyphname = germandbls;
lastChange = "2014-09-05 18:36:13 +0000";
layers = (
{
background = {
paths = (
{
closed = 1;
nodes = (
"407 388 LINE",
"464 410 OFFCURVE",
"509 477 OFFCURVE",
"509 544 CURVE SMOOTH",
"509 646 OFFCURVE",
"429 728 OFFCURVE",
"315 728 CURVE SMOOTH",
"189 728 OFFCURVE",
"102 643 OFFCURVE",
"102 511 CURVE",
"46 511 LINE",
"46 465 LINE",
"102 465 LINE",
"102 -66 LINE",
"153 -66 LINE",
"153 514 LINE SMOOTH",
"153 614 OFFCURVE",
"215 682 OFFCURVE",
"315 682 CURVE SMOOTH",
"401 682 OFFCURVE",
"458 620 OFFCURVE",
"458 544 CURVE SMOOTH",
"458 468 OFFCURVE",
"389 407 OFFCURVE",
"305 407 CURVE SMOOTH",
"224 407 LINE",
"224 361 LINE",
"316 361 LINE SMOOTH",
"407 361 OFFCURVE",
"480 290 OFFCURVE",
"480 203 CURVE SMOOTH",
"480 116 OFFCURVE",
"407 46 OFFCURVE",
"316 46 CURVE SMOOTH",
"224 46 LINE",
"224 0 LINE",
"316 0 LINE SMOOTH",
"435 0 OFFCURVE",
"531 90 OFFCURVE",
"531 203 CURVE SMOOTH",
"531 283 OFFCURVE",
"480 358 OFFCURVE",
"409 385 CURVE"
);
}
);
};
layerId = "D4B4FEC9-7137-4CB7-86D3-564A65A82025";
name = Light;
paths = (
{
closed = 1;
nodes = (
"407 388 LINE",
"464 410 OFFCURVE",
"509 477 OFFCURVE",
"509 544 CURVE SMOOTH",
"509 646 OFFCURVE",
"429 728 OFFCURVE",
"315 728 CURVE SMOOTH",
"189 728 OFFCURVE",
"102 643 OFFCURVE",
"102 511 CURVE",
"46 511 LINE",
"46 465 LINE",
"102 465 LINE",
"102 -66 LINE",
"153 -66 LINE",
"153 514 LINE SMOOTH",
"153 614 OFFCURVE",
"215 682 OFFCURVE",
"315 682 CURVE SMOOTH",
"401 682 OFFCURVE",
"458 620 OFFCURVE",
"458 544 CURVE SMOOTH",
"458 468 OFFCURVE",
"389 407 OFFCURVE",
"305 407 CURVE SMOOTH",
"224 407 LINE",
"224 361 LINE",
"316 361 LINE SMOOTH",
"407 361 OFFCURVE",
"480 290 OFFCURVE",
"480 203 CURVE SMOOTH",
"480 116 OFFCURVE",
"407 46 OFFCURVE",
"316 46 CURVE SMOOTH",
"224 46 LINE",
"224 0 LINE",
"316 0 LINE SMOOTH",
"435 0 OFFCURVE",
"531 90 OFFCURVE",
"531 203 CURVE SMOOTH",
"531 283 OFFCURVE",
"480 358 OFFCURVE",
"409 385 CURVE"
);
}
);
width = 614;
}
);
unicode = 00DF;
},
{
glyphname = t;
lastChange = "2014-09-09 03:37:20 +0000";
layers = (
{
anchors = (
{
name = bottom;
position = "{173, 0}";
},
{
name = center;
position = "{125, 256}";
},
{
name = topright;
position = "{333, 686}";
}
);
background = {
anchors = (
{
name = center;
position = "{173, 256}";
},
{
name = bottom;
position = "{173, 0}";
},
{
name = topright;
position = "{326, 511}";
}
);
paths = (
{
closed = 1;
nodes = (
"269 52 LINE",
"253 45 OFFCURVE",
"222 36 OFFCURVE",
"207 36 CURVE SMOOTH",
"179 36 OFFCURVE",
"150 44 OFFCURVE",
"150 103 CURVE SMOOTH",
"150 465 LINE",
"269 465 LINE",
"269 511 LINE",
"150 511 LINE",
"150 674 LINE",
"117 674 LINE",
"99 511 LINE",
"43 511 LINE",
"43 465 LINE",
"99 465 LINE",
"99 101 LINE SMOOTH",
"99 24 OFFCURVE",
"142 -10 OFFCURVE",
"201 -10 CURVE SMOOTH",
"226 -10 OFFCURVE",
"252 -3 OFFCURVE",
"269 7 CURVE"
);
}
);
};
layerId = "D4B4FEC9-7137-4CB7-86D3-564A65A82025";
name = Light;
paths = (
{
closed = 1;
nodes = (
"269 52 LINE",
"253 45 OFFCURVE",
"222 36 OFFCURVE",
"207 36 CURVE SMOOTH",
"179 36 OFFCURVE",
"150 44 OFFCURVE",
"150 103 CURVE SMOOTH",
"150 465 LINE",
"269 465 LINE",
"269 511 LINE",
"150 511 LINE",
"150 674 LINE",
"117 674 LINE",
"99 511 LINE",
"43 511 LINE",
"43 465 LINE",
"99 465 LINE",
"99 101 LINE SMOOTH",
"99 24 OFFCURVE",
"142 -10 OFFCURVE",
"201 -10 CURVE SMOOTH",
"226 -10 OFFCURVE",
"252 -3 OFFCURVE",
"269 7 CURVE"
);
}
);
width = 346;
}
);
unicode = 0074;
},
{
glyphname = u;
lastChange = "2014-09-05 19:10:26 +0000";
layers = (
{
anchors = (
{
name = ogonek;
position = "{556, 10}";
},
{
name = top;
position = "{280, 511}";
}
);
background = {
anchors = (
{
name = top;
position = "{309, 511}";
},
{
name = ogonek;
position = "{556, 10}";
}
);
paths = (
{
closed = 1;
nodes = (
"430 36 OFFCURVE",
"445 -10 OFFCURVE",
"494 -10 CURVE SMOOTH",
"518 -10 OFFCURVE",
"540 -3 OFFCURVE",
"558 9 CURVE",
"558 52 LINE",
"543 43 OFFCURVE",
"523 36 OFFCURVE",
"508 36 CURVE SMOOTH",
"493 36 OFFCURVE",
"481 45 OFFCURVE",
"481 69 CURVE SMOOTH",
"481 511 LINE",
"430 511 LINE",
"430 197 LINE SMOOTH",
"430 105 OFFCURVE",
"363 36 OFFCURVE",
"273 36 CURVE SMOOTH",
"183 36 OFFCURVE",
"129 86 OFFCURVE",
"129 197 CURVE SMOOTH",
"129 511 LINE",
"78 511 LINE",
"78 182 LINE SMOOTH",
"78 49 OFFCURVE",
"159 -10 OFFCURVE",
"265 -10 CURVE SMOOTH",
"332 -10 OFFCURVE",
"395 22 OFFCURVE",
"430 76 CURVE"
);
}
);
};
layerId = "D4B4FEC9-7137-4CB7-86D3-564A65A82025";
name = Light;
paths = (
{
closed = 1;
nodes = (
"430 36 OFFCURVE",
"445 -10 OFFCURVE",
"494 -10 CURVE SMOOTH",
"518 -10 OFFCURVE",
"540 -3 OFFCURVE",
"558 9 CURVE",
"558 52 LINE",
"543 43 OFFCURVE",
"523 36 OFFCURVE",
"508 36 CURVE SMOOTH",
"493 36 OFFCURVE",
"481 45 OFFCURVE",
"481 69 CURVE SMOOTH",
"481 511 LINE",
"430 511 LINE",
"430 197 LINE SMOOTH",
"430 105 OFFCURVE",
"363 36 OFFCURVE",
"273 36 CURVE SMOOTH",
"183 36 OFFCURVE",
"129 86 OFFCURVE",
"129 197 CURVE SMOOTH",
"129 511 LINE",
"78 511 LINE",
"78 182 LINE SMOOTH",
"78 49 OFFCURVE",
"159 -10 OFFCURVE",
"265 -10 CURVE SMOOTH",
"332 -10 OFFCURVE",
"395 22 OFFCURVE",
"430 76 CURVE"
);
}
);
width = 618;
}
);
unicode = 0075;
},
{
glyphname = uacute;
lastChange = "2014-09-05 18:36:13 +0000";
layers = (
{
background = {
paths = (
{
closed = 1;
nodes = (
"430 36 OFFCURVE",
"445 -10 OFFCURVE",
"494 -10 CURVE SMOOTH",
"518 -10 OFFCURVE",
"540 -3 OFFCURVE",
"558 9 CURVE",
"558 52 LINE",
"543 43 OFFCURVE",
"523 36 OFFCURVE",
"508 36 CURVE SMOOTH",
"493 36 OFFCURVE",
"481 45 OFFCURVE",
"481 69 CURVE SMOOTH",
"481 511 LINE",
"430 511 LINE",
"430 197 LINE SMOOTH",
"430 105 OFFCURVE",
"363 36 OFFCURVE",
"273 36 CURVE SMOOTH",
"183 36 OFFCURVE",
"129 86 OFFCURVE",
"129 197 CURVE SMOOTH",
"129 511 LINE",
"78 511 LINE",
"78 182 LINE SMOOTH",
"78 49 OFFCURVE",
"159 -10 OFFCURVE",
"265 -10 CURVE SMOOTH",
"332 -10 OFFCURVE",
"395 22 OFFCURVE",
"430 76 CURVE"
);
},
{
closed = 1;
nodes = (
"307 575 LINE",
"418 717 LINE",
"418 720 LINE",
"353 720 LINE",
"257 575 LINE"
);
}
);
};
layerId = "D4B4FEC9-7137-4CB7-86D3-564A65A82025";
name = Light;
paths = (
{
closed = 1;
nodes = (
"430 36 OFFCURVE",
"445 -10 OFFCURVE",
"494 -10 CURVE SMOOTH",
"518 -10 OFFCURVE",
"540 -3 OFFCURVE",
"558 9 CURVE",
"558 52 LINE",
"543 43 OFFCURVE",
"523 36 OFFCURVE",
"508 36 CURVE SMOOTH",
"493 36 OFFCURVE",
"481 45 OFFCURVE",
"481 69 CURVE SMOOTH",
"481 511 LINE",
"430 511 LINE",
"430 197 LINE SMOOTH",
"430 105 OFFCURVE",
"363 36 OFFCURVE",
"273 36 CURVE SMOOTH",
"183 36 OFFCURVE",
"129 86 OFFCURVE",
"129 197 CURVE SMOOTH",
"129 511 LINE",
"78 511 LINE",
"78 182 LINE SMOOTH",
"78 49 OFFCURVE",
"159 -10 OFFCURVE",
"265 -10 CURVE SMOOTH",
"332 -10 OFFCURVE",
"395 22 OFFCURVE",
"430 76 CURVE"
);
},
{
closed = 1;
nodes = (
"307 575 LINE",
"418 717 LINE",
"418 720 LINE",
"353 720 LINE",
"257 575 LINE"
);
}
);
width = 618;
}
);
unicode = 00FA;
},
{
glyphname = ucircumflex;
lastChange = "2014-09-05 18:36:13 +0000";
layers = (
{
background = {
paths = (
{
closed = 1;
nodes = (
"430 36 OFFCURVE",
"445 -10 OFFCURVE",
"494 -10 CURVE SMOOTH",
"518 -10 OFFCURVE",
"540 -3 OFFCURVE",
"558 9 CURVE",
"558 52 LINE",
"543 43 OFFCURVE",
"523 36 OFFCURVE",
"508 36 CURVE SMOOTH",
"493 36 OFFCURVE",
"481 45 OFFCURVE",
"481 69 CURVE SMOOTH",
"481 511 LINE",
"430 511 LINE",
"430 197 LINE SMOOTH",
"430 105 OFFCURVE",
"363 36 OFFCURVE",
"273 36 CURVE SMOOTH",
"183 36 OFFCURVE",
"129 86 OFFCURVE",
"129 197 CURVE SMOOTH",
"129 511 LINE",
"78 511 LINE",
"78 182 LINE SMOOTH",
"78 49 OFFCURVE",
"159 -10 OFFCURVE",
"265 -10 CURVE SMOOTH",
"332 -10 OFFCURVE",
"395 22 OFFCURVE",
"430 76 CURVE"
);
},
{
closed = 1;
nodes = (
"117 575 LINE",
"177 575 LINE",
"280 672 LINE",
"383 575 LINE",
"443 575 LINE",
"309 720 LINE",
"251 720 LINE"
);
}
);
};
layerId = "D4B4FEC9-7137-4CB7-86D3-564A65A82025";
name = Light;
paths = (
{
closed = 1;
nodes = (
"430 36 OFFCURVE",
"445 -10 OFFCURVE",
"494 -10 CURVE SMOOTH",
"518 -10 OFFCURVE",
"540 -3 OFFCURVE",
"558 9 CURVE",
"558 52 LINE",
"543 43 OFFCURVE",
"523 36 OFFCURVE",
"508 36 CURVE SMOOTH",
"493 36 OFFCURVE",
"481 45 OFFCURVE",
"481 69 CURVE SMOOTH",
"481 511 LINE",
"430 511 LINE",
"430 197 LINE SMOOTH",
"430 105 OFFCURVE",
"363 36 OFFCURVE",
"273 36 CURVE SMOOTH",
"183 36 OFFCURVE",
"129 86 OFFCURVE",
"129 197 CURVE SMOOTH",
"129 511 LINE",
"78 511 LINE",
"78 182 LINE SMOOTH",
"78 49 OFFCURVE",
"159 -10 OFFCURVE",
"265 -10 CURVE SMOOTH",
"332 -10 OFFCURVE",
"395 22 OFFCURVE",
"430 76 CURVE"
);
},
{
closed = 1;
nodes = (
"117 575 LINE",
"177 575 LINE",
"280 672 LINE",
"383 575 LINE",
"443 575 LINE",
"309 720 LINE",
"251 720 LINE"
);
}
);
width = 618;
}
);
unicode = 00FB;
},
{
glyphname = udieresis;
lastChange = "2014-09-05 18:36:13 +0000";
layers = (
{
background = {
paths = (
{
closed = 1;
nodes = (
"430 36 OFFCURVE",
"445 -10 OFFCURVE",
"494 -10 CURVE SMOOTH",
"518 -10 OFFCURVE",
"540 -3 OFFCURVE",
"558 9 CURVE",
"558 52 LINE",
"543 43 OFFCURVE",
"523 36 OFFCURVE",
"508 36 CURVE SMOOTH",
"493 36 OFFCURVE",
"481 45 OFFCURVE",
"481 69 CURVE SMOOTH",
"481 511 LINE",
"430 511 LINE",
"430 197 LINE SMOOTH",
"430 105 OFFCURVE",
"363 36 OFFCURVE",
"273 36 CURVE SMOOTH",
"183 36 OFFCURVE",
"129 86 OFFCURVE",
"129 197 CURVE SMOOTH",
"129 511 LINE",
"78 511 LINE",
"78 182 LINE SMOOTH",
"78 49 OFFCURVE",
"159 -10 OFFCURVE",
"265 -10 CURVE SMOOTH",
"332 -10 OFFCURVE",
"395 22 OFFCURVE",
"430 76 CURVE"
);
},
{
closed = 1;
nodes = (
"156 651 LINE",
"221 651 LINE",
"221 720 LINE",
"156 720 LINE"
);
},
{
closed = 1;
nodes = (
"332 651 LINE",
"397 651 LINE",
"397 720 LINE",
"332 720 LINE"
);
}
);
};
layerId = "D4B4FEC9-7137-4CB7-86D3-564A65A82025";
name = Light;
paths = (
{
closed = 1;
nodes = (
"430 36 OFFCURVE",
"445 -10 OFFCURVE",
"494 -10 CURVE SMOOTH",
"518 -10 OFFCURVE",
"540 -3 OFFCURVE",
"558 9 CURVE",
"558 52 LINE",
"543 43 OFFCURVE",
"523 36 OFFCURVE",
"508 36 CURVE SMOOTH",
"493 36 OFFCURVE",
"481 45 OFFCURVE",
"481 69 CURVE SMOOTH",
"481 511 LINE",
"430 511 LINE",
"430 197 LINE SMOOTH",
"430 105 OFFCURVE",
"363 36 OFFCURVE",
"273 36 CURVE SMOOTH",
"183 36 OFFCURVE",
"129 86 OFFCURVE",
"129 197 CURVE SMOOTH",
"129 511 LINE",
"78 511 LINE",
"78 182 LINE SMOOTH",
"78 49 OFFCURVE",
"159 -10 OFFCURVE",
"265 -10 CURVE SMOOTH",
"332 -10 OFFCURVE",
"395 22 OFFCURVE",
"430 76 CURVE"
);
},
{
closed = 1;
nodes = (
"156 651 LINE",
"221 651 LINE",
"221 720 LINE",
"156 720 LINE"
);
},
{
closed = 1;
nodes = (
"332 651 LINE",
"397 651 LINE",
"397 720 LINE",
"332 720 LINE"
);
}
);
width = 618;
}
);
unicode = 00FC;
},
{
glyphname = ugrave;
lastChange = "2014-09-05 18:36:13 +0000";
layers = (
{
background = {
paths = (
{
closed = 1;
nodes = (
"430 36 OFFCURVE",
"445 -10 OFFCURVE",
"494 -10 CURVE SMOOTH",
"518 -10 OFFCURVE",
"540 -3 OFFCURVE",
"558 9 CURVE",
"558 52 LINE",
"543 43 OFFCURVE",
"523 36 OFFCURVE",
"508 36 CURVE SMOOTH",
"493 36 OFFCURVE",
"481 45 OFFCURVE",
"481 69 CURVE SMOOTH",
"481 511 LINE",
"430 511 LINE",
"430 197 LINE SMOOTH",
"430 105 OFFCURVE",
"363 36 OFFCURVE",
"273 36 CURVE SMOOTH",
"183 36 OFFCURVE",
"129 86 OFFCURVE",
"129 197 CURVE SMOOTH",
"129 511 LINE",
"78 511 LINE",
"78 182 LINE SMOOTH",
"78 49 OFFCURVE",
"159 -10 OFFCURVE",
"265 -10 CURVE SMOOTH",
"332 -10 OFFCURVE",
"395 22 OFFCURVE",
"430 76 CURVE"
);
},
{
closed = 1;
nodes = (
"312 575 LINE",
"216 720 LINE",
"151 720 LINE",
"151 717 LINE",
"262 575 LINE"
);
}
);
};
layerId = "D4B4FEC9-7137-4CB7-86D3-564A65A82025";
name = Light;
paths = (
{
closed = 1;
nodes = (
"430 36 OFFCURVE",
"445 -10 OFFCURVE",
"494 -10 CURVE SMOOTH",
"518 -10 OFFCURVE",
"540 -3 OFFCURVE",
"558 9 CURVE",
"558 52 LINE",
"543 43 OFFCURVE",
"523 36 OFFCURVE",
"508 36 CURVE SMOOTH",
"493 36 OFFCURVE",
"481 45 OFFCURVE",
"481 69 CURVE SMOOTH",
"481 511 LINE",
"430 511 LINE",
"430 197 LINE SMOOTH",
"430 105 OFFCURVE",
"363 36 OFFCURVE",
"273 36 CURVE SMOOTH",
"183 36 OFFCURVE",
"129 86 OFFCURVE",
"129 197 CURVE SMOOTH",
"129 511 LINE",
"78 511 LINE",
"78 182 LINE SMOOTH",
"78 49 OFFCURVE",
"159 -10 OFFCURVE",
"265 -10 CURVE SMOOTH",
"332 -10 OFFCURVE",
"395 22 OFFCURVE",
"430 76 CURVE"
);
},
{
closed = 1;
nodes = (
"312 575 LINE",
"216 720 LINE",
"151 720 LINE",
"151 717 LINE",
"262 575 LINE"
);
}
);
width = 618;
}
);
unicode = 00F9;
},
{
glyphname = v;
lastChange = "2014-09-05 18:36:13 +0000";
layers = (
{
background = {
paths = (
{
closed = 1;
nodes = (
"470 511 LINE",
"420 511 LINE",
"244 74 LINE",
"242 74 LINE",
"67 511 LINE",
"12 511 LINE",
"218 0 LINE",
"263 0 LINE"
);
}
);
};
layerId = "D4B4FEC9-7137-4CB7-86D3-564A65A82025";
name = Light;
paths = (
{
closed = 1;
nodes = (
"470 511 LINE",
"420 511 LINE",
"244 74 LINE",
"242 74 LINE",
"67 511 LINE",
"12 511 LINE",
"218 0 LINE",
"263 0 LINE"
);
}
);
width = 512;
}
);
unicode = 0076;
},
{
glyphname = w;
lastChange = "2014-09-05 19:10:37 +0000";
layers = (
{
anchors = (
{
name = top;
position = "{396, 511}";
}
);
background = {
anchors = (
{
name = top;
position = "{406, 511}";
}
);
paths = (
{
closed = 1;
nodes = (
"392 446 LINE",
"394 446 LINE",
"549 0 LINE",
"589 0 LINE",
"767 511 LINE",
"718 511 LINE",
"573 93 LINE",
"570 93 LINE",
"425 511 LINE",
"366 511 LINE",
"221 93 LINE",
"218 93 LINE",
"73 511 LINE",
"20 511 LINE",
"197 0 LINE",
"237 0 LINE"
);
}
);
};
layerId = "D4B4FEC9-7137-4CB7-86D3-564A65A82025";
name = Light;
paths = (
{
closed = 1;
nodes = (
"392 446 LINE",
"394 446 LINE",
"549 0 LINE",
"589 0 LINE",
"767 511 LINE",
"718 511 LINE",
"573 93 LINE",
"570 93 LINE",
"425 511 LINE",
"366 511 LINE",
"221 93 LINE",
"218 93 LINE",
"73 511 LINE",
"20 511 LINE",
"197 0 LINE",
"237 0 LINE"
);
}
);
width = 811;
}
);
unicode = 0077;
},
{
glyphname = x;
lastChange = "2014-09-05 18:36:13 +0000";
layers = (
{
background = {
paths = (
{
closed = 1;
nodes = (
"456 0 LINE",
"266 262 LINE",
"447 511 LINE",
"389 511 LINE",
"239 303 LINE",
"238 303 LINE",
"90 511 LINE",
"26 511 LINE",
"208 262 LINE",
"18 0 LINE",
"76 0 LINE",
"235 221 LINE",
"236 221 LINE",
"393 0 LINE"
);
}
);
};
layerId = "D4B4FEC9-7137-4CB7-86D3-564A65A82025";
name = Light;
paths = (
{
closed = 1;
nodes = (
"456 0 LINE",
"266 262 LINE",
"447 511 LINE",
"389 511 LINE",
"239 303 LINE",
"238 303 LINE",
"90 511 LINE",
"26 511 LINE",
"208 262 LINE",
"18 0 LINE",
"76 0 LINE",
"235 221 LINE",
"236 221 LINE",
"393 0 LINE"
);
}
);
width = 519;
}
);
unicode = 0078;
},
{
glyphname = y;
lastChange = "2014-09-05 19:10:43 +0000";
layers = (
{
anchors = (
{
name = top;
position = "{244, 511}";
}
);
background = {
anchors = (
{
name = top;
position = "{256, 511}";
}
);
paths = (
{
closed = 1;
nodes = (
"470 511 LINE",
"420 511 LINE",
"245 76 LINE",
"241 76 LINE",
"67 511 LINE",
"12 511 LINE",
"215 8 LINE",
"195 -41 LINE SMOOTH",
"179 -81 OFFCURVE",
"158 -140 OFFCURVE",
"101 -140 CURVE SMOOTH",
"83 -140 OFFCURVE",
"61 -132 OFFCURVE",
"47 -126 CURVE",
"47 -172 LINE",
"69 -182 OFFCURVE",
"88 -186 OFFCURVE",
"110 -186 CURVE SMOOTH",
"201 -186 OFFCURVE",
"225 -94 OFFCURVE",
"268 13 CURVE SMOOTH"
);
}
);
};
layerId = "D4B4FEC9-7137-4CB7-86D3-564A65A82025";
name = Light;
paths = (
{
closed = 1;
nodes = (
"470 511 LINE",
"420 511 LINE",
"245 76 LINE",
"241 76 LINE",
"67 511 LINE",
"12 511 LINE",
"215 8 LINE",
"195 -41 LINE SMOOTH",
"179 -81 OFFCURVE",
"158 -140 OFFCURVE",
"101 -140 CURVE SMOOTH",
"83 -140 OFFCURVE",
"61 -132 OFFCURVE",
"47 -126 CURVE",
"47 -172 LINE",
"69 -182 OFFCURVE",
"88 -186 OFFCURVE",
"110 -186 CURVE SMOOTH",
"201 -186 OFFCURVE",
"225 -94 OFFCURVE",
"268 13 CURVE SMOOTH"
);
}
);
width = 512;
}
);
unicode = 0079;
},
{
glyphname = yacute;
lastChange = "2014-09-05 18:36:13 +0000";
layers = (
{
background = {
paths = (
{
closed = 1;
nodes = (
"470 511 LINE",
"420 511 LINE",
"245 76 LINE",
"241 76 LINE",
"67 511 LINE",
"12 511 LINE",
"215 8 LINE",
"195 -41 LINE SMOOTH",
"179 -81 OFFCURVE",
"158 -140 OFFCURVE",
"101 -140 CURVE SMOOTH",
"83 -140 OFFCURVE",
"61 -132 OFFCURVE",
"47 -126 CURVE",
"47 -172 LINE",
"69 -182 OFFCURVE",
"88 -186 OFFCURVE",
"110 -186 CURVE SMOOTH",
"201 -186 OFFCURVE",
"225 -94 OFFCURVE",
"268 13 CURVE SMOOTH"
);
},
{
closed = 1;
nodes = (
"271 575 LINE",
"382 717 LINE",
"382 720 LINE",
"317 720 LINE",
"221 575 LINE"
);
}
);
};
layerId = "D4B4FEC9-7137-4CB7-86D3-564A65A82025";
name = Light;
paths = (
{
closed = 1;
nodes = (
"470 511 LINE",
"420 511 LINE",
"245 76 LINE",
"241 76 LINE",
"67 511 LINE",
"12 511 LINE",
"215 8 LINE",
"195 -41 LINE SMOOTH",
"179 -81 OFFCURVE",
"158 -140 OFFCURVE",
"101 -140 CURVE SMOOTH",
"83 -140 OFFCURVE",
"61 -132 OFFCURVE",
"47 -126 CURVE",
"47 -172 LINE",
"69 -182 OFFCURVE",
"88 -186 OFFCURVE",
"110 -186 CURVE SMOOTH",
"201 -186 OFFCURVE",
"225 -94 OFFCURVE",
"268 13 CURVE SMOOTH"
);
},
{
closed = 1;
nodes = (
"271 575 LINE",
"382 717 LINE",
"382 720 LINE",
"317 720 LINE",
"221 575 LINE"
);
}
);
width = 512;
}
);
unicode = 00FD;
},
{
glyphname = ydieresis;
lastChange = "2014-09-05 18:36:13 +0000";
layers = (
{
background = {
paths = (
{
closed = 1;
nodes = (
"470 511 LINE",
"420 511 LINE",
"245 76 LINE",
"241 76 LINE",
"67 511 LINE",
"12 511 LINE",
"215 8 LINE",
"195 -41 LINE SMOOTH",
"179 -81 OFFCURVE",
"158 -140 OFFCURVE",
"101 -140 CURVE SMOOTH",
"83 -140 OFFCURVE",
"61 -132 OFFCURVE",
"47 -126 CURVE",
"47 -172 LINE",
"69 -182 OFFCURVE",
"88 -186 OFFCURVE",
"110 -186 CURVE SMOOTH",
"201 -186 OFFCURVE",
"225 -94 OFFCURVE",
"268 13 CURVE SMOOTH"
);
},
{
closed = 1;
nodes = (
"124 651 LINE",
"189 651 LINE",
"189 720 LINE",
"124 720 LINE"
);
},
{
closed = 1;
nodes = (
"300 651 LINE",
"365 651 LINE",
"365 720 LINE",
"300 720 LINE"
);
}
);
};
layerId = "D4B4FEC9-7137-4CB7-86D3-564A65A82025";
name = Light;
paths = (
{
closed = 1;
nodes = (
"470 511 LINE",
"420 511 LINE",
"245 76 LINE",
"241 76 LINE",
"67 511 LINE",
"12 511 LINE",
"215 8 LINE",
"195 -41 LINE SMOOTH",
"179 -81 OFFCURVE",
"158 -140 OFFCURVE",
"101 -140 CURVE SMOOTH",
"83 -140 OFFCURVE",
"61 -132 OFFCURVE",
"47 -126 CURVE",
"47 -172 LINE",
"69 -182 OFFCURVE",
"88 -186 OFFCURVE",
"110 -186 CURVE SMOOTH",
"201 -186 OFFCURVE",
"225 -94 OFFCURVE",
"268 13 CURVE SMOOTH"
);
},
{
closed = 1;
nodes = (
"124 651 LINE",
"189 651 LINE",
"189 720 LINE",
"124 720 LINE"
);
},
{
closed = 1;
nodes = (
"300 651 LINE",
"365 651 LINE",
"365 720 LINE",
"300 720 LINE"
);
}
);
width = 512;
}
);
unicode = 00FF;
},
{
glyphname = z;
lastChange = "2014-09-05 19:10:48 +0000";
layers = (
{
anchors = (
{
name = top;
position = "{212, 511}";
}
);
background = {
anchors = (
{
name = top;
position = "{232, 511}";
}
);
paths = (
{
closed = 1;
nodes = (
"396 0 LINE",
"396 46 LINE",
"110 46 LINE",
"388 487 LINE",
"388 511 LINE",
"53 511 LINE",
"53 465 LINE",
"313 465 LINE",
"36 24 LINE",
"36 0 LINE"
);
}
);
};
layerId = "D4B4FEC9-7137-4CB7-86D3-564A65A82025";
name = Light;
paths = (
{
closed = 1;
nodes = (
"396 0 LINE",
"396 46 LINE",
"110 46 LINE",
"388 487 LINE",
"388 511 LINE",
"53 511 LINE",
"53 465 LINE",
"313 465 LINE",
"36 24 LINE",
"36 0 LINE"
);
}
);
width = 463;
}
);
unicode = 007A;
},
{
glyphname = zcaron;
lastChange = "2014-09-05 18:36:13 +0000";
layers = (
{
background = {
paths = (
{
closed = 1;
nodes = (
"396 0 LINE",
"396 46 LINE",
"110 46 LINE",
"388 487 LINE",
"388 511 LINE",
"53 511 LINE",
"53 465 LINE",
"313 465 LINE",
"36 24 LINE",
"36 0 LINE"
);
},
{
closed = 1;
nodes = (
"193 575 LINE",
"251 575 LINE",
"385 720 LINE",
"325 720 LINE",
"222 623 LINE",
"119 720 LINE",
"59 720 LINE"
);
}
);
};
layerId = "D4B4FEC9-7137-4CB7-86D3-564A65A82025";
name = Light;
paths = (
{
closed = 1;
nodes = (
"396 0 LINE",
"396 46 LINE",
"110 46 LINE",
"388 487 LINE",
"388 511 LINE",
"53 511 LINE",
"53 465 LINE",
"313 465 LINE",
"36 24 LINE",
"36 0 LINE"
);
},
{
closed = 1;
nodes = (
"193 575 LINE",
"251 575 LINE",
"385 720 LINE",
"325 720 LINE",
"222 623 LINE",
"119 720 LINE",
"59 720 LINE"
);
}
);
width = 463;
}
);
unicode = 017E;
},
{
glyphname = fi;
lastChange = "2014-09-05 18:36:13 +0000";
layers = (
{
background = {
paths = (
{
closed = 1;
nodes = (
"273 711 LINE",
"256 721 OFFCURVE",
"230 728 OFFCURVE",
"205 728 CURVE SMOOTH",
"146 728 OFFCURVE",
"103 694 OFFCURVE",
"103 617 CURVE SMOOTH",
"103 511 LINE",
"47 511 LINE",
"47 465 LINE",
"103 465 LINE",
"103 0 LINE",
"154 0 LINE",
"154 465 LINE",
"273 465 LINE",
"273 511 LINE",
"154 511 LINE",
"154 615 LINE SMOOTH",
"154 674 OFFCURVE",
"183 682 OFFCURVE",
"211 682 CURVE SMOOTH",
"226 682 OFFCURVE",
"257 673 OFFCURVE",
"273 666 CURVE"
);
},
{
closed = 1;
nodes = (
"447 0 LINE",
"447 511 LINE",
"396 511 LINE",
"396 0 LINE"
);
},
{
closed = 1;
nodes = (
"392 666 LINE",
"451 666 LINE",
"451 720 LINE",
"392 720 LINE"
);
}
);
};
layerId = "D4B4FEC9-7137-4CB7-86D3-564A65A82025";
name = Light;
paths = (
{
closed = 1;
nodes = (
"273 711 LINE",
"256 721 OFFCURVE",
"230 728 OFFCURVE",
"205 728 CURVE SMOOTH",
"146 728 OFFCURVE",
"103 694 OFFCURVE",
"103 617 CURVE SMOOTH",
"103 511 LINE",
"47 511 LINE",
"47 465 LINE",
"103 465 LINE",
"103 0 LINE",
"154 0 LINE",
"154 465 LINE",
"273 465 LINE",
"273 511 LINE",
"154 511 LINE",
"154 615 LINE SMOOTH",
"154 674 OFFCURVE",
"183 682 OFFCURVE",
"211 682 CURVE SMOOTH",
"226 682 OFFCURVE",
"257 673 OFFCURVE",
"273 666 CURVE"
);
},
{
closed = 1;
nodes = (
"447 0 LINE",
"447 511 LINE",
"396 511 LINE",
"396 0 LINE"
);
},
{
closed = 1;
nodes = (
"392 666 LINE",
"451 666 LINE",
"451 720 LINE",
"392 720 LINE"
);
}
);
width = 601;
}
);
unicode = FB01;
},
{
glyphname = fl;
lastChange = "2014-09-05 18:36:13 +0000";
layers = (
{
background = {
paths = (
{
closed = 1;
nodes = (
"273 711 LINE",
"256 721 OFFCURVE",
"230 728 OFFCURVE",
"205 728 CURVE SMOOTH",
"146 728 OFFCURVE",
"103 694 OFFCURVE",
"103 617 CURVE SMOOTH",
"103 511 LINE",
"47 511 LINE",
"47 465 LINE",
"103 465 LINE",
"103 0 LINE",
"154 0 LINE",
"154 465 LINE",
"273 465 LINE",
"273 511 LINE",
"154 511 LINE",
"154 615 LINE SMOOTH",
"154 674 OFFCURVE",
"183 682 OFFCURVE",
"211 682 CURVE SMOOTH",
"226 682 OFFCURVE",
"257 673 OFFCURVE",
"273 666 CURVE"
);
},
{
closed = 1;
nodes = (
"449 0 LINE",
"449 720 LINE",
"398 720 LINE",
"398 0 LINE"
);
}
);
};
layerId = "D4B4FEC9-7137-4CB7-86D3-564A65A82025";
name = Light;
paths = (
{
closed = 1;
nodes = (
"273 711 LINE",
"256 721 OFFCURVE",
"230 728 OFFCURVE",
"205 728 CURVE SMOOTH",
"146 728 OFFCURVE",
"103 694 OFFCURVE",
"103 617 CURVE SMOOTH",
"103 511 LINE",
"47 511 LINE",
"47 465 LINE",
"103 465 LINE",
"103 0 LINE",
"154 0 LINE",
"154 465 LINE",
"273 465 LINE",
"273 511 LINE",
"154 511 LINE",
"154 615 LINE SMOOTH",
"154 674 OFFCURVE",
"183 682 OFFCURVE",
"211 682 CURVE SMOOTH",
"226 682 OFFCURVE",
"257 673 OFFCURVE",
"273 666 CURVE"
);
},
{
closed = 1;
nodes = (
"449 0 LINE",
"449 720 LINE",
"398 720 LINE",
"398 0 LINE"
);
}
);
width = 607;
}
);
unicode = FB02;
},
{
glyphname = ordfeminine;
lastChange = "2014-09-05 18:36:13 +0000";
layers = (
{
background = {
paths = (
{
closed = 1;
nodes = (
"261 512 LINE SMOOTH",
"261 441 OFFCURVE",
"210 410 OFFCURVE",
"161 410 CURVE SMOOTH",
"115 410 OFFCURVE",
"95 426 OFFCURVE",
"95 462 CURVE SMOOTH",
"95 522 OFFCURVE",
"160 527 OFFCURVE",
"261 527 CURVE"
);
},
{
closed = 1;
nodes = (
"301 603 LINE SMOOTH",
"301 667 OFFCURVE",
"264 697 OFFCURVE",
"187 697 CURVE SMOOTH",
"119 697 OFFCURVE",
"66 666 OFFCURVE",
"66 609 CURVE SMOOTH",
"66 607 OFFCURVE",
"66 598 OFFCURVE",
"68 594 CURVE",
"106 594 LINE",
"106 603 LINE SMOOTH",
"106 644 OFFCURVE",
"141 660 OFFCURVE",
"187 660 CURVE SMOOTH",
"239 660 OFFCURVE",
"261 644 OFFCURVE",
"261 597 CURVE SMOOTH",
"261 564 LINE",
"142 564 OFFCURVE",
"55 554 OFFCURVE",
"55 463 CURVE SMOOTH",
"55 391 OFFCURVE",
"104 373 OFFCURVE",
"155 373 CURVE SMOOTH",
"201 373 OFFCURVE",
"235 388 OFFCURVE",
"261 421 CURVE",
"264 392 OFFCURVE",
"275 373 OFFCURVE",
"304 373 CURVE SMOOTH",
"320 373 OFFCURVE",
"335 378 OFFCURVE",
"347 387 CURVE",
"347 424 LINE",
"334 416 OFFCURVE",
"320 410 OFFCURVE",
"312 410 CURVE SMOOTH",
"306 410 OFFCURVE",
"301 414 OFFCURVE",
"301 425 CURVE SMOOTH"
);
}
);
};
layerId = "D4B4FEC9-7137-4CB7-86D3-564A65A82025";
name = Light;
paths = (
{
closed = 1;
nodes = (
"261 512 LINE SMOOTH",
"261 441 OFFCURVE",
"210 410 OFFCURVE",
"161 410 CURVE SMOOTH",
"115 410 OFFCURVE",
"95 426 OFFCURVE",
"95 462 CURVE SMOOTH",
"95 522 OFFCURVE",
"160 527 OFFCURVE",
"261 527 CURVE"
);
},
{
closed = 1;
nodes = (
"301 603 LINE SMOOTH",
"301 667 OFFCURVE",
"264 697 OFFCURVE",
"187 697 CURVE SMOOTH",
"119 697 OFFCURVE",
"66 666 OFFCURVE",
"66 609 CURVE SMOOTH",
"66 607 OFFCURVE",
"66 598 OFFCURVE",
"68 594 CURVE",
"106 594 LINE",
"106 603 LINE SMOOTH",
"106 644 OFFCURVE",
"141 660 OFFCURVE",
"187 660 CURVE SMOOTH",
"239 660 OFFCURVE",
"261 644 OFFCURVE",
"261 597 CURVE SMOOTH",
"261 564 LINE",
"142 564 OFFCURVE",
"55 554 OFFCURVE",
"55 463 CURVE SMOOTH",
"55 391 OFFCURVE",
"104 373 OFFCURVE",
"155 373 CURVE SMOOTH",
"201 373 OFFCURVE",
"235 388 OFFCURVE",
"261 421 CURVE",
"264 392 OFFCURVE",
"275 373 OFFCURVE",
"304 373 CURVE SMOOTH",
"320 373 OFFCURVE",
"335 378 OFFCURVE",
"347 387 CURVE",
"347 424 LINE",
"334 416 OFFCURVE",
"320 410 OFFCURVE",
"312 410 CURVE SMOOTH",
"306 410 OFFCURVE",
"301 414 OFFCURVE",
"301 425 CURVE SMOOTH"
);
}
);
width = 415;
}
);
unicode = 00AA;
},
{
glyphname = ordmasculine;
lastChange = "2014-09-05 18:36:13 +0000";
layers = (
{
background = {
paths = (
{
closed = 1;
nodes = (
"262 377 OFFCURVE",
"317 433 OFFCURVE",
"317 533 CURVE SMOOTH",
"317 542 LINE SMOOTH",
"317 642 OFFCURVE",
"262 698 OFFCURVE",
"184 698 CURVE SMOOTH",
"108 698 OFFCURVE",
"53 642 OFFCURVE",
"53 542 CURVE SMOOTH",
"53 533 LINE SMOOTH",
"53 433 OFFCURVE",
"108 377 OFFCURVE",
"184 377 CURVE SMOOTH"
);
},
{
closed = 1;
nodes = (
"133 413 OFFCURVE",
"93 450 OFFCURVE",
"93 530 CURVE SMOOTH",
"93 545 LINE SMOOTH",
"93 624 OFFCURVE",
"133 661 OFFCURVE",
"184 661 CURVE SMOOTH",
"236 661 OFFCURVE",
"276 624 OFFCURVE",
"276 545 CURVE SMOOTH",
"276 530 LINE SMOOTH",
"276 450 OFFCURVE",
"236 413 OFFCURVE",
"184 413 CURVE SMOOTH"
);
}
);
};
layerId = "D4B4FEC9-7137-4CB7-86D3-564A65A82025";
name = Light;
paths = (
{
closed = 1;
nodes = (
"262 377 OFFCURVE",
"317 433 OFFCURVE",
"317 533 CURVE SMOOTH",
"317 542 LINE SMOOTH",
"317 642 OFFCURVE",
"262 698 OFFCURVE",
"184 698 CURVE SMOOTH",
"108 698 OFFCURVE",
"53 642 OFFCURVE",
"53 542 CURVE SMOOTH",
"53 533 LINE SMOOTH",
"53 433 OFFCURVE",
"108 377 OFFCURVE",
"184 377 CURVE SMOOTH"
);
},
{
closed = 1;
nodes = (
"133 413 OFFCURVE",
"93 450 OFFCURVE",
"93 530 CURVE SMOOTH",
"93 545 LINE SMOOTH",
"93 624 OFFCURVE",
"133 661 OFFCURVE",
"184 661 CURVE SMOOTH",
"236 661 OFFCURVE",
"276 624 OFFCURVE",
"276 545 CURVE SMOOTH",
"276 530 LINE SMOOTH",
"276 450 OFFCURVE",
"236 413 OFFCURVE",
"184 413 CURVE SMOOTH"
);
}
);
width = 392;
}
);
unicode = 00BA;
},
{
glyphname = Delta;
lastChange = "2014-09-05 18:36:13 +0000";
layers = (
{
background = {
paths = (
{
closed = 1;
nodes = (
"67 0 LINE",
"634 0 LINE",
"634 48 LINE",
"394 686 LINE",
"306 686 LINE",
"67 48 LINE"
);
},
{
closed = 1;
nodes = (
"350 639 LINE",
"569 55 LINE",
"131 55 LINE"
);
}
);
};
layerId = "D4B4FEC9-7137-4CB7-86D3-564A65A82025";
name = Light;
paths = (
{
closed = 1;
nodes = (
"67 0 LINE",
"634 0 LINE",
"634 48 LINE",
"394 686 LINE",
"306 686 LINE",
"67 48 LINE"
);
},
{
closed = 1;
nodes = (
"350 639 LINE",
"569 55 LINE",
"131 55 LINE"
);
}
);
width = 701;
}
);
unicode = 0394;
},
{
glyphname = Omega;
lastChange = "2014-09-05 18:36:13 +0000";
layers = (
{
anchors = (
{
name = topleft;
position = "{20, 686}";
}
);
background = {
anchors = (
{
name = topleft;
position = "{20, 686}";
}
);
paths = (
{
closed = 1;
nodes = (
"600 356 LINE SMOOTH",
"600 631 OFFCURVE",
"481 696 OFFCURVE",
"334 696 CURVE SMOOTH",
"187 696 OFFCURVE",
"68 631 OFFCURVE",
"68 356 CURVE SMOOTH",
"68 330 LINE SMOOTH",
"68 182 OFFCURVE",
"105 94 OFFCURVE",
"163 44 CURVE",
"90 48 LINE",
"45 48 LINE",
"45 0 LINE",
"292 0 LINE",
"292 29 LINE",
"195 42 OFFCURVE",
"122 106 OFFCURVE",
"122 306 CURVE SMOOTH",
"122 368 LINE SMOOTH",
"122 595 OFFCURVE",
"217 648 OFFCURVE",
"334 648 CURVE SMOOTH",
"451 648 OFFCURVE",
"546 595 OFFCURVE",
"546 368 CURVE SMOOTH",
"546 306 LINE SMOOTH",
"546 106 OFFCURVE",
"472 41 OFFCURVE",
"374 29 CURVE",
"374 0 LINE",
"621 0 LINE",
"621 48 LINE",
"576 48 LINE",
"505 44 LINE",
"563 94 OFFCURVE",
"600 182 OFFCURVE",
"600 330 CURVE SMOOTH"
);
}
);
};
layerId = "D4B4FEC9-7137-4CB7-86D3-564A65A82025";
name = Light;
paths = (
{
closed = 1;
nodes = (
"600 356 LINE SMOOTH",
"600 631 OFFCURVE",
"481 696 OFFCURVE",
"334 696 CURVE SMOOTH",
"187 696 OFFCURVE",
"68 631 OFFCURVE",
"68 356 CURVE SMOOTH",
"68 330 LINE SMOOTH",
"68 182 OFFCURVE",
"105 94 OFFCURVE",
"163 44 CURVE",
"90 48 LINE",
"45 48 LINE",
"45 0 LINE",
"292 0 LINE",
"292 29 LINE",
"195 42 OFFCURVE",
"122 106 OFFCURVE",
"122 306 CURVE SMOOTH",
"122 368 LINE SMOOTH",
"122 595 OFFCURVE",
"217 648 OFFCURVE",
"334 648 CURVE SMOOTH",
"451 648 OFFCURVE",
"546 595 OFFCURVE",
"546 368 CURVE SMOOTH",
"546 306 LINE SMOOTH",
"546 106 OFFCURVE",
"472 41 OFFCURVE",
"374 29 CURVE",
"374 0 LINE",
"621 0 LINE",
"621 48 LINE",
"576 48 LINE",
"505 44 LINE",
"563 94 OFFCURVE",
"600 182 OFFCURVE",
"600 330 CURVE SMOOTH"
);
}
);
width = 699;
}
);
unicode = 03A9;
},
{
glyphname = mu;
lastChange = "2014-09-05 18:36:13 +0000";
layers = (
{
background = {
paths = (
{
closed = 1;
nodes = (
"189 36 OFFCURVE",
"133 87 OFFCURVE",
"133 189 CURVE SMOOTH",
"133 511 LINE",
"82 511 LINE",
"82 -161 LINE",
"133 -161 LINE",
"133 1 LINE SMOOTH",
"133 22 OFFCURVE",
"127 51 OFFCURVE",
"127 51 CURVE",
"159 9 OFFCURVE",
"217 -10 OFFCURVE",
"272 -10 CURVE SMOOTH",
"339 -10 OFFCURVE",
"399 22 OFFCURVE",
"434 76 CURVE",
"434 36 OFFCURVE",
"449 -10 OFFCURVE",
"498 -10 CURVE SMOOTH",
"522 -10 OFFCURVE",
"544 -3 OFFCURVE",
"562 9 CURVE",
"562 52 LINE",
"547 43 OFFCURVE",
"527 36 OFFCURVE",
"512 36 CURVE SMOOTH",
"497 36 OFFCURVE",
"485 45 OFFCURVE",
"485 69 CURVE SMOOTH",
"485 511 LINE",
"434 511 LINE",
"434 197 LINE SMOOTH",
"434 105 OFFCURVE",
"367 36 OFFCURVE",
"277 36 CURVE SMOOTH"
);
}
);
};
layerId = "D4B4FEC9-7137-4CB7-86D3-564A65A82025";
name = Light;
paths = (
{
closed = 1;
nodes = (
"189 36 OFFCURVE",
"133 87 OFFCURVE",
"133 189 CURVE SMOOTH",
"133 511 LINE",
"82 511 LINE",
"82 -161 LINE",
"133 -161 LINE",
"133 1 LINE SMOOTH",
"133 22 OFFCURVE",
"127 51 OFFCURVE",
"127 51 CURVE",
"159 9 OFFCURVE",
"217 -10 OFFCURVE",
"272 -10 CURVE SMOOTH",
"339 -10 OFFCURVE",
"399 22 OFFCURVE",
"434 76 CURVE",
"434 36 OFFCURVE",
"449 -10 OFFCURVE",
"498 -10 CURVE SMOOTH",
"522 -10 OFFCURVE",
"544 -3 OFFCURVE",
"562 9 CURVE",
"562 52 LINE",
"547 43 OFFCURVE",
"527 36 OFFCURVE",
"512 36 CURVE SMOOTH",
"497 36 OFFCURVE",
"485 45 OFFCURVE",
"485 69 CURVE SMOOTH",
"485 511 LINE",
"434 511 LINE",
"434 197 LINE SMOOTH",
"434 105 OFFCURVE",
"367 36 OFFCURVE",
"277 36 CURVE SMOOTH"
);
}
);
width = 612;
}
);
unicode = 03BC;
},
{
glyphname = pi;
lastChange = "2014-09-05 18:36:13 +0000";
layers = (
{
background = {
paths = (
{
closed = 1;
nodes = (
"548 465 LINE",
"555 510 LINE",
"160 510 LINE SMOOTH",
"85 510 OFFCURVE",
"45 499 OFFCURVE",
"20 484 CURVE",
"31 452 LINE",
"53 460 OFFCURVE",
"84 465 OFFCURVE",
"153 465 CURVE",
"148 331 OFFCURVE",
"118 103 OFFCURVE",
"80 0 CURVE",
"129 0 LINE",
"166 90 OFFCURVE",
"197 336 OFFCURVE",
"203 465 CURVE",
"408 465 LINE",
"408 137 LINE SMOOTH",
"408 55 OFFCURVE",
"416 15 OFFCURVE",
"425 0 CURVE",
"473 0 LINE",
"464 26 OFFCURVE",
"458 61 OFFCURVE",
"458 145 CURVE SMOOTH",
"458 465 LINE"
);
}
);
};
layerId = "D4B4FEC9-7137-4CB7-86D3-564A65A82025";
name = Light;
paths = (
{
closed = 1;
nodes = (
"548 465 LINE",
"555 510 LINE",
"160 510 LINE SMOOTH",
"85 510 OFFCURVE",
"45 499 OFFCURVE",
"20 484 CURVE",
"31 452 LINE",
"53 460 OFFCURVE",
"84 465 OFFCURVE",
"153 465 CURVE",
"148 331 OFFCURVE",
"118 103 OFFCURVE",
"80 0 CURVE",
"129 0 LINE",
"166 90 OFFCURVE",
"197 336 OFFCURVE",
"203 465 CURVE",
"408 465 LINE",
"408 137 LINE SMOOTH",
"408 55 OFFCURVE",
"416 15 OFFCURVE",
"425 0 CURVE",
"473 0 LINE",
"464 26 OFFCURVE",
"458 61 OFFCURVE",
"458 145 CURVE SMOOTH",
"458 465 LINE"
);
}
);
width = 628;
}
);
unicode = 03C0;
},
